<svg width="24" height="24" viewBox="0 0 24 24" fill="none" xmlns="http://www.w3.org/2000/svg">
<path d="M9.91884 10.1501C9.5988 10.177 9.30053 10.3231 9.08315 10.5595C8.86576 10.7959 8.74512 11.1054 8.74512 11.4266C8.74512 11.7477 8.86576 12.0572 9.08315 12.2936C9.30053 12.53 9.5988 12.6762 9.91884 12.7031C10.2389 12.6762 10.5371 12.53 10.7545 12.2936C10.9719 12.0572 11.0926 11.7477 11.0926 11.4266C11.0926 11.1054 10.9719 10.7959 10.7545 10.5595C10.5371 10.3231 10.2389 10.177 9.91884 10.1501ZM14.1188 10.1501C13.8618 10.1283 13.6042 10.1847 13.3797 10.3118C13.1552 10.4389 12.9743 10.6308 12.8607 10.8624C12.7471 11.094 12.7061 11.3545 12.743 11.6098C12.7799 11.8651 12.8931 12.1033 13.0676 12.2933C13.2421 12.4832 13.47 12.616 13.7213 12.6743C13.9725 12.7327 14.2356 12.7138 14.4759 12.6201C14.7163 12.5264 14.9228 12.3624 15.0684 12.1494C15.2139 11.9365 15.2918 11.6845 15.2918 11.4266C15.2987 11.2655 15.2738 11.1047 15.2184 10.9533C15.163 10.8019 15.0783 10.6629 14.9691 10.5443C14.8599 10.4257 14.7283 10.3298 14.582 10.2622C14.4357 10.1945 14.2774 10.1564 14.1163 10.1501H14.1188Z" fill="#001D48"/>
<path d="M19.7052 0.5H4.29523C3.66188 0.534182 3.06707 0.814947 2.63814 1.28219C2.20921 1.74944 1.98023 2.36604 2.00023 3V18.5C1.99406 18.8027 2.04928 19.1034 2.16254 19.3842C2.27581 19.6649 2.44478 19.9198 2.65926 20.1334C2.87373 20.347 3.12927 20.515 3.41044 20.6272C3.69162 20.7393 3.9926 20.7934 4.29523 20.786H17.3362L16.7267 18.6585L18.2002 20.027L19.5902 21.315L22.0002 23.5V3C22.0202 2.36604 21.7913 1.74944 21.3623 1.28219C20.9334 0.814947 20.3386 0.534182 19.7052 0.5ZM15.2662 15.519C15.2662 15.519 14.8522 15.0245 14.5072 14.5875C15.3408 14.3912 16.0781 13.9065 16.5887 13.219C16.175 13.4953 15.7314 13.7237 15.2662 13.9C14.7312 14.1284 14.1717 14.2943 13.5987 14.3945C12.6138 14.5758 11.6037 14.5719 10.6202 14.383C10.0428 14.27 9.47698 14.1045 8.92973 13.8885C8.46858 13.7124 8.02879 13.4848 7.61873 13.21C8.11087 13.8831 8.82272 14.3631 9.63123 14.567C9.28623 15.004 8.86073 15.5215 8.86073 15.5215C6.31923 15.441 5.35323 13.7715 5.35323 13.7715C5.39056 11.4401 5.95679 9.14765 7.00923 7.067C7.93539 6.33962 9.06452 5.91771 10.2407 5.8595L10.3557 5.9975C9.24913 6.27137 8.21648 6.78573 7.33123 7.504C7.33123 7.504 7.58423 7.366 8.00973 7.1705C8.83636 6.79317 9.71737 6.54866 10.6202 6.446C10.6846 6.43268 10.75 6.42498 10.8157 6.423C11.5864 6.32259 12.3663 6.31487 13.1387 6.4C14.3535 6.53859 15.5294 6.91346 16.6002 7.5035C15.7599 6.81945 14.7839 6.32164 13.7367 6.043L13.8977 5.859C15.0739 5.91721 16.2031 6.33912 17.1292 7.0665C18.1817 9.14715 18.7479 11.4396 18.7852 13.771C18.7852 13.771 17.8077 15.4385 15.2662 15.519Z" fill="#001D48"/>
</svg>
