<svg width="248" height="40" viewBox="0 0 248 40" fill="none" xmlns="http://www.w3.org/2000/svg">
<g clip-path="url(#clip0_363_52)">
<path d="M36.3954 0H0.446022C0.199818 0 0 0.200779 0 0.448166V37.2499C0 37.4974 0.199818 37.6981 0.446022 37.6981H2.29702V39.3116C2.29702 39.5588 2.49684 39.7595 2.74303 39.7595H8.89638C9.14346 39.7595 9.34238 39.5588 9.34238 39.3116V37.6981H27.4991V39.3116C27.4991 39.5588 27.6981 39.7595 27.9451 39.7595H34.0984C34.3447 39.7595 34.5444 39.5588 34.5444 39.3116V37.6981H36.3954C36.6417 37.6981 36.8415 37.4974 36.8415 37.2499V0.448166C36.8415 0.200779 36.6417 0 36.3954 0ZM8.45035 38.8634H3.18906V37.6981H8.45035V38.8634ZM33.6523 38.8634H28.3912V37.6981H33.6523V38.8634ZM35.9494 36.8017H0.892046V0.896335H35.9494V36.8017Z" fill="#23130D"/>
<path d="M33.6525 37.6982H28.3911V38.8635H33.6525V37.6982Z" fill="#E1E1E5"/>
<path d="M8.45025 37.6982H3.18896V38.8635H8.45025V37.6982Z" fill="#E1E1E5"/>
<path opacity="0.2" d="M8.45025 37.6982H3.18896V38.2809H8.45025V37.6982Z" fill="#23130D"/>
<path opacity="0.2" d="M33.6525 37.6982H28.3911V38.2809H33.6525V37.6982Z" fill="#23130D"/>
<path d="M0.89209 0.896484V36.8018H35.9495V0.896484H0.89209ZM34.5446 34.898C34.5446 35.1464 34.3448 35.3462 34.0985 35.3462H2.74308C2.49689 35.3462 2.29706 35.1464 2.29706 34.898V2.80031C2.29706 2.5529 2.49689 2.35213 2.74308 2.35213H34.0985C34.3448 2.35213 34.5446 2.5529 34.5446 2.80031V34.898Z" fill="#636368"/>
<path d="M34.0982 2.35205H2.74289C2.4967 2.35205 2.29688 2.55282 2.29688 2.80022V34.8979C2.29688 35.1461 2.4967 35.3461 2.74289 35.3461H34.0982C34.3445 35.3461 34.5443 35.1461 34.5443 34.8979V2.80022C34.5443 2.55282 34.3445 2.35205 34.0982 2.35205ZM33.6522 30.8661H32.4925V25.5797H33.6522V30.8661ZM33.6522 21.4924H32.4925V16.2058H33.6522V21.4924ZM33.6522 12.1194H32.4925V6.83282H33.6522V12.1194ZM33.6522 5.9365H32.0465C31.8005 5.9365 31.6007 6.13637 31.6007 6.38467V12.5676C31.6007 12.815 31.8005 13.0158 32.0465 13.0158H33.6522V15.3095H32.0465C31.8005 15.3095 31.6007 15.5102 31.6007 15.7576V21.9405C31.6007 22.1888 31.8005 22.3887 32.0465 22.3887H33.6522V24.6833H32.0465C31.8005 24.6833 31.6007 24.884 31.6007 25.1315V31.3143C31.6007 31.5618 31.8005 31.7625 32.0465 31.7625H33.6522V34.4497H3.18892V3.24837H33.6522V5.9365Z" fill="#23130D"/>
<path d="M33.6523 6.83276H32.4927V12.1193H33.6523V6.83276Z" fill="#636368"/>
<path opacity="0.2" d="M33.6526 6.83276H33.0728V12.1193H33.6526V6.83276Z" fill="black"/>
<path d="M33.6523 16.2058H32.4927V21.4924H33.6523V16.2058Z" fill="#636368"/>
<path d="M33.6523 25.5796H32.4927V30.8663H33.6523V25.5796Z" fill="#636368"/>
<path d="M32.0466 5.93639H33.6523V3.24829H3.18896V34.4496H33.6523V31.7624H32.0466C31.8003 31.7624 31.6005 31.5617 31.6005 31.3145V25.1313C31.6005 24.8841 31.8003 24.6832 32.0466 24.6832H33.6523V22.3886H32.0466C31.8003 22.3886 31.6005 22.1887 31.6005 21.9405V15.7575C31.6005 15.5102 31.8003 15.3094 32.0466 15.3094H33.6523V13.0156H32.0466C31.8003 13.0156 31.6005 12.8149 31.6005 12.5675V6.38456C31.6005 6.13629 31.8003 5.93639 32.0466 5.93639ZM26.7738 30.341C26.7738 30.5882 26.574 30.789 26.3278 30.789H10.5135C10.2673 30.789 10.0675 30.5882 10.0675 30.341V27.5463C10.0675 27.2988 10.2673 27.0981 10.5135 27.0981H26.3278C26.574 27.0981 26.7738 27.2988 26.7738 27.5463V30.341ZM26.2306 20.4714C26.2279 20.4767 26.2261 20.483 26.2234 20.4884C26.217 20.4991 26.2101 20.5081 26.2029 20.5189C25.6854 21.4071 25.0217 22.2004 24.2439 22.8628C24.2332 22.8745 24.2243 22.8861 24.2118 22.8969C24.1993 22.9076 24.185 22.9157 24.1725 22.9246C22.6106 24.2288 20.6052 25.0148 18.4206 25.0148C16.236 25.0148 14.2307 24.2288 12.6687 22.9246C12.6553 22.9157 12.642 22.9076 12.6295 22.8969C12.617 22.8861 12.6081 22.8745 12.5974 22.8628C11.8195 22.2004 11.1558 21.4071 10.6384 20.518C10.6313 20.5081 10.6241 20.4991 10.6179 20.4884C10.6152 20.483 10.6134 20.4767 10.6108 20.4714C9.84807 19.143 9.41097 17.6031 9.41097 15.9619C9.41097 14.3207 9.84807 12.7808 10.6108 11.4524C10.6134 11.4471 10.6152 11.4408 10.6179 11.4354C10.6224 11.4291 10.6277 11.4238 10.6313 11.4166C11.1505 10.5229 11.8168 9.727 12.5965 9.06104C12.6072 9.04938 12.617 9.03773 12.6295 9.02697C12.6411 9.01711 12.6536 9.01083 12.6652 9.00275C14.2271 7.69592 16.2342 6.90894 18.4206 6.90894C20.607 6.90894 22.6141 7.69592 24.1761 9.00275C24.1877 9.01083 24.2002 9.01711 24.2118 9.02697C24.2243 9.03773 24.2341 9.04938 24.2448 9.06104C25.0245 9.727 25.6908 10.5229 26.2101 11.4166C26.2135 11.4229 26.219 11.4282 26.2234 11.4354C26.2261 11.4408 26.2279 11.4471 26.2306 11.4524C26.9931 12.7808 27.4303 14.3216 27.4303 15.9619C27.4303 17.6031 26.9931 19.143 26.2306 20.4714Z" fill="#E1E1E5"/>
<path opacity="0.2" d="M3.18896 3.24829V34.4496H4.25672V4.32121H33.6523V3.24829H3.18896Z" fill="#23130D"/>
<path d="M26.2307 11.4525C26.228 11.4471 26.2263 11.4408 26.2236 11.4354C26.2191 11.4283 26.2137 11.4229 26.2102 11.4166C25.691 10.5229 25.0246 9.72702 24.245 9.06103C24.2343 9.04938 24.2244 9.03773 24.212 9.02697C24.2004 9.01711 24.1879 9.01085 24.1763 9.00277C22.6143 7.69592 20.6072 6.90894 18.4208 6.90894C16.2344 6.90894 14.2273 7.69592 12.6653 9.00277C12.6537 9.01085 12.6412 9.01711 12.6296 9.02697C12.6172 9.03773 12.6073 9.04938 12.5966 9.06103C11.817 9.72702 11.1506 10.5229 10.6315 11.4166C10.6279 11.4238 10.6225 11.4292 10.6181 11.4354C10.6154 11.4408 10.6136 11.4471 10.6109 11.4525C9.84824 12.7808 9.41113 14.3207 9.41113 15.9619C9.41113 17.6031 9.84824 19.143 10.6109 20.4714C10.6136 20.4768 10.6154 20.483 10.6181 20.4884C10.6243 20.4992 10.6315 20.5081 10.6386 20.518C11.156 21.4071 11.8196 22.2004 12.5975 22.8628C12.6082 22.8745 12.6172 22.8861 12.6296 22.8969C12.6421 22.9076 12.6555 22.9157 12.6689 22.9246C14.2309 24.2288 16.2362 25.0149 18.4208 25.0149C20.6054 25.0149 22.6107 24.2288 24.1727 22.9246C24.1852 22.9157 24.1995 22.9076 24.212 22.8969C24.2244 22.8861 24.2334 22.8745 24.2441 22.8628C25.0219 22.2004 25.6855 21.4071 26.2031 20.5189C26.2102 20.5081 26.2171 20.4992 26.2236 20.4884C26.2263 20.483 26.228 20.4768 26.2307 20.4714C26.9933 19.143 27.4304 17.6031 27.4304 15.9619C27.4304 14.3216 26.9933 12.7808 26.2307 11.4525ZM24.2343 17.4471L26.3262 17.8173C26.1771 18.4591 25.9523 19.0713 25.6623 19.645L23.8239 18.5792C23.6107 18.4555 23.3378 18.529 23.2146 18.7432C23.0915 18.9575 23.1647 19.2317 23.3779 19.3554L25.2145 20.4203C24.8597 20.9653 24.4403 21.4654 23.9693 21.9091L22.6072 20.2778C22.4493 20.0886 22.1674 20.0635 21.9792 20.2231C21.79 20.3817 21.766 20.665 21.9239 20.8541L23.2869 22.4863C22.7722 22.8744 22.2102 23.2034 21.6116 23.4616L20.8855 21.4564C20.8017 21.2243 20.5456 21.1042 20.3137 21.1884C20.0827 21.2736 19.9631 21.5308 20.0479 21.763L20.774 23.7681C20.1647 23.9545 19.526 24.0702 18.8668 24.106V21.9727C18.8668 21.7254 18.667 21.5246 18.4208 21.5246C18.1746 21.5246 17.9748 21.7254 17.9748 21.9727V24.106C17.3156 24.0702 16.6768 23.9545 16.0676 23.7681L16.7937 21.763C16.8785 21.5308 16.7589 21.2736 16.5279 21.1884C16.2959 21.1042 16.0399 21.2243 15.9561 21.4564L15.23 23.4616C14.6314 23.2034 14.0694 22.8744 13.5547 22.4863L14.9177 20.8541C15.0756 20.665 15.0515 20.3817 14.8624 20.2231C14.6733 20.0635 14.3923 20.0886 14.2344 20.2778L12.8723 21.9091C12.4013 21.4654 11.982 20.9653 11.627 20.4203L13.4637 19.3554C13.6769 19.2317 13.75 18.9575 13.6269 18.7432C13.5038 18.529 13.2309 18.4555 13.0177 18.5792L11.1792 19.645C10.8893 19.0713 10.6645 18.4591 10.5155 17.8173L12.6073 17.4471C12.85 17.4041 13.0123 17.172 12.9695 16.9282C12.9267 16.6844 12.6947 16.5212 12.4521 16.5643L10.3612 16.9345C10.3237 16.6153 10.3032 16.2909 10.3032 15.9619C10.3032 15.633 10.3237 15.3085 10.3612 14.9894L12.4521 15.3596C12.4789 15.3641 12.5048 15.3667 12.5306 15.3667C12.7429 15.3667 12.9312 15.2135 12.9695 14.9957C13.0123 14.7519 12.85 14.5197 12.6073 14.4767L10.5155 14.1065C10.6645 13.4647 10.8893 12.8525 11.1792 12.2789L13.0177 13.3446C13.0882 13.3859 13.164 13.4047 13.2398 13.4047C13.3941 13.4047 13.544 13.3249 13.6269 13.1806C13.75 12.9664 13.6769 12.6921 13.4637 12.5684L11.627 11.5035C11.9829 10.9586 12.4013 10.4584 12.8723 10.0147L14.2344 11.6461C14.3227 11.7509 14.4485 11.8056 14.5761 11.8056C14.6769 11.8056 14.7786 11.7715 14.8624 11.7007C15.0515 11.5421 15.0756 11.2588 14.9177 11.0697L13.5547 9.43751C14.0694 9.04938 14.6314 8.72044 15.23 8.46228L15.9561 10.4674C16.0221 10.6493 16.1925 10.7623 16.3753 10.7623C16.4253 10.7623 16.477 10.7533 16.5279 10.7354C16.7589 10.6502 16.8785 10.393 16.7937 10.1608L16.0676 8.15574C16.6768 7.9702 17.3156 7.85368 17.9748 7.81783V9.9511C17.9748 10.1994 18.1746 10.3993 18.4208 10.3993C18.667 10.3993 18.8668 10.1994 18.8668 9.9511V7.81783C19.526 7.85368 20.1647 7.9702 20.774 8.15574L20.0479 10.1608C19.9631 10.393 20.0827 10.6502 20.3137 10.7354C20.3646 10.7533 20.4163 10.7623 20.4662 10.7623C20.6491 10.7623 20.8195 10.6493 20.8855 10.4674L21.6116 8.46228C22.2102 8.72044 22.7722 9.04938 23.2869 9.43751L21.9239 11.0697C21.766 11.2588 21.79 11.5421 21.9792 11.7007C22.063 11.7715 22.1647 11.8056 22.2655 11.8056C22.3931 11.8056 22.5197 11.7509 22.6072 11.6461L23.9693 10.0147C24.4403 10.4584 24.8587 10.9586 25.2145 11.5035L23.3779 12.5684C23.1647 12.6921 23.0915 12.9664 23.2146 13.1806C23.2976 13.3249 23.4475 13.4047 23.6018 13.4047C23.6767 13.4047 23.7543 13.3859 23.8239 13.3446L25.6623 12.2789C25.9523 12.8525 26.1771 13.4647 26.3262 14.1065L24.2343 14.4767C23.9916 14.5197 23.8293 14.7519 23.8721 14.9957C23.9105 15.2135 24.0987 15.3667 24.311 15.3667C24.3369 15.3667 24.3627 15.3641 24.3895 15.3596L26.4805 14.9894C26.5178 15.3085 26.5383 15.633 26.5383 15.9619C26.5383 16.2909 26.5178 16.6153 26.4805 16.9345L24.3895 16.5643C24.1468 16.5212 23.9149 16.6844 23.8721 16.9282C23.8293 17.172 23.9916 17.4041 24.2343 17.4471Z" fill="#23130D"/>
<path d="M24.3895 16.5643L26.4804 16.9345C26.5179 16.6154 26.5385 16.2909 26.5385 15.962C26.5385 15.633 26.5179 15.3085 26.4804 14.9894L24.3895 15.3596C24.3627 15.3641 24.3369 15.3668 24.311 15.3668C24.0987 15.3668 23.9105 15.2135 23.8721 14.9957C23.8293 14.7519 23.9917 14.5198 24.2343 14.4768L26.3261 14.1066C26.1772 13.4648 25.9525 12.8526 25.6624 12.2789L23.824 13.3447C23.7544 13.3859 23.6768 13.4047 23.6018 13.4047C23.4475 13.4047 23.2977 13.325 23.2147 13.1807C23.0916 12.9664 23.1647 12.6921 23.3779 12.5685L25.2147 11.5036C24.8588 10.9586 24.4404 10.4585 23.9694 10.0148L22.6072 11.6461C22.5198 11.751 22.3931 11.8057 22.2656 11.8057C22.1648 11.8057 22.0631 11.7716 21.9792 11.7008C21.7901 11.5421 21.766 11.2589 21.9239 11.0698L23.287 9.43755C22.7722 9.04942 22.2102 8.72048 21.6117 8.46234L20.8856 10.4674C20.8196 10.6494 20.6492 10.7623 20.4663 10.7623C20.4164 10.7623 20.3646 10.7534 20.3138 10.7354C20.0827 10.6503 19.9632 10.3931 20.0479 10.1609L20.7741 8.15578C20.1648 7.97024 19.5261 7.85372 18.8669 7.81787V9.95114C18.8669 10.1994 18.6671 10.3993 18.4208 10.3993C18.1746 10.3993 17.9748 10.1994 17.9748 9.95114V7.81787C17.3156 7.85372 16.6769 7.97024 16.0676 8.15578L16.7938 10.1609C16.8785 10.3931 16.759 10.6503 16.5279 10.7354C16.4771 10.7534 16.4253 10.7623 16.3754 10.7623C16.1925 10.7623 16.0221 10.6494 15.9561 10.4674L15.23 8.46234C14.6314 8.72048 14.0694 9.04942 13.5547 9.43755L14.9178 11.0698C15.0757 11.2589 15.0516 11.5421 14.8625 11.7008C14.7786 11.7716 14.6769 11.8057 14.5761 11.8057C14.4486 11.8057 14.3228 11.751 14.2345 11.6461L12.8723 10.0148C12.4013 10.4585 11.9829 10.9586 11.627 11.5036L13.4638 12.5685C13.6769 12.6921 13.7501 12.9664 13.627 13.1807C13.544 13.325 13.3942 13.4047 13.2398 13.4047C13.164 13.4047 13.0882 13.3859 13.0177 13.3447L11.1792 12.2789C10.8893 12.8526 10.6645 13.4648 10.5155 14.1066L12.6074 14.4768C12.85 14.5198 13.0124 14.7519 12.9696 14.9957C12.9312 15.2135 12.743 15.3668 12.5307 15.3668C12.5048 15.3668 12.4789 15.3641 12.4522 15.3596L10.3612 14.9894C10.3237 15.3085 10.3032 15.633 10.3032 15.962C10.3032 16.2909 10.3237 16.6154 10.3612 16.9345L12.4522 16.5643C12.6948 16.5213 12.9267 16.6844 12.9696 16.9282C13.0124 17.172 12.85 17.4042 12.6074 17.4472L10.5155 17.8174C10.6645 18.4592 10.8893 19.0714 11.1792 19.645L13.0177 18.5793C13.2309 18.4556 13.5039 18.5291 13.627 18.7433C13.7501 18.9575 13.6769 19.2318 13.4638 19.3555L11.627 20.4203C11.9821 20.9653 12.4013 21.4655 12.8723 21.9092L14.2345 20.2778C14.3924 20.0887 14.6734 20.0636 14.8625 20.2231C15.0516 20.3818 15.0757 20.6651 14.9178 20.8542L13.5547 22.4864C14.0694 22.8745 14.6314 23.2035 15.23 23.4616L15.9561 21.4565C16.04 21.2244 16.296 21.1043 16.5279 21.1885C16.759 21.2736 16.8785 21.5309 16.7938 21.763L16.0676 23.7682C16.6769 23.9546 17.3156 24.0702 17.9748 24.1061V21.9728C17.9748 21.7254 18.1746 21.5246 18.4208 21.5246C18.6671 21.5246 18.8669 21.7254 18.8669 21.9728V24.1061C19.5261 24.0702 20.1648 23.9546 20.7741 23.7682L20.0479 21.763C19.9632 21.5309 20.0827 21.2736 20.3138 21.1885C20.5457 21.1043 20.8017 21.2244 20.8856 21.4565L21.6117 23.4616C22.2102 23.2035 22.7722 22.8745 23.287 22.4864L21.9239 20.8542C21.766 20.6651 21.7901 20.3818 21.9792 20.2231C22.1674 20.0636 22.4493 20.0887 22.6072 20.2778L23.9694 21.9092C24.4404 21.4655 24.8596 20.9653 25.2147 20.4203L23.3779 19.3555C23.1647 19.2318 23.0916 18.9575 23.2147 18.7433C23.3378 18.5291 23.6108 18.4556 23.824 18.5793L25.6624 19.645C25.9525 19.0714 26.1772 18.4592 26.3261 17.8174L24.2343 17.4472C23.9917 17.4042 23.8293 17.172 23.8721 16.9282C23.9149 16.6844 24.1469 16.5213 24.3895 16.5643ZM18.4208 19.7221C16.3575 19.7221 14.6787 18.0352 14.6787 15.962C14.6787 13.8888 16.3575 12.2018 18.4208 12.2018C20.4842 12.2018 22.163 13.8888 22.163 15.962C22.163 18.0352 20.4842 19.7221 18.4208 19.7221Z" fill="#F9C139"/>
<path d="M26.3276 27.0979H10.5134C10.2672 27.0979 10.0674 27.2986 10.0674 27.5461V30.3409C10.0674 30.5883 10.2672 30.7891 10.5134 30.7891H26.3276C26.5739 30.7891 26.7737 30.5883 26.7737 30.3409V27.5461C26.7737 27.2986 26.5739 27.0979 26.3276 27.0979ZM25.8816 29.8927H10.9594V27.9943H25.8816V29.8927Z" fill="#23130D"/>
<path d="M10.96 27.9944V29.8928H25.8822V27.9944H10.96ZM15.1454 29.3919H14.2257C13.9795 29.3919 13.7797 29.1912 13.7797 28.9437C13.7797 28.6962 13.9795 28.4955 14.2257 28.4955H15.1454C15.3916 28.4955 15.5915 28.6962 15.5915 28.9437C15.5915 29.1912 15.3916 29.3919 15.1454 29.3919ZM17.5682 29.3919H16.6485C16.4023 29.3919 16.2025 29.1912 16.2025 28.9437C16.2025 28.6962 16.4023 28.4955 16.6485 28.4955H17.5682C17.8144 28.4955 18.0143 28.6962 18.0143 28.9437C18.0143 29.1912 17.8144 29.3919 17.5682 29.3919ZM19.991 29.3919H19.0713C18.8251 29.3919 18.6253 29.1912 18.6253 28.9437C18.6253 28.6962 18.8251 28.4955 19.0713 28.4955H19.991C20.2372 28.4955 20.437 28.6962 20.437 28.9437C20.437 29.1912 20.2372 29.3919 19.991 29.3919ZM22.4129 29.3919H21.4941C21.247 29.3919 21.0481 29.1912 21.0481 28.9437C21.0481 28.6962 21.247 28.4955 21.4941 28.4955H22.4129C22.66 28.4955 22.8589 28.6962 22.8589 28.9437C22.8589 29.1912 22.66 29.3919 22.4129 29.3919ZM24.8358 29.3919H23.916C23.6698 29.3919 23.47 29.1912 23.47 28.9437C23.47 28.6962 23.6698 28.4955 23.916 28.4955H24.8358C25.0818 28.4955 25.2819 28.6962 25.2819 28.9437C25.2819 29.1912 25.0818 29.3919 24.8358 29.3919Z" fill="#3594BF"/>
<path d="M25.2814 28.9436C25.2814 29.1908 25.0816 29.3918 24.8354 29.3918H23.9158C23.6696 29.3918 23.4697 29.1908 23.4697 28.9436C23.4697 28.6961 23.6696 28.4954 23.9158 28.4954H24.8354C25.0816 28.4954 25.2814 28.6961 25.2814 28.9436Z" fill="#23130D"/>
<path d="M22.8587 28.9436C22.8587 29.1908 22.6598 29.3918 22.4127 29.3918H21.4939C21.2468 29.3918 21.0479 29.1908 21.0479 28.9436C21.0479 28.6961 21.2468 28.4954 21.4939 28.4954H22.4127C22.6598 28.4954 22.8587 28.6961 22.8587 28.9436Z" fill="#23130D"/>
<path d="M20.4367 28.9436C20.4367 29.1908 20.2369 29.3918 19.9907 29.3918H19.071C18.8248 29.3918 18.625 29.1908 18.625 28.9436C18.625 28.6961 18.8248 28.4954 19.071 28.4954H19.9907C20.2369 28.4954 20.4367 28.6961 20.4367 28.9436Z" fill="#23130D"/>
<path d="M18.0139 28.9436C18.0139 29.1908 17.8141 29.3918 17.5679 29.3918H16.6482C16.402 29.3918 16.2021 29.1908 16.2021 28.9436C16.2021 28.6961 16.402 28.4954 16.6482 28.4954H17.5679C17.8141 28.4954 18.0139 28.6961 18.0139 28.9436Z" fill="#23130D"/>
<path d="M15.5911 28.9436C15.5911 29.1908 15.3912 29.3918 15.145 29.3918H14.2253C13.9791 29.3918 13.7793 29.1908 13.7793 28.9436C13.7793 28.6961 13.9791 28.4954 14.2253 28.4954H15.145C15.3912 28.4954 15.5911 28.6961 15.5911 28.9436Z" fill="#23130D"/>
<path d="M18.4208 12.2019C16.3575 12.2019 14.6787 13.8888 14.6787 15.962C14.6787 18.0352 16.3575 19.7222 18.4208 19.7222C20.4842 19.7222 22.163 18.0352 22.163 15.962C22.163 13.8888 20.4842 12.2019 18.4208 12.2019ZM18.4208 18.8258C16.8491 18.8258 15.5708 17.5414 15.5708 15.962C15.5708 14.3827 16.8491 13.0983 18.4208 13.0983C19.9926 13.0983 21.2709 14.3827 21.2709 15.962C21.2709 17.5414 19.9926 18.8258 18.4208 18.8258Z" fill="#23130D"/>
<path d="M21.271 15.9619C21.271 17.5413 19.9927 18.8257 18.4209 18.8257C16.8491 18.8257 15.5708 17.5413 15.5708 15.9619C15.5708 14.3826 16.8491 13.0981 18.4209 13.0981C19.9927 13.0981 21.271 14.3826 21.271 15.9619Z" fill="#636368"/>
<path opacity="0.2" d="M18.4209 13.5463C19.7465 13.5463 20.825 14.63 20.825 15.9619C20.825 17.2939 19.7465 18.3776 18.4209 18.3776C17.0953 18.3776 16.0168 17.2939 16.0168 15.9619C16.0168 14.63 17.0953 13.5463 18.4209 13.5463ZM18.4209 13.0981C16.8491 13.0981 15.5708 14.3826 15.5708 15.9619C15.5708 17.5413 16.8491 18.8257 18.4209 18.8257C19.9927 18.8257 21.271 17.5413 21.271 15.9619C21.271 14.3826 19.9927 13.0981 18.4209 13.0981Z" fill="black"/>
<path opacity="0.2" d="M33.6526 16.2058H33.0728V21.4924H33.6526V16.2058Z" fill="black"/>
<path opacity="0.2" d="M33.6526 25.5789H33.0728V30.8653H33.6526V25.5789Z" fill="black"/>
<path d="M66.5963 31.1364L73.4473 8.75H68.2638L62.807 27.1635H62.5041L57.0474 8.75H51.894L58.7451 31.1364H66.5963Z" fill="#001D48"/>
<path d="M78.1643 31.2785C80.3773 31.2785 82.1657 30.4554 83.1357 28.9009H83.4391V31.1364H87.9256V20.5798C87.9256 17.0441 85.1061 14.7886 80.6804 14.7886C76.3153 14.7886 73.4961 16.9831 73.4961 20.3969H77.8916C77.8614 18.8424 78.983 17.928 80.6199 17.928C82.4083 17.928 83.4391 18.9339 83.4391 20.4274V21.0675L80.1347 21.4637C75.2544 22.0733 72.7988 23.8716 72.7988 26.7978C72.7988 29.602 74.9814 31.2785 78.1643 31.2785ZM79.6499 28.3218C78.1038 28.3218 77.1943 27.5903 77.1943 26.4321C77.1943 25.3652 78.0429 24.4812 80.2559 24.2069L83.4391 23.8107V24.9081C83.4391 26.8589 81.893 28.3218 79.6499 28.3218Z" fill="#001D48"/>
<path d="M101.575 14.8555V24.0547C101.575 26.0358 100.089 27.4684 98.3008 27.4684C96.482 27.4684 95.3906 26.1273 95.3906 24.2069V14.8555H90.9038V24.8473C90.9038 28.5961 93.2382 31.3394 96.7547 31.3394C98.6341 31.3394 100.119 30.4555 101.271 28.6878H101.575V31.1365H106.061V14.8555H101.575Z" fill="#001D48"/>
<path d="M113.987 31.1364V8.75H109.5V31.1364H113.987Z" fill="#001D48"/>
<path d="M123.71 31.3699C124.589 31.3699 125.862 31.1868 126.741 30.8822V27.6512C126.226 27.7732 125.559 27.8646 125.135 27.8646C123.862 27.8646 123.073 26.9806 123.073 25.67V17.9082H126.62V14.8554H123.073L123.104 8.75H118.774V14.8554H116.404V17.9082H118.587V25.8529C118.587 29.1448 120.588 31.3699 123.71 31.3699Z" fill="#001D48"/>
<path d="M146.347 31.4613C152.077 31.4613 155.684 28.7488 155.684 24.5422C155.684 19.3911 150.925 18.5682 147.136 17.989C144.407 17.5928 141.982 17.227 141.982 15.1239C141.982 13.5084 143.467 12.4416 146.014 12.4416C148.742 12.4416 150.44 13.7827 150.409 16.1297H155.048C155.048 11.5882 151.47 8.60107 145.893 8.60107C140.375 8.60107 136.95 11.3138 136.95 15.4896C136.95 20.7322 142.073 21.4028 145.862 21.9515C148.439 22.3477 150.652 22.7745 150.652 24.8471C150.652 26.5845 149.106 27.6208 146.499 27.6208C143.346 27.6208 141.558 26.1274 141.527 23.7498H136.738C136.768 28.3828 140.497 31.4613 146.347 31.4613Z" fill="#001D48"/>
<path d="M164.593 31.3699C165.472 31.3699 166.745 31.1868 167.624 30.8822V27.6512C167.109 27.7732 166.442 27.8646 166.018 27.8646C164.745 27.8646 163.956 26.9806 163.956 25.67V17.9082H167.503V14.8554H163.956L163.987 8.75H159.591V14.8554H157.287V17.9082H159.47V25.8529C159.47 29.1448 161.47 31.3699 164.593 31.3699Z" fill="#001D48"/>
<path d="M174.879 31.2785C177.092 31.2785 178.881 30.4554 179.851 28.9009H180.153V31.1364H184.64V20.5798C184.64 17.0441 181.821 14.7886 177.395 14.7886C173.03 14.7886 170.21 16.9831 170.21 20.3969H174.606C174.576 18.8424 175.697 17.928 177.334 17.928C179.123 17.928 180.153 18.9339 180.153 20.4274V21.0675L176.849 21.4637C171.969 22.0733 169.513 23.8716 169.513 26.7978C169.513 29.602 171.696 31.2785 174.879 31.2785ZM176.364 28.3218C174.818 28.3218 173.909 27.5903 173.909 26.4321C173.909 25.3652 174.758 24.4812 176.97 24.2069L180.153 23.8107V24.9081C180.153 26.8589 178.608 28.3218 176.364 28.3218Z" fill="#001D48"/>
<path d="M192.349 31.1364V24.2375H192.652L197.714 31.1364H203.171L196.593 22.7745L203.049 14.8554H197.623L192.652 21.3418H192.349V8.75H187.862V31.1364H192.349Z" fill="#001D48"/>
<path d="M207.337 13.1121C208.914 13.1121 210.035 12.0149 210.035 10.4604C210.035 8.93637 208.914 7.80859 207.337 7.80859C205.761 7.80859 204.64 8.93637 204.64 10.4604C204.64 12.0149 205.761 13.1121 207.337 13.1121ZM209.581 31.1366V14.8555H205.094V31.1366H209.581Z" fill="#001D48"/>
<path d="M217.659 31.1366V22.104C217.659 20.1226 219.145 18.6901 220.933 18.6901C222.752 18.6901 223.843 20.0312 223.843 21.9515V31.1366H228.33V21.3115C228.33 17.5623 225.995 14.8191 222.479 14.8191C220.6 14.8191 219.114 15.703 217.962 17.4709H217.659V14.8555H213.173V31.1366H217.659Z" fill="#001D48"/>
<path d="M239.438 38.3803C244.621 38.3803 247.896 35.5152 247.896 30.6993V14.8555H243.531V17.2575H243.226C242.016 15.7335 240.408 14.8191 238.165 14.8191C233.86 14.8191 230.859 18.05 230.859 23.0792C230.859 27.8951 233.891 31.0956 238.195 31.0956C240.286 31.0956 241.864 30.2725 243.106 28.84H243.408V30.5774C243.408 33.1376 241.804 34.7838 239.318 34.7838C237.376 34.7838 235.951 33.7473 235.377 32.0405L231.041 32.8939C231.799 36.3992 234.92 38.3803 239.438 38.3803ZM239.468 27.4077C237.074 27.4077 235.345 25.5786 235.345 23.0792C235.345 20.5189 237.074 18.6596 239.468 18.6596C241.863 18.6596 243.561 20.5189 243.561 23.0792C243.561 25.5786 241.863 27.4077 239.468 27.4077Z" fill="#001D48"/>
</g>
<defs>
<clipPath id="clip0_363_52">
<rect width="248" height="40" fill="white"/>
</clipPath>
</defs>
</svg>
