<svg width="157" height="25" viewBox="0 0 157 25" fill="none" xmlns="http://www.w3.org/2000/svg">
<g clip-path="url(#clip0_363_212)">
<path d="M23.0407 0H0.282361C0.126498 0 0 0.125487 0 0.280104V23.2812C0 23.4359 0.126498 23.5613 0.282361 23.5613H1.45416V24.5697C1.45416 24.7242 1.58066 24.8497 1.73652 24.8497H5.63198C5.7884 24.8497 5.91433 24.7242 5.91433 24.5697V23.5613H17.4087V24.5697C17.4087 24.7242 17.5347 24.8497 17.6911 24.8497H21.5865C21.7424 24.8497 21.8689 24.7242 21.8689 24.5697V23.5613H23.0407C23.1966 23.5613 23.323 23.4359 23.323 23.2812V0.280104C23.323 0.125487 23.1966 0 23.0407 0ZM5.34962 24.2896H2.01888V23.5613H5.34962V24.2896ZM21.3041 24.2896H17.9734V23.5613H21.3041V24.2896ZM22.7583 23.0011H0.564723V0.56021H22.7583V23.0011Z" fill="#23130D"/>
<path d="M21.3044 23.5613H17.9736V24.2895H21.3044V23.5613Z" fill="#E1E1E5"/>
<path d="M5.34978 23.5613H2.01904V24.2895H5.34978V23.5613Z" fill="#E1E1E5"/>
<path opacity="0.2" d="M5.34978 23.5613H2.01904V23.9254H5.34978V23.5613Z" fill="#23130D"/>
<path opacity="0.2" d="M21.3044 23.5613H17.9736V23.9254H21.3044V23.5613Z" fill="#23130D"/>
<path d="M0.564453 0.560303V23.0012H22.7581V0.560303H0.564453ZM21.8686 21.8112C21.8686 21.9665 21.7422 22.0914 21.5863 22.0914H1.73625C1.58039 22.0914 1.45389 21.9665 1.45389 21.8112V1.75019C1.45389 1.59557 1.58039 1.47008 1.73625 1.47008H21.5863C21.7422 1.47008 21.8686 1.59557 21.8686 1.75019V21.8112Z" fill="#636368"/>
<path d="M21.5864 1.46997H1.73646C1.5806 1.46997 1.4541 1.59545 1.4541 1.75008V21.8112C1.4541 21.9663 1.5806 22.0913 1.73646 22.0913H21.5864C21.7423 22.0913 21.8688 21.9663 21.8688 21.8112V1.75008C21.8688 1.59545 21.7423 1.46997 21.5864 1.46997ZM21.304 19.2913H20.5699V15.9872H21.304V19.2913ZM21.304 13.4327H20.5699V10.1286H21.304V13.4327ZM21.304 7.57457H20.5699V4.27045H21.304V7.57457ZM21.304 3.71025H20.2875C20.1318 3.71025 20.0053 3.83517 20.0053 3.99036V7.85468C20.0053 8.00929 20.1318 8.13478 20.2875 8.13478H21.304V9.56836H20.2875C20.1318 9.56836 20.0053 9.69384 20.0053 9.84846V13.7128C20.0053 13.868 20.1318 13.9929 20.2875 13.9929H21.304V15.427H20.2875C20.1318 15.427 20.0053 15.5525 20.0053 15.7071V19.5714C20.0053 19.7261 20.1318 19.8515 20.2875 19.8515H21.304V21.531H2.01883V2.03017H21.304V3.71025Z" fill="#23130D"/>
<path d="M21.304 4.27051H20.5698V7.57462H21.304V4.27051Z" fill="#636368"/>
<path opacity="0.2" d="M21.3041 4.27051H20.937V7.57462H21.3041V4.27051Z" fill="black"/>
<path d="M21.304 10.1287H20.5698V13.4328H21.304V10.1287Z" fill="#636368"/>
<path d="M21.304 15.9873H20.5698V19.2915H21.304V15.9873Z" fill="#636368"/>
<path d="M20.2878 3.71034H21.3043V2.03027H2.01904V21.5311H21.3043V19.8516H20.2878C20.1319 19.8516 20.0054 19.7261 20.0054 19.5716V15.7072C20.0054 15.5527 20.1319 15.4271 20.2878 15.4271H21.3043V13.993H20.2878C20.1319 13.993 20.0054 13.8681 20.0054 13.7129V9.84855C20.0054 9.69394 20.1319 9.56846 20.2878 9.56846H21.3043V8.13487H20.2878C20.1319 8.13487 20.0054 8.00939 20.0054 7.85478V3.99044C20.0054 3.83527 20.1319 3.71034 20.2878 3.71034ZM16.9498 18.9632C16.9498 19.1177 16.8233 19.2432 16.6674 19.2432H6.65597C6.5001 19.2432 6.37361 19.1177 6.37361 18.9632V17.2165C6.37361 17.0618 6.5001 16.9364 6.65597 16.9364H16.6674C16.8233 16.9364 16.9498 17.0618 16.9498 17.2165V18.9632ZM16.6059 12.7947C16.6042 12.7981 16.6031 12.802 16.6013 12.8053C16.5973 12.8121 16.5929 12.8177 16.5883 12.8244C16.2607 13.3796 15.8406 13.8753 15.3482 14.2893C15.3414 14.2966 15.3358 14.3039 15.3279 14.3106C15.3199 14.3173 15.3109 14.3224 15.303 14.328C14.3142 15.1431 13.0447 15.6344 11.6617 15.6344C10.2787 15.6344 9.00917 15.1431 8.02034 14.328C8.01187 14.3224 8.0034 14.3173 7.9955 14.3106C7.98759 14.3039 7.98194 14.2966 7.97517 14.2893C7.48272 13.8753 7.06258 13.3796 6.73504 12.8238C6.73051 12.8177 6.72599 12.8121 6.72205 12.8053C6.72036 12.802 6.71921 12.7981 6.71752 12.7947C6.23469 11.9645 5.95797 11.002 5.95797 9.97628C5.95797 8.95054 6.23469 7.9881 6.71752 7.15787C6.71921 7.15451 6.72036 7.15058 6.72205 7.14723C6.72486 7.1433 6.72826 7.13995 6.73051 7.13546C7.05918 6.57693 7.48103 6.07947 7.9746 5.66324C7.98138 5.65596 7.98759 5.64867 7.9955 5.64195C8.00284 5.63579 8.01075 5.63186 8.01809 5.62681C9.0069 4.81004 10.2775 4.31818 11.6617 4.31818C13.0458 4.31818 14.3164 4.81004 15.3053 5.62681C15.3126 5.63186 15.3205 5.63579 15.3279 5.64195C15.3358 5.64867 15.342 5.65596 15.3488 5.66324C15.8423 6.07947 16.2642 6.57693 16.5929 7.13546C16.5951 7.13939 16.5985 7.14274 16.6013 7.14723C16.6031 7.15058 16.6042 7.15451 16.6059 7.15787C17.0886 7.9881 17.3654 8.9511 17.3654 9.97628C17.3654 11.002 17.0886 11.9645 16.6059 12.7947Z" fill="#E1E1E5"/>
<path opacity="0.2" d="M2.01904 2.03027V21.5311H2.695V2.70085H21.3043V2.03027H2.01904Z" fill="#23130D"/>
<path d="M16.6059 7.15782C16.6042 7.15445 16.6031 7.15054 16.6014 7.14717C16.5986 7.1427 16.5951 7.13933 16.5929 7.13541C16.2642 6.57687 15.8424 6.07942 15.3488 5.66318C15.342 5.65589 15.3358 5.64861 15.3279 5.64189C15.3205 5.63572 15.3126 5.63181 15.3053 5.62676C14.3165 4.80998 13.0458 4.31812 11.6617 4.31812C10.2776 4.31812 9.00695 4.80998 8.01812 5.62676C8.01078 5.63181 8.00287 5.63572 7.99553 5.64189C7.98763 5.64861 7.98141 5.65589 7.97464 5.66318C7.48106 6.07942 7.05921 6.57687 6.73055 7.13541C6.72829 7.13989 6.7249 7.14325 6.72208 7.14717C6.72039 7.15054 6.71926 7.15445 6.71756 7.15782C6.23472 7.98804 5.95801 8.95049 5.95801 9.97622C5.95801 11.002 6.23472 11.9644 6.71756 12.7946C6.71926 12.798 6.72039 12.8019 6.72208 12.8053C6.72604 12.812 6.73055 12.8176 6.73507 12.8238C7.06261 13.3795 7.48275 13.8753 7.9752 14.2893C7.98198 14.2966 7.98763 14.3038 7.99553 14.3106C8.00344 14.3173 8.01191 14.3223 8.02037 14.3279C9.00921 15.143 10.2787 15.6343 11.6617 15.6343C13.0447 15.6343 14.3142 15.143 15.303 14.3279C15.3109 14.3223 15.32 14.3173 15.3279 14.3106C15.3358 14.3038 15.3414 14.2966 15.3482 14.2893C15.8406 13.8753 16.2608 13.3795 16.5884 12.8243C16.5929 12.8176 16.5973 12.812 16.6014 12.8053C16.6031 12.8019 16.6042 12.798 16.6059 12.7946C17.0886 11.9644 17.3654 11.002 17.3654 9.97622C17.3654 8.95105 17.0886 7.98804 16.6059 7.15782ZM15.342 10.9045L16.6663 11.1359C16.5719 11.537 16.4297 11.9196 16.246 12.2781L15.0822 11.612C14.9473 11.5347 14.7745 11.5807 14.6965 11.7146C14.6186 11.8484 14.6649 12.0199 14.7999 12.0972L15.9626 12.7627C15.7379 13.1033 15.4725 13.4159 15.1743 13.6932L14.3119 12.6736C14.212 12.5554 14.0335 12.5397 13.9144 12.6395C13.7947 12.7386 13.7794 12.9156 13.8794 13.0338L14.7423 14.054C14.4164 14.2966 14.0606 14.5022 13.6817 14.6635L13.222 13.4103C13.169 13.2652 13.0069 13.1901 12.86 13.2428C12.7138 13.296 12.6381 13.4568 12.6918 13.6019L13.1514 14.8551C12.7657 14.9716 12.3614 15.0439 11.9441 15.0663V13.733C11.9441 13.5784 11.8176 13.4529 11.6617 13.4529C11.5058 13.4529 11.3793 13.5784 11.3793 13.733V15.0663C10.962 15.0439 10.5577 14.9716 10.172 14.8551L10.6316 13.6019C10.6853 13.4568 10.6096 13.296 10.4634 13.2428C10.3165 13.1901 10.1545 13.2652 10.1014 13.4103L9.6417 14.6635C9.26277 14.5022 8.90699 14.2966 8.58114 14.054L9.44405 13.0338C9.54399 12.9156 9.52875 12.7386 9.40903 12.6395C9.2893 12.5397 9.11142 12.5554 9.01146 12.6736L8.14914 13.6932C7.85096 13.4159 7.58555 13.1033 7.36079 12.7627L8.52354 12.0972C8.65852 12.0199 8.70482 11.8484 8.62688 11.7146C8.54896 11.5807 8.37615 11.5347 8.24118 11.612L7.07729 12.2781C6.89376 11.9196 6.75144 11.537 6.65714 11.1359L7.98141 10.9045C8.13502 10.8776 8.23779 10.7325 8.21068 10.5801C8.18359 10.4278 8.03675 10.3258 7.88314 10.3527L6.55944 10.5841C6.53571 10.3846 6.52274 10.1818 6.52274 9.97622C6.52274 9.77063 6.53571 9.56784 6.55944 9.36839L7.88314 9.59976C7.9001 9.60257 7.91647 9.60425 7.93284 9.60425C8.06725 9.60425 8.18641 9.50846 8.21068 9.37232C8.23779 9.21995 8.13502 9.07485 7.98141 9.04796L6.65714 8.81659C6.75144 8.41549 6.89376 8.03287 7.07729 7.67433L8.24118 8.34041C8.2858 8.36619 8.3338 8.37794 8.3818 8.37794C8.47949 8.37794 8.57437 8.3281 8.62688 8.2379C8.70482 8.10402 8.65852 7.93259 8.52354 7.85527L7.36079 7.18975C7.58611 6.84914 7.85096 6.53655 8.14914 6.25923L9.01146 7.27881C9.06737 7.34436 9.147 7.37853 9.22776 7.37853C9.29157 7.37853 9.35594 7.35725 9.40903 7.31299C9.52875 7.21383 9.54399 7.03681 9.44405 6.91861L8.58114 5.89847C8.90699 5.65589 9.26277 5.4503 9.6417 5.28895L10.1014 6.54215C10.1432 6.65586 10.251 6.72645 10.3668 6.72645C10.3984 6.72645 10.4312 6.72085 10.4634 6.70965C10.6096 6.65642 10.6853 6.49565 10.6316 6.35055L10.172 5.09737C10.5577 4.98141 10.962 4.90858 11.3793 4.88617V6.21947C11.3793 6.37464 11.5058 6.49957 11.6617 6.49957C11.8176 6.49957 11.9441 6.37464 11.9441 6.21947V4.88617C12.3614 4.90858 12.7657 4.98141 13.1514 5.09737L12.6918 6.35055C12.6381 6.49565 12.7138 6.65642 12.86 6.70965C12.8922 6.72085 12.925 6.72645 12.9566 6.72645C13.0724 6.72645 13.1802 6.65586 13.222 6.54215L13.6817 5.28895C14.0606 5.4503 14.4164 5.65589 14.7423 5.89847L13.8794 6.91861C13.7794 7.03681 13.7947 7.21383 13.9144 7.31299C13.9675 7.35725 14.0318 7.37853 14.0957 7.37853C14.1764 7.37853 14.2566 7.34436 14.3119 7.27881L15.1743 6.25923C15.4725 6.53655 15.7373 6.84914 15.9626 7.18975L14.7999 7.85527C14.6649 7.93259 14.6186 8.10402 14.6965 8.2379C14.749 8.3281 14.8439 8.37794 14.9416 8.37794C14.989 8.37794 15.0382 8.36619 15.0822 8.34041L16.246 7.67433C16.4297 8.03287 16.5719 8.41549 16.6663 8.81659L15.342 9.04796C15.1884 9.07485 15.0856 9.21995 15.1127 9.37232C15.137 9.50846 15.2562 9.60425 15.3906 9.60425C15.4069 9.60425 15.4233 9.60257 15.4403 9.59976L16.764 9.36839C16.7876 9.56784 16.8006 9.77063 16.8006 9.97622C16.8006 10.1818 16.7876 10.3846 16.764 10.5841L15.4403 10.3527C15.2867 10.3258 15.1398 10.4278 15.1127 10.5801C15.0856 10.7325 15.1884 10.8776 15.342 10.9045Z" fill="#23130D"/>
<path d="M15.44 10.3528L16.7636 10.5841C16.7874 10.3847 16.8004 10.1819 16.8004 9.97629C16.8004 9.7707 16.7874 9.56789 16.7636 9.36847L15.44 9.59983C15.423 9.60263 15.4067 9.60431 15.3903 9.60431C15.2559 9.60431 15.1367 9.50851 15.1125 9.37238C15.0853 9.22 15.1881 9.07491 15.3417 9.04803L16.666 8.81667C16.5717 8.41555 16.4294 8.03292 16.2458 7.6744L15.082 8.34049C15.0379 8.36625 14.9888 8.37802 14.9413 8.37802C14.8436 8.37802 14.7488 8.32816 14.6963 8.23797C14.6183 8.10407 14.6646 7.93264 14.7996 7.85535L15.9624 7.18982C15.7371 6.8492 15.4722 6.5366 15.174 6.2593L14.3117 7.27889C14.2563 7.34443 14.1761 7.37861 14.0954 7.37861C14.0316 7.37861 13.9672 7.35732 13.9141 7.31306C13.7944 7.2139 13.7791 7.03687 13.8791 6.91867L14.742 5.89853C14.4162 5.65595 14.0604 5.45036 13.6814 5.28903L13.2218 6.54221C13.18 6.65594 13.0721 6.72651 12.9563 6.72651C12.9247 6.72651 12.892 6.72092 12.8598 6.70971C12.7135 6.65649 12.6378 6.49572 12.6915 6.35062L13.1512 5.09743C12.7655 4.98146 12.3611 4.90864 11.9438 4.88623V6.21952C11.9438 6.37471 11.8173 6.49963 11.6614 6.49963C11.5056 6.49963 11.3791 6.37471 11.3791 6.21952V4.88623C10.9617 4.90864 10.5574 4.98146 10.1717 5.09743L10.6314 6.35062C10.685 6.49572 10.6094 6.65649 10.4631 6.70971C10.4309 6.72092 10.3982 6.72651 10.3665 6.72651C10.2508 6.72651 10.1429 6.65594 10.1011 6.54221L9.64142 5.28903C9.2625 5.45036 8.90672 5.65595 8.58088 5.89853L9.44377 6.91867C9.54373 7.03687 9.52849 7.2139 9.40876 7.31306C9.35568 7.35732 9.2913 7.37861 9.22748 7.37861C9.14672 7.37861 9.0671 7.34443 9.0112 7.27889L8.14886 6.2593C7.85068 6.5366 7.58583 6.8492 7.36051 7.18982L8.52328 7.85535C8.65824 7.93264 8.70456 8.10407 8.62662 8.23797C8.57411 8.32816 8.47923 8.37802 8.38153 8.37802C8.33353 8.37802 8.28553 8.36625 8.24091 8.34049L7.07702 7.6744C6.89349 8.03292 6.75118 8.41555 6.65687 8.81667L7.98114 9.04803C8.13474 9.07491 8.23753 9.22 8.21042 9.37238C8.18613 9.50851 8.06698 9.60431 7.93258 9.60431C7.91619 9.60431 7.89982 9.60263 7.88288 9.59983L6.55917 9.36847C6.53545 9.56789 6.52246 9.7707 6.52246 9.97629C6.52246 10.1819 6.53545 10.3847 6.55917 10.5841L7.88288 10.3528C8.03649 10.3259 8.18331 10.4278 8.21042 10.5802C8.23753 10.7326 8.13474 10.8777 7.98114 10.9046L6.65687 11.1359C6.75118 11.537 6.89349 11.9197 7.07702 12.2782L8.24091 11.6121C8.37588 11.5348 8.54868 11.5807 8.62662 11.7146C8.70456 11.8485 8.65824 12.0199 8.52328 12.0972L7.36051 12.7628C7.58527 13.1034 7.85068 13.416 8.14886 13.6933L9.0112 12.6737C9.11115 12.5555 9.28904 12.5398 9.40876 12.6395C9.52849 12.7387 9.54373 12.9157 9.44377 13.0339L8.58088 14.0541C8.90672 14.2966 9.2625 14.5022 9.64142 14.6636L10.1011 13.4104C10.1542 13.2653 10.3163 13.1902 10.4631 13.2429C10.6094 13.2961 10.685 13.4569 10.6314 13.602L10.1717 14.8552C10.5574 14.9717 10.9617 15.0439 11.3791 15.0664V13.7331C11.3791 13.5784 11.5056 13.453 11.6614 13.453C11.8173 13.453 11.9438 13.5784 11.9438 13.7331V15.0664C12.3611 15.0439 12.7655 14.9717 13.1512 14.8552L12.6915 13.602C12.6378 13.4569 12.7135 13.2961 12.8598 13.2429C13.0066 13.1902 13.1687 13.2653 13.2218 13.4104L13.6814 14.6636C14.0604 14.5022 14.4162 14.2966 14.742 14.0541L13.8791 13.0339C13.7791 12.9157 13.7944 12.7387 13.9141 12.6395C14.0333 12.5398 14.2117 12.5555 14.3117 12.6737L15.174 13.6933C15.4722 13.416 15.7376 13.1034 15.9624 12.7628L14.7996 12.0972C14.6646 12.0199 14.6183 11.8485 14.6963 11.7146C14.7742 11.5807 14.947 11.5348 15.082 11.6121L16.2458 12.2782C16.4294 11.9197 16.5717 11.537 16.666 11.1359L15.3417 10.9046C15.1881 10.8777 15.0853 10.7326 15.1125 10.5802C15.1396 10.4278 15.2864 10.3259 15.44 10.3528ZM11.6614 12.3264C10.3552 12.3264 9.29242 11.2721 9.29242 9.97629C9.29242 8.68053 10.3552 7.62622 11.6614 7.62622C12.9676 7.62622 14.0304 8.68053 14.0304 9.97629C14.0304 11.2721 12.9676 12.3264 11.6614 12.3264Z" fill="#F9C139"/>
<path d="M16.6673 16.9363H6.6559C6.50003 16.9363 6.37354 17.0617 6.37354 17.2164V18.9631C6.37354 19.1178 6.50003 19.2433 6.6559 19.2433H16.6673C16.8232 19.2433 16.9497 19.1178 16.9497 18.9631V17.2164C16.9497 17.0617 16.8232 16.9363 16.6673 16.9363ZM16.3849 18.683H6.93825V17.4965H16.3849V18.683Z" fill="#23130D"/>
<path d="M6.93848 17.4963V18.6828H16.3852V17.4963H6.93848ZM9.58815 18.3698H9.00593C8.85006 18.3698 8.72357 18.2443 8.72357 18.0897C8.72357 17.935 8.85006 17.8095 9.00593 17.8095H9.58815C9.74402 17.8095 9.87051 17.935 9.87051 18.0897C9.87051 18.2443 9.74402 18.3698 9.58815 18.3698ZM11.1219 18.3698H10.5397C10.3839 18.3698 10.2573 18.2443 10.2573 18.0897C10.2573 17.935 10.3839 17.8095 10.5397 17.8095H11.1219C11.2778 17.8095 11.4043 17.935 11.4043 18.0897C11.4043 18.2443 11.2778 18.3698 11.1219 18.3698ZM12.6557 18.3698H12.0735C11.9176 18.3698 11.7911 18.2443 11.7911 18.0897C11.7911 17.935 11.9176 17.8095 12.0735 17.8095H12.6557C12.8116 17.8095 12.9381 17.935 12.9381 18.0897C12.9381 18.2443 12.8116 18.3698 12.6557 18.3698ZM14.189 18.3698H13.6073C13.4509 18.3698 13.3249 18.2443 13.3249 18.0897C13.3249 17.935 13.4509 17.8095 13.6073 17.8095H14.189C14.3454 17.8095 14.4713 17.935 14.4713 18.0897C14.4713 18.2443 14.3454 18.3698 14.189 18.3698ZM15.7228 18.3698H15.1405C14.9846 18.3698 14.8581 18.2443 14.8581 18.0897C14.8581 17.935 14.9846 17.8095 15.1405 17.8095H15.7228C15.8785 17.8095 16.0052 17.935 16.0052 18.0897C16.0052 18.2443 15.8785 18.3698 15.7228 18.3698Z" fill="#3594BF"/>
<path d="M16.0048 18.0897C16.0048 18.2442 15.8783 18.3698 15.7224 18.3698H15.1403C14.9844 18.3698 14.8579 18.2442 14.8579 18.0897C14.8579 17.935 14.9844 17.8096 15.1403 17.8096H15.7224C15.8783 17.8096 16.0048 17.935 16.0048 18.0897Z" fill="#23130D"/>
<path d="M14.4711 18.0897C14.4711 18.2442 14.3452 18.3698 14.1887 18.3698H13.6071C13.4506 18.3698 13.3247 18.2442 13.3247 18.0897C13.3247 17.935 13.4506 17.8096 13.6071 17.8096H14.1887C14.3452 17.8096 14.4711 17.935 14.4711 18.0897Z" fill="#23130D"/>
<path d="M12.938 18.0897C12.938 18.2442 12.8115 18.3698 12.6556 18.3698H12.0734C11.9175 18.3698 11.791 18.2442 11.791 18.0897C11.791 17.935 11.9175 17.8096 12.0734 17.8096H12.6556C12.8115 17.8096 12.938 17.935 12.938 18.0897Z" fill="#23130D"/>
<path d="M11.4038 18.0897C11.4038 18.2442 11.2773 18.3698 11.1214 18.3698H10.5392C10.3833 18.3698 10.2568 18.2442 10.2568 18.0897C10.2568 17.935 10.3833 17.8096 10.5392 17.8096H11.1214C11.2773 17.8096 11.4038 17.935 11.4038 18.0897Z" fill="#23130D"/>
<path d="M9.87011 18.0897C9.87011 18.2442 9.7436 18.3698 9.58774 18.3698H9.00551C8.84965 18.3698 8.72314 18.2442 8.72314 18.0897C8.72314 17.935 8.84965 17.8096 9.00551 17.8096H9.58774C9.7436 17.8096 9.87011 17.935 9.87011 18.0897Z" fill="#23130D"/>
<path d="M11.6615 7.62622C10.3553 7.62622 9.29248 8.68054 9.29248 9.9763C9.29248 11.2721 10.3553 12.3264 11.6615 12.3264C12.9677 12.3264 14.0305 11.2721 14.0305 9.9763C14.0305 8.68054 12.9677 7.62622 11.6615 7.62622ZM11.6615 11.7662C10.6665 11.7662 9.85721 10.9634 9.85721 9.9763C9.85721 8.98922 10.6665 8.18644 11.6615 8.18644C12.6565 8.18644 13.4658 8.98922 13.4658 9.9763C13.4658 10.9634 12.6565 11.7662 11.6615 11.7662Z" fill="#23130D"/>
<path d="M13.466 9.97616C13.466 10.9632 12.6567 11.766 11.6617 11.766C10.6667 11.766 9.85742 10.9632 9.85742 9.97616C9.85742 8.98906 10.6667 8.18628 11.6617 8.18628C12.6567 8.18628 13.466 8.98906 13.466 9.97616Z" fill="#636368"/>
<path opacity="0.2" d="M11.6617 8.46639C12.5009 8.46639 13.1836 9.14369 13.1836 9.97616C13.1836 10.8086 12.5009 11.4859 11.6617 11.4859C10.8225 11.4859 10.1398 10.8086 10.1398 9.97616C10.1398 9.14369 10.8225 8.46639 11.6617 8.46639ZM11.6617 8.18628C10.6667 8.18628 9.85742 8.98906 9.85742 9.97616C9.85742 10.9632 10.6667 11.766 11.6617 11.766C12.6567 11.766 13.466 10.9632 13.466 9.97616C13.466 8.98906 12.6567 8.18628 11.6617 8.18628Z" fill="black"/>
<path opacity="0.2" d="M21.3041 10.1287H20.937V13.4328H21.3041V10.1287Z" fill="black"/>
<path opacity="0.2" d="M21.3041 15.9868H20.937V19.2909H21.3041V15.9868Z" fill="black"/>
<path d="M42.1595 19.4602L46.4966 5.46875H43.2151L39.7607 16.9772H39.5689L36.1145 5.46875H32.8521L37.1892 19.4602H42.1595Z" fill="white"/>
<path d="M49.4831 19.5491C50.8841 19.5491 52.0163 19.0347 52.6303 18.0631H52.8224V19.4603H55.6626V12.8625C55.6626 10.6526 53.8777 9.24292 51.076 9.24292C48.3126 9.24292 46.5278 10.6145 46.5278 12.7482H49.3105C49.2914 11.7766 50.0014 11.2051 51.0376 11.2051C52.1698 11.2051 52.8224 11.8337 52.8224 12.7672V13.1673L50.7305 13.4149C47.6409 13.7959 46.0864 14.9198 46.0864 16.7487C46.0864 18.5013 47.4681 19.5491 49.4831 19.5491ZM50.4236 17.7012C49.4448 17.7012 48.8691 17.244 48.8691 16.5201C48.8691 15.8533 49.4063 15.3008 50.8072 15.1294L52.8224 14.8817V15.5676C52.8224 16.7869 51.8436 17.7012 50.4236 17.7012Z" fill="white"/>
<path d="M64.3032 9.28467V15.0342C64.3032 16.2724 63.3628 17.1677 62.2306 17.1677C61.0792 17.1677 60.3883 16.3295 60.3883 15.1293V9.28467H57.5479V15.5295C57.5479 17.8726 59.0257 19.5872 61.2518 19.5872C62.4416 19.5872 63.3819 19.0347 64.1112 17.9299H64.3032V19.4603H67.1433V9.28467H64.3032Z" fill="white"/>
<path d="M72.1612 19.4602V5.46875H69.3208V19.4602H72.1612Z" fill="white"/>
<path d="M78.3164 19.6062C78.8729 19.6062 79.679 19.4918 80.2355 19.3014V17.282C79.9093 17.3582 79.4871 17.4154 79.2185 17.4154C78.4124 17.4154 77.9133 16.8629 77.9133 16.0438V11.1926H80.1588V9.28464H77.9133L77.9328 5.46875H75.1917V9.28464H73.6914V11.1926H75.0733V16.1581C75.0733 18.2155 76.3397 19.6062 78.3164 19.6062Z" fill="white"/>
<path d="M92.6474 19.6634C96.2745 19.6634 98.5581 17.968 98.5581 15.3389C98.5581 12.1195 95.5454 11.6052 93.1465 11.2432C91.4192 10.9955 89.884 10.7669 89.884 9.45249C89.884 8.44281 90.8242 7.77606 92.4362 7.77606C94.1635 7.77606 95.2382 8.61426 95.219 10.0811H98.1552C98.1552 7.24266 95.8907 5.37573 92.3597 5.37573C88.8668 5.37573 86.6984 7.07121 86.6984 9.68107C86.6984 12.9577 89.9416 13.3768 92.3404 13.7197C93.9716 13.9674 95.3724 14.2341 95.3724 15.5295C95.3724 16.6154 94.3938 17.2631 92.7435 17.2631C90.7475 17.2631 89.6152 16.3297 89.5961 14.8437H86.564C86.5832 17.7393 88.9437 19.6634 92.6474 19.6634Z" fill="white"/>
<path d="M104.198 19.6062C104.754 19.6062 105.56 19.4918 106.117 19.3014V17.282C105.791 17.3582 105.368 17.4154 105.1 17.4154C104.294 17.4154 103.795 16.8629 103.795 16.0438V11.1926H106.04V9.28464H103.795L103.814 5.46875H101.031V9.28464H99.5728V11.1926H100.955V16.1581C100.955 18.2155 102.221 19.6062 104.198 19.6062Z" fill="white"/>
<path d="M110.71 19.5491C112.111 19.5491 113.243 19.0347 113.857 18.0631H114.049V19.4603H116.889V12.8625C116.889 10.6526 115.105 9.24292 112.303 9.24292C109.539 9.24292 107.754 10.6145 107.754 12.7482H110.537C110.518 11.7766 111.228 11.2051 112.264 11.2051C113.397 11.2051 114.049 11.8337 114.049 12.7672V13.1673L111.957 13.4149C108.867 13.7959 107.313 14.9198 107.313 16.7487C107.313 18.5013 108.695 19.5491 110.71 19.5491ZM111.65 17.7012C110.672 17.7012 110.096 17.244 110.096 16.5201C110.096 15.8533 110.633 15.3008 112.034 15.1294L114.049 14.8817V15.5676C114.049 16.7869 113.07 17.7012 111.65 17.7012Z" fill="white"/>
<path d="M121.769 19.4602V15.1484H121.961L125.166 19.4602H128.62L124.456 14.234L128.543 9.28464H125.108L121.961 13.3386H121.769V5.46875H118.929V19.4602H121.769Z" fill="white"/>
<path d="M131.258 8.19509C132.256 8.19509 132.966 7.5093 132.966 6.53775C132.966 5.58523 132.256 4.88037 131.258 4.88037C130.26 4.88037 129.55 5.58523 129.55 6.53775C129.55 7.5093 130.26 8.19509 131.258 8.19509ZM132.678 19.4604V9.28466H129.838V19.4604H132.678Z" fill="white"/>
<path d="M137.792 19.4604V13.815C137.792 12.5767 138.733 11.6813 139.865 11.6813C141.016 11.6813 141.707 12.5195 141.707 13.7197V19.4604H144.547V13.3197C144.547 10.9765 143.07 9.26196 140.844 9.26196C139.654 9.26196 138.713 9.81442 137.984 10.9193H137.792V9.2847H134.952V19.4604H137.792Z" fill="white"/>
<path d="M151.579 23.9877C154.861 23.9877 156.934 22.1971 156.934 19.1871V9.2847H154.171V10.786H153.978C153.212 9.83347 152.194 9.26196 150.774 9.26196C148.049 9.26196 146.149 11.2813 146.149 14.4245C146.149 17.4345 148.068 19.4348 150.793 19.4348C152.117 19.4348 153.115 18.9203 153.902 18.025H154.093V19.1109C154.093 20.711 153.077 21.7399 151.504 21.7399C150.274 21.7399 149.372 21.0921 149.009 20.0253L146.264 20.5587C146.744 22.7495 148.72 23.9877 151.579 23.9877ZM151.599 17.1298C150.083 17.1298 148.988 15.9867 148.988 14.4245C148.988 12.8243 150.083 11.6623 151.599 11.6623C153.115 11.6623 154.19 12.8243 154.19 14.4245C154.19 15.9867 153.115 17.1298 151.599 17.1298Z" fill="white"/>
</g>
<defs>
<clipPath id="clip0_363_212">
<rect width="157" height="25" fill="white"/>
</clipPath>
</defs>
</svg>
