<svg width="428" height="430" viewBox="0 0 428 430" fill="none" xmlns="http://www.w3.org/2000/svg">
<g clip-path="url(#clip0_266_468)">
<path d="M208.498 375.658C293.013 375.658 361.525 307.068 361.525 222.459C361.525 137.85 293.013 69.2611 208.498 69.2611C123.984 69.2611 55.4717 137.85 55.4717 222.459C55.4717 307.068 123.984 375.658 208.498 375.658Z" fill="url(#paint0_radial_266_468)"/>
<path d="M361.128 338.614L338.334 325.434L315.533 338.614L338.334 351.793L361.128 338.614Z" fill="url(#paint1_linear_266_468)"/>
<path d="M361.128 338.614V364.966L338.334 378.145V351.793L361.128 338.614Z" fill="#DCEBF4"/>
<path d="M315.533 338.614V364.966L338.334 378.145V351.793L315.533 338.614Z" fill="url(#paint2_linear_266_468)"/>
<path d="M427.361 288.188L404.561 275.009L381.76 288.188L404.561 301.361L427.361 288.188Z" fill="url(#paint3_linear_266_468)"/>
<path d="M427.361 288.188V314.54L404.561 327.72V301.361L427.361 288.188Z" fill="#DCEBF4"/>
<path d="M381.76 288.188V314.54L404.561 327.72V301.361L381.76 288.188Z" fill="url(#paint4_linear_266_468)"/>
<path d="M38.8253 267.647L19.8561 256.685L0.893555 267.647L19.8561 278.609L38.8253 267.647Z" fill="url(#paint5_linear_266_468)"/>
<path d="M38.8257 267.647V289.57L19.8564 300.532V278.608L38.8257 267.647Z" fill="#DCEBF4"/>
<path d="M0.893555 267.647V289.57L19.8561 300.532V278.608L0.893555 267.647Z" fill="url(#paint6_linear_266_468)"/>
<path d="M321.095 378.86L299.23 366.226L277.365 378.86L299.23 391.5L321.095 378.86Z" fill="url(#paint7_linear_266_468)"/>
<path d="M321.094 378.86V404.14L299.229 416.773V391.5L321.094 378.86Z" fill="#DCEBF4"/>
<path d="M277.365 378.86V404.133L299.23 416.773V391.5L277.365 378.86Z" fill="url(#paint8_linear_266_468)"/>
<path d="M346.488 60.6456L324.624 48.0055L302.759 60.6456L324.624 73.2857L346.488 60.6456Z" fill="url(#paint9_linear_266_468)"/>
<path d="M346.488 60.6455V85.919L324.623 98.5591V73.2856L346.488 60.6455Z" fill="#DCEBF4"/>
<path d="M302.759 60.6456V85.9191L324.624 98.5592V73.2858L302.759 60.6456Z" fill="url(#paint10_linear_266_468)"/>
<path d="M182.074 389.579L167.818 381.334L153.562 389.579L167.818 397.817L182.074 389.579Z" fill="url(#paint11_linear_266_468)"/>
<path d="M182.075 389.579V406.061L167.819 414.299V397.817L182.075 389.579Z" fill="#DCEBF4"/>
<path d="M153.562 389.579V406.061L167.818 414.299V397.817L153.562 389.579Z" fill="url(#paint12_linear_266_468)"/>
<path d="M295.829 45.1472L281.574 36.9092L267.312 45.1472L281.574 53.3919L295.829 45.1472Z" fill="url(#paint13_linear_266_468)"/>
<path d="M295.829 45.1471V61.6298L281.573 69.8678V53.3918L295.829 45.1471Z" fill="#DCEBF4"/>
<path d="M267.312 45.1471V61.6298L281.574 69.8678V53.3918L267.312 45.1471Z" fill="url(#paint14_linear_266_468)"/>
<path d="M34.1184 203.739L19.8561 195.501L5.60059 203.739L19.8561 211.983L34.1184 203.739Z" fill="url(#paint15_linear_266_468)"/>
<path d="M34.1187 203.739V220.221L19.8564 228.459V211.983L34.1187 203.739Z" fill="#DCEBF4"/>
<path d="M5.60059 203.739V220.221L19.8561 228.459V211.983L5.60059 203.739Z" fill="url(#paint16_linear_266_468)"/>
<path d="M162.324 222.399C162.324 208.552 162.849 195.13 163.826 182.348C139.988 184.371 118.096 188.058 99.8542 193.202C97.1697 212.574 97.1697 232.224 99.8542 251.596C118.116 256.733 140.008 260.42 163.826 262.449C162.849 249.661 162.324 236.239 162.324 222.399Z" fill="#245BEF"/>
<path d="M162.324 222.399C162.324 219.253 162.353 216.136 162.412 213.048C150.505 214.825 138.715 217.315 127.106 220.504C125.762 230.181 125.087 239.939 125.086 249.708C125.086 252.283 125.133 254.845 125.227 257.393C137.247 259.591 150.21 261.29 163.812 262.449C162.849 249.661 162.324 236.239 162.324 222.399Z" fill="#707AFF"/>
<path d="M299.876 130.271C326.246 144.178 346.414 163.904 356.797 186.858C350.241 159.264 336.159 134.034 316.122 113.981C296.084 93.9279 270.877 79.8394 243.312 73.2856C266.254 83.6809 285.957 103.871 299.876 130.271Z" fill="#707AFF"/>
<path d="M207.825 176.847C221.656 176.847 235.064 177.373 247.831 178.35C245.811 154.479 242.127 132.57 236.989 114.307C217.639 111.629 198.012 111.629 178.661 114.307C173.523 132.597 169.846 154.506 167.819 178.35C180.593 177.373 194.001 176.847 207.825 176.847Z" fill="#707AFF"/>
<path d="M212.768 176.874C210.946 163.784 208.282 150.825 204.795 138.077C195.132 136.731 185.387 136.056 175.631 136.055H173.55C170.891 150.033 168.979 164.142 167.819 178.323C180.614 177.346 194.001 176.82 207.825 176.82C209.482 176.847 211.125 176.854 212.768 176.874Z" fill="url(#paint17_linear_266_468)"/>
<path d="M173.583 115.871C168.87 133.567 165.334 154.971 163.375 177.892C140.48 179.854 119.093 183.38 101.423 188.112C104.444 169.125 110.417 150.73 119.127 133.594C136.244 124.876 154.618 118.894 173.583 115.864M174.688 114.867C154.116 118.15 135.086 124.413 118.527 132.994C109.955 149.571 103.713 168.623 100.427 189.218C118.238 184.35 139.981 180.669 164.122 178.647C166.142 154.472 169.819 132.711 174.688 114.873V114.867Z" fill="#707AFF"/>
<path d="M354.01 265.234C346.834 289.787 333.601 312.138 315.532 330.229C297.463 348.32 275.138 361.568 250.612 368.754C259.785 363.587 268.175 357.135 275.527 349.595C285.473 339.389 293.867 327.775 300.443 315.127C313.075 308.545 324.674 300.141 334.866 290.183C342.397 282.822 348.842 274.423 354.004 265.24M356.764 257.946C346.381 280.901 326.213 300.626 299.843 314.533C285.951 340.933 266.248 361.123 243.319 371.518C251.555 369.565 259.613 366.922 267.406 363.618C289.544 354.267 309.171 339.828 324.695 321.469C340.22 303.11 351.206 281.348 356.764 257.946Z" fill="#707AFF"/>
<path d="M179.785 110.417C198.4 107.99 217.25 107.99 235.865 110.417C228.067 84.5236 217.643 69.1398 207.825 69.1398C198.007 69.1398 187.583 84.5236 179.785 110.417Z" fill="url(#paint18_linear_266_468)"/>
<path d="M314.233 256.679C311.202 275.666 305.222 294.061 296.509 311.196C279.392 319.912 261.017 325.892 242.052 328.92C246.766 311.23 250.301 289.819 252.261 266.899C275.156 264.937 296.543 261.411 314.212 256.679M315.209 255.573C297.391 260.447 275.648 264.121 251.507 266.15C249.487 290.318 245.81 312.08 240.941 329.917C261.513 326.641 280.543 320.378 297.102 311.796C305.674 295.219 311.916 276.168 315.209 255.573Z" fill="#707AFF"/>
<path d="M235.865 334.373C217.25 336.8 198.4 336.8 179.785 334.373C187.583 360.26 198.007 375.651 207.825 375.651C217.643 375.651 228.067 360.267 235.865 334.373Z" fill="url(#paint19_linear_266_468)"/>
<path d="M95.0129 195.46C92.7862 213.35 92.7862 231.447 95.0129 249.337C70.2727 241.693 55.5458 231.655 55.5458 222.372C55.5458 213.089 70.2727 203.078 95.0129 195.406M95.9691 194.267C70.1044 202.134 54.7646 212.57 54.7646 222.399C54.7646 232.228 70.1313 242.663 95.996 250.47C93.5718 231.832 93.5718 212.958 95.996 194.321L95.9691 194.267Z" fill="#707AFF"/>
<path d="M115.8 130.271C129.692 103.871 149.395 83.681 172.324 73.2858C144.769 79.8532 119.575 93.947 99.5459 113.998C79.517 134.05 65.439 159.272 58.8789 186.858C69.2625 163.904 89.4304 144.178 115.8 130.271Z" fill="url(#paint20_linear_266_468)"/>
<path d="M207.825 267.95C194.001 267.95 180.593 267.425 167.819 266.447C169.839 290.312 173.523 312.228 178.661 330.49C198.011 333.178 217.639 333.178 236.989 330.49C242.127 312.208 245.804 290.291 247.831 266.447C235.064 267.425 221.656 267.95 207.825 267.95Z" fill="url(#paint21_linear_266_468)"/>
<path d="M210.175 332.526C219.154 332.423 228.117 331.747 237.01 330.504C239.535 321.384 241.603 312.144 243.205 302.817C230.511 302.743 218.189 302.237 206.404 301.334C207.327 312.208 208.593 322.643 210.175 332.526Z" fill="url(#paint22_linear_266_468)"/>
<path d="M115.8 314.527C89.4304 300.619 69.2625 280.894 58.8789 257.939C65.439 285.525 79.517 310.748 99.5459 330.799C119.575 350.85 144.769 364.944 172.324 371.512C149.395 361.116 129.692 340.926 115.8 314.527Z" fill="#707AFF"/>
<path d="M167.516 262.753C180.499 263.75 194.02 264.276 207.825 264.276C221.629 264.276 235.151 263.75 248.134 262.753C249.137 249.755 249.656 236.219 249.656 222.399C249.656 208.579 249.137 195.042 248.134 182.045C235.151 181.04 221.629 180.521 207.825 180.521C194.02 180.521 180.499 181.04 167.516 182.045C166.519 195.042 165.994 208.579 165.994 222.399C165.994 236.219 166.546 249.755 167.516 262.753Z" fill="url(#paint23_linear_266_468)"/>
<path d="M55.4717 233.145C59.5995 263.697 81.1613 290.635 112.891 308.729C104.785 291.553 99.2666 273.27 96.5145 254.474C76.7506 248.677 62.2931 241.342 55.4717 233.145Z" fill="url(#paint24_linear_266_468)"/>
<path d="M360.178 211.68C356.05 181.121 334.489 154.183 302.759 136.089C310.86 153.268 316.374 171.553 319.122 190.35C338.933 196.121 353.357 203.455 360.178 211.68Z" fill="#245BEF"/>
<path d="M218.559 374.923C249.083 370.777 275.985 349.204 294.065 317.439C276.905 325.547 258.64 331.065 239.865 333.814C234.073 353.62 226.747 368.08 218.559 374.923Z" fill="#245BEF"/>
<path d="M197.091 374.923C188.902 368.094 181.603 353.62 175.785 333.8C157.011 331.053 138.748 325.534 121.591 317.425C139.664 349.204 166.546 370.777 197.091 374.923Z" fill="url(#paint25_linear_266_468)"/>
<path d="M360.178 233.144C353.357 241.342 338.906 248.65 319.102 254.474C316.363 273.277 310.855 291.57 302.759 308.756C334.489 290.635 356.05 263.696 360.178 233.144Z" fill="url(#paint26_linear_266_468)"/>
<path d="M338.737 247.483C332.362 250.235 325.816 252.574 319.142 254.488C317.908 262.701 316.171 270.83 313.943 278.831C324.448 269.514 332.872 258.944 338.737 247.483Z" fill="#DCEBF4"/>
<path d="M55.4717 211.68C62.2931 203.482 76.7506 196.175 96.5482 190.35C99.2961 171.553 104.81 153.268 112.911 136.089C81.1613 154.156 59.5995 181.094 55.4717 211.68Z" fill="#245BEF"/>
<path d="M239.865 110.977C258.64 113.728 276.906 119.248 294.065 127.358C275.985 95.593 249.083 74.007 218.559 69.8678C226.747 76.7036 234.073 91.1706 239.865 110.977Z" fill="#245BEF"/>
<path d="M253.326 222.399C253.326 236.239 252.801 249.661 251.824 262.449C275.669 260.427 297.554 256.733 315.796 251.596C318.48 232.224 318.48 212.574 315.796 193.202C297.534 188.058 275.649 184.377 251.824 182.348C252.801 195.13 253.326 208.552 253.326 222.399Z" fill="url(#paint27_linear_266_468)"/>
<path d="M326.536 177.899C323.264 157.304 317.008 138.253 308.436 121.675C291.877 113.094 272.847 106.844 252.275 103.548C257.144 121.386 260.814 143.154 262.841 167.321C286.982 169.351 308.725 173.025 326.536 177.899Z" fill="url(#paint28_linear_266_468)"/>
<path d="M285.371 142.176C297.142 143.167 308.334 144.549 318.791 146.268C315.964 137.822 312.5 129.603 308.428 121.682C299.798 117.239 290.816 113.518 281.573 110.559C283.156 120.482 284.435 131.073 285.371 142.176Z" fill="url(#paint29_linear_266_468)"/>
<path d="M221.165 203.273C214.059 203.265 206.96 203.742 199.919 204.702C199.394 216.871 199.118 229.545 199.118 242.488C199.118 249.827 199.206 257.065 199.381 264.202C202.182 264.247 204.997 264.272 207.825 264.276C219.811 264.276 231.575 263.878 242.969 263.117C243.126 256.344 243.205 249.468 243.205 242.488C243.205 229.545 242.929 216.871 242.403 204.702C235.365 203.742 228.269 203.265 221.165 203.273Z" fill="url(#paint30_linear_266_468)"/>
<path d="M26.2402 338.951L62.2798 318.12L98.3194 338.951L62.2798 359.782L26.2402 338.951Z" fill="#245BEF"/>
<path d="M26.2402 380.613L62.2798 359.782L98.3194 380.613L62.2798 401.443L26.2402 380.613Z" fill="url(#paint31_linear_266_468)"/>
<path d="M27.0146 340.292L61.4987 360.233V400.102L27.0146 380.168V340.292ZM26.2402 338.944V380.606L62.2798 401.437V359.775L26.2402 338.944Z" fill="#707AFF"/>
<path d="M98.3189 338.951V380.613L62.2793 401.443V359.782L98.3189 338.951Z" fill="url(#paint32_linear_266_468)"/>
<path d="M38.2734 331.994L50.2664 338.951L74.2928 325.064L62.2796 318.12L38.2734 331.994Z" fill="#707AFF"/>
<path d="M98.3187 366.725L86.2988 373.662V387.549L98.3187 380.613V366.725Z" fill="url(#paint33_linear_266_468)"/>
<path d="M380.568 181.519V212.341L389.457 217.477V186.656L380.568 181.519Z" fill="#DCEBF4"/>
<path d="M367.235 173.807L393.901 158.396L420.567 173.807L393.901 189.224L367.235 173.807Z" fill="#245BEF"/>
<path d="M367.235 204.635L393.901 189.224L420.567 204.635L393.901 220.053L367.235 204.635Z" fill="url(#paint34_linear_266_468)"/>
<path d="M367.807 174.804L393.329 189.555V219.055L367.807 204.305V174.804ZM367.235 173.807V204.635L393.901 220.053V189.224L367.215 173.807H367.235Z" fill="#707AFF"/>
<path d="M420.566 173.807V204.635L393.9 220.053V189.224L420.566 173.807Z" fill="url(#paint35_linear_266_468)"/>
<path d="M411.705 178.93L393.9 189.224V209.826L411.678 199.559L411.705 178.93Z" fill="#B8BDFF"/>
<path d="M404.56 183.036L393.907 189.218L383.228 183.042L393.901 176.874L404.56 183.036Z" fill="#707AFF"/>
<path d="M62.0166 102.712V133.534L53.1279 138.671V107.849L62.0166 102.712Z" fill="#DCEBF4"/>
<path d="M75.3564 94.9997L48.6836 79.5889L22.0176 94.9997L48.6836 110.411L75.3564 94.9997Z" fill="#245BEF"/>
<path d="M75.3564 125.828L48.6836 110.411L22.0176 125.828L48.6836 141.239L75.3564 125.828Z" fill="url(#paint36_linear_266_468)"/>
<path d="M74.7776 95.9975V125.498L49.263 140.221V110.748L74.7843 95.9975M75.3634 94.9998L48.7041 110.411V141.239L75.3769 125.828V94.9998H75.3634Z" fill="#707AFF"/>
<path d="M22.0176 94.9998V125.828L48.6836 141.239V110.411L22.0176 94.9998Z" fill="url(#paint37_linear_266_468)"/>
<path d="M30.8789 100.123L48.6832 110.411V131.019L30.9126 120.745L30.8789 100.123Z" fill="#B8BDFF"/>
<path d="M38.0303 104.229L48.6832 110.411L59.3631 104.236L48.6832 98.0671L38.0303 104.229Z" fill="#707AFF"/>
<path d="M74.0439 91.7909L102.299 75.4633L113.235 81.7799L124.171 75.4633L136.581 82.6361" stroke="#C7E2EF" stroke-width="1.73" stroke-linecap="round" stroke-linejoin="round"/>
<path d="M36.6836 138.671V201.871" stroke="#C7E2EF" stroke-width="1.73" stroke-linecap="round" stroke-linejoin="round"/>
<path d="M40.4951 275.521L47.6195 271.402L58.5553 277.719L61.2892 276.141" stroke="#C7E2EF" stroke-width="1.73" stroke-linecap="round" stroke-linejoin="round"/>
<path d="M331.943 97.7031V107.06L342.879 126.024L364.751 138.664L364.744 176.591" stroke="#C7E2EF" stroke-width="1.73" stroke-linecap="round" stroke-linejoin="round"/>
<path d="M265.588 56.931L255.393 62.823L233.521 62.8163L224.505 68.0341" stroke="#C7E2EF" stroke-width="1.73" stroke-linecap="round" stroke-linejoin="round"/>
<path d="M345.249 326.917L375.679 309.322V258.762L397.551 246.115V220.835" stroke="#C7E2EF" stroke-width="1.73" stroke-linecap="round" stroke-linejoin="round"/>
<path d="M288.301 397.756L255.392 416.773L244.456 410.457L211.649 429.413L178.842 410.457" stroke="#C7E2EF" stroke-width="1.73" stroke-linecap="round" stroke-linejoin="round"/>
<path d="M141.174 17.6422V41.1562L147.955 45.073V21.559L141.174 17.6422Z" fill="#DCEBF4"/>
<path d="M130.998 11.757L151.341 0L171.691 11.757L151.341 23.5207L130.998 11.757Z" fill="#245BEF"/>
<path d="M130.998 35.2778L151.341 23.5208L171.691 35.2778L151.341 47.0415L130.998 35.2778Z" fill="url(#paint38_linear_266_468)"/>
<path d="M131.725 13.0243L150.614 23.9387V45.774L131.725 34.8597V13.0243ZM130.998 11.757V35.2777L151.341 47.0414V23.5207L130.998 11.757Z" fill="#707AFF"/>
<path d="M171.691 11.757V35.2777L151.342 47.0414V23.5207L171.691 11.757Z" fill="url(#paint39_linear_266_468)"/>
<path d="M164.931 15.667L151.342 23.5207V39.2417L164.904 31.4014L164.931 15.667Z" fill="url(#paint40_linear_266_468)"/>
<path d="M154.743 9.80199L147.962 13.7322L137.78 7.84698L144.561 3.91675L154.743 9.80199Z" fill="#707AFF"/>
<path d="M379.37 383.7V407.214L372.589 411.131V387.617L379.37 383.7Z" fill="#DCEBF4"/>
<path d="M389.545 377.815L369.202 366.058L348.853 377.815L369.202 389.579L389.545 377.815Z" fill="#245BEF"/>
<path d="M389.545 401.336L369.202 389.579L348.853 401.336L369.202 413.099L389.545 401.336Z" fill="url(#paint41_linear_266_468)"/>
<path d="M388.817 379.082V400.918L369.909 411.832V389.997L388.797 379.082M389.524 377.815L369.235 389.579V413.099L389.578 401.336V377.815H389.524Z" fill="#707AFF"/>
<path d="M348.853 377.815V401.336L369.202 413.099V389.579L348.853 377.815Z" fill="url(#paint42_linear_266_468)"/>
<path d="M355.612 381.725L369.201 389.579V405.3L355.639 397.459L355.612 381.725Z" fill="url(#paint43_linear_266_468)"/>
<path d="M365.801 375.86L372.582 379.79L382.763 373.905L375.982 369.975L365.801 375.86Z" fill="#707AFF"/>
<path d="M19.8564 229.895V255.108" stroke="#C7E2EF" stroke-width="1.73" stroke-linecap="round" stroke-linejoin="round"/>
</g>
<defs>
<radialGradient id="paint0_radial_266_468" cx="0" cy="0" r="1" gradientUnits="userSpaceOnUse" gradientTransform="translate(208.498 222.459) scale(153.027 153.198)">
<stop offset="0.59" stop-color="#F3F3F3" stop-opacity="0"/>
<stop offset="0.62" stop-color="#E7E8F4" stop-opacity="0.09"/>
<stop offset="0.76" stop-color="#B5B9F9" stop-opacity="0.48"/>
<stop offset="0.88" stop-color="#9097FC" stop-opacity="0.76"/>
<stop offset="0.96" stop-color="#7982FE" stop-opacity="0.93"/>
<stop offset="1" stop-color="#707AFF"/>
</radialGradient>
<linearGradient id="paint1_linear_266_468" x1="337.27" y1="317.196" x2="338.336" y2="338.681" gradientUnits="userSpaceOnUse">
<stop stop-color="#DCEBF4"/>
<stop offset="0.02" stop-color="#DBE9F4"/>
<stop offset="0.39" stop-color="#C8D1FA"/>
<stop offset="0.72" stop-color="#BCC2FE"/>
<stop offset="1" stop-color="#B8BDFF"/>
</linearGradient>
<linearGradient id="paint2_linear_266_468" x1="322.159" y1="352.508" x2="369.366" y2="410.398" gradientUnits="userSpaceOnUse">
<stop stop-color="#F3F3F3"/>
<stop offset="0.08" stop-color="#F0F2F3"/>
<stop offset="0.58" stop-color="#E1EDF4"/>
<stop offset="1" stop-color="#DCEBF4"/>
</linearGradient>
<linearGradient id="paint3_linear_266_468" x1="403.497" y1="266.771" x2="404.563" y2="288.255" gradientUnits="userSpaceOnUse">
<stop stop-color="#DCEBF4"/>
<stop offset="0.02" stop-color="#DBE9F4"/>
<stop offset="0.39" stop-color="#C8D1FA"/>
<stop offset="0.72" stop-color="#BCC2FE"/>
<stop offset="1" stop-color="#B8BDFF"/>
</linearGradient>
<linearGradient id="paint4_linear_266_468" x1="388.386" y1="302.082" x2="435.593" y2="359.966" gradientUnits="userSpaceOnUse">
<stop stop-color="#F3F3F3"/>
<stop offset="0.08" stop-color="#F0F2F3"/>
<stop offset="0.58" stop-color="#E1EDF4"/>
<stop offset="1" stop-color="#DCEBF4"/>
</linearGradient>
<linearGradient id="paint5_linear_266_468" x1="18.9739" y1="249.829" x2="19.8648" y2="267.701" gradientUnits="userSpaceOnUse">
<stop stop-color="#DCEBF4"/>
<stop offset="0.02" stop-color="#DBE9F4"/>
<stop offset="0.39" stop-color="#C8D1FA"/>
<stop offset="0.72" stop-color="#BCC2FE"/>
<stop offset="1" stop-color="#B8BDFF"/>
</linearGradient>
<linearGradient id="paint6_linear_266_468" x1="6.40184" y1="279.208" x2="45.6726" y2="327.36" gradientUnits="userSpaceOnUse">
<stop stop-color="#F3F3F3"/>
<stop offset="0.08" stop-color="#F0F2F3"/>
<stop offset="0.58" stop-color="#E1EDF4"/>
<stop offset="1" stop-color="#DCEBF4"/>
</linearGradient>
<linearGradient id="paint7_linear_266_468" x1="298.213" y1="358.325" x2="299.239" y2="378.927" gradientUnits="userSpaceOnUse">
<stop stop-color="#DCEBF4"/>
<stop offset="0.02" stop-color="#DBE9F4"/>
<stop offset="0.39" stop-color="#C8D1FA"/>
<stop offset="0.72" stop-color="#BCC2FE"/>
<stop offset="1" stop-color="#B8BDFF"/>
</linearGradient>
<linearGradient id="paint8_linear_266_468" x1="283.722" y1="392.187" x2="328.994" y2="447.707" gradientUnits="userSpaceOnUse">
<stop stop-color="#F3F3F3"/>
<stop offset="0.08" stop-color="#F0F2F3"/>
<stop offset="0.58" stop-color="#E1EDF4"/>
<stop offset="1" stop-color="#DCEBF4"/>
</linearGradient>
<linearGradient id="paint9_linear_266_468" x1="323.6" y1="40.1046" x2="324.626" y2="60.7129" gradientUnits="userSpaceOnUse">
<stop stop-color="#DCEBF4"/>
<stop offset="0.02" stop-color="#DBE9F4"/>
<stop offset="0.39" stop-color="#C8D1FA"/>
<stop offset="0.72" stop-color="#BCC2FE"/>
<stop offset="1" stop-color="#B8BDFF"/>
</linearGradient>
<linearGradient id="paint10_linear_266_468" x1="309.109" y1="73.9734" x2="354.381" y2="129.486" gradientUnits="userSpaceOnUse">
<stop stop-color="#F3F3F3"/>
<stop offset="0.08" stop-color="#F0F2F3"/>
<stop offset="0.58" stop-color="#E1EDF4"/>
<stop offset="1" stop-color="#DCEBF4"/>
</linearGradient>
<linearGradient id="paint11_linear_266_468" x1="167.151" y1="376.183" x2="167.82" y2="389.619" gradientUnits="userSpaceOnUse">
<stop stop-color="#DCEBF4"/>
<stop offset="0.02" stop-color="#DBE9F4"/>
<stop offset="0.39" stop-color="#C8D1FA"/>
<stop offset="0.72" stop-color="#BCC2FE"/>
<stop offset="1" stop-color="#B8BDFF"/>
</linearGradient>
<linearGradient id="paint12_linear_266_468" x1="157.704" y1="398.268" x2="187.224" y2="434.471" gradientUnits="userSpaceOnUse">
<stop stop-color="#F3F3F3"/>
<stop offset="0.08" stop-color="#F0F2F3"/>
<stop offset="0.58" stop-color="#E1EDF4"/>
<stop offset="1" stop-color="#DCEBF4"/>
</linearGradient>
<linearGradient id="paint13_linear_266_468" x1="280.907" y1="31.7588" x2="281.575" y2="45.1943" gradientUnits="userSpaceOnUse">
<stop stop-color="#DCEBF4"/>
<stop offset="0.02" stop-color="#DBE9F4"/>
<stop offset="0.39" stop-color="#C8D1FA"/>
<stop offset="0.72" stop-color="#BCC2FE"/>
<stop offset="1" stop-color="#B8BDFF"/>
</linearGradient>
<linearGradient id="paint14_linear_266_468" x1="271.46" y1="53.8435" x2="300.98" y2="90.0394" gradientUnits="userSpaceOnUse">
<stop stop-color="#F3F3F3"/>
<stop offset="0.08" stop-color="#F0F2F3"/>
<stop offset="0.58" stop-color="#E1EDF4"/>
<stop offset="1" stop-color="#DCEBF4"/>
</linearGradient>
<linearGradient id="paint15_linear_266_468" x1="19.1962" y1="190.35" x2="19.8644" y2="203.786" gradientUnits="userSpaceOnUse">
<stop stop-color="#DCEBF4"/>
<stop offset="0.02" stop-color="#DBE9F4"/>
<stop offset="0.39" stop-color="#C8D1FA"/>
<stop offset="0.72" stop-color="#BCC2FE"/>
<stop offset="1" stop-color="#B8BDFF"/>
</linearGradient>
<linearGradient id="paint16_linear_266_468" x1="9.7419" y1="212.435" x2="39.2692" y2="248.631" gradientUnits="userSpaceOnUse">
<stop stop-color="#F3F3F3"/>
<stop offset="0.08" stop-color="#F0F2F3"/>
<stop offset="0.58" stop-color="#E1EDF4"/>
<stop offset="1" stop-color="#DCEBF4"/>
</linearGradient>
<linearGradient id="paint17_linear_266_468" x1="176.338" y1="177.427" x2="205.946" y2="140.624" gradientUnits="userSpaceOnUse">
<stop stop-color="#2DEDC6"/>
<stop offset="0.2" stop-color="#42C8D8"/>
<stop offset="0.43" stop-color="#56A7E9"/>
<stop offset="0.64" stop-color="#648EF5"/>
<stop offset="0.84" stop-color="#6D7FFC"/>
<stop offset="1" stop-color="#707AFF"/>
</linearGradient>
<linearGradient id="paint18_linear_266_468" x1="17.23" y1="89.7752" x2="427.348" y2="89.7752" gradientUnits="userSpaceOnUse">
<stop stop-color="#DCEBF4"/>
<stop offset="0.02" stop-color="#DBE9F4"/>
<stop offset="0.39" stop-color="#C8D1FA"/>
<stop offset="0.72" stop-color="#BCC2FE"/>
<stop offset="1" stop-color="#B8BDFF"/>
</linearGradient>
<linearGradient id="paint19_linear_266_468" x1="-31.0786" y1="304.468" x2="158.381" y2="342.321" gradientUnits="userSpaceOnUse">
<stop stop-color="#DCEBF4"/>
<stop offset="0.02" stop-color="#DBE9F4"/>
<stop offset="0.39" stop-color="#C8D1FA"/>
<stop offset="0.72" stop-color="#BCC2FE"/>
<stop offset="1" stop-color="#B8BDFF"/>
</linearGradient>
<linearGradient id="paint20_linear_266_468" x1="8.06528" y1="108.537" x2="197.525" y2="146.389" gradientUnits="userSpaceOnUse">
<stop stop-color="#DCEBF4"/>
<stop offset="0.02" stop-color="#DBE9F4"/>
<stop offset="0.39" stop-color="#C8D1FA"/>
<stop offset="0.72" stop-color="#BCC2FE"/>
<stop offset="1" stop-color="#B8BDFF"/>
</linearGradient>
<linearGradient id="paint21_linear_266_468" x1="17.2303" y1="299.487" x2="427.349" y2="299.487" gradientUnits="userSpaceOnUse">
<stop stop-color="#DCEBF4"/>
<stop offset="0.02" stop-color="#DBE9F4"/>
<stop offset="0.39" stop-color="#C8D1FA"/>
<stop offset="0.72" stop-color="#BCC2FE"/>
<stop offset="1" stop-color="#B8BDFF"/>
</linearGradient>
<linearGradient id="paint22_linear_266_468" x1="242.848" y1="334.016" x2="197.242" y2="288.023" gradientUnits="userSpaceOnUse">
<stop stop-color="#2DEDC6"/>
<stop offset="0.16" stop-color="#5AECD2" stop-opacity="0.74"/>
<stop offset="0.32" stop-color="#81ECDC" stop-opacity="0.52"/>
<stop offset="0.47" stop-color="#A2ECE5" stop-opacity="0.33"/>
<stop offset="0.62" stop-color="#BBEBEB" stop-opacity="0.19"/>
<stop offset="0.76" stop-color="#CDEBF0" stop-opacity="0.08"/>
<stop offset="0.89" stop-color="#D8EBF3" stop-opacity="0.02"/>
<stop offset="1" stop-color="#DCEBF4" stop-opacity="0"/>
</linearGradient>
<linearGradient id="paint23_linear_266_468" x1="17.2299" y1="222.399" x2="427.348" y2="222.399" gradientUnits="userSpaceOnUse">
<stop stop-color="#DCEBF4"/>
<stop offset="0.02" stop-color="#DBE9F4"/>
<stop offset="0.39" stop-color="#C8D1FA"/>
<stop offset="0.72" stop-color="#BCC2FE"/>
<stop offset="1" stop-color="#B8BDFF"/>
</linearGradient>
<linearGradient id="paint24_linear_266_468" x1="17.2301" y1="270.937" x2="427.349" y2="270.937" gradientUnits="userSpaceOnUse">
<stop stop-color="#DCEBF4"/>
<stop offset="0.02" stop-color="#DBE9F4"/>
<stop offset="0.39" stop-color="#C8D1FA"/>
<stop offset="0.72" stop-color="#BCC2FE"/>
<stop offset="1" stop-color="#B8BDFF"/>
</linearGradient>
<linearGradient id="paint25_linear_266_468" x1="17.2296" y1="346.178" x2="427.348" y2="346.178" gradientUnits="userSpaceOnUse">
<stop stop-color="#DCEBF4"/>
<stop offset="0.02" stop-color="#DBE9F4"/>
<stop offset="0.39" stop-color="#C8D1FA"/>
<stop offset="0.72" stop-color="#BCC2FE"/>
<stop offset="1" stop-color="#B8BDFF"/>
</linearGradient>
<linearGradient id="paint26_linear_266_468" x1="17.2301" y1="270.937" x2="427.348" y2="270.937" gradientUnits="userSpaceOnUse">
<stop stop-color="#DCEBF4"/>
<stop offset="0.02" stop-color="#DBE9F4"/>
<stop offset="0.39" stop-color="#C8D1FA"/>
<stop offset="0.72" stop-color="#BCC2FE"/>
<stop offset="1" stop-color="#B8BDFF"/>
</linearGradient>
<linearGradient id="paint27_linear_266_468" x1="251.824" y1="222.399" x2="317.829" y2="222.399" gradientUnits="userSpaceOnUse">
<stop stop-color="#DCEBF4"/>
<stop offset="0.02" stop-color="#DBE9F4"/>
<stop offset="0.39" stop-color="#C8D1FA"/>
<stop offset="0.72" stop-color="#BCC2FE"/>
<stop offset="1" stop-color="#B8BDFF"/>
</linearGradient>
<linearGradient id="paint28_linear_266_468" x1="28.5365" y1="140.727" x2="438.662" y2="140.727" gradientUnits="userSpaceOnUse">
<stop stop-color="#DCEBF4"/>
<stop offset="0.02" stop-color="#DBE9F4"/>
<stop offset="0.39" stop-color="#C8D1FA"/>
<stop offset="0.72" stop-color="#BCC2FE"/>
<stop offset="1" stop-color="#B8BDFF"/>
</linearGradient>
<linearGradient id="paint29_linear_266_468" x1="307.903" y1="121.878" x2="278.313" y2="146.835" gradientUnits="userSpaceOnUse">
<stop stop-color="#2DEDC6"/>
<stop offset="0.16" stop-color="#5AECD2" stop-opacity="0.74"/>
<stop offset="0.32" stop-color="#81ECDC" stop-opacity="0.52"/>
<stop offset="0.47" stop-color="#A2ECE5" stop-opacity="0.33"/>
<stop offset="0.62" stop-color="#BBEBEB" stop-opacity="0.19"/>
<stop offset="0.76" stop-color="#CDEBF0" stop-opacity="0.08"/>
<stop offset="0.89" stop-color="#D8EBF3" stop-opacity="0.02"/>
<stop offset="1" stop-color="#DCEBF4" stop-opacity="0"/>
</linearGradient>
<linearGradient id="paint30_linear_266_468" x1="228.155" y1="283.873" x2="217.404" y2="210.861" gradientUnits="userSpaceOnUse">
<stop stop-color="#2DEDC6"/>
<stop offset="0.16" stop-color="#5AECD2" stop-opacity="0.74"/>
<stop offset="0.32" stop-color="#81ECDC" stop-opacity="0.52"/>
<stop offset="0.47" stop-color="#A2ECE5" stop-opacity="0.33"/>
<stop offset="0.62" stop-color="#BBEBEB" stop-opacity="0.19"/>
<stop offset="0.76" stop-color="#CDEBF0" stop-opacity="0.08"/>
<stop offset="0.89" stop-color="#D8EBF3" stop-opacity="0.02"/>
<stop offset="1" stop-color="#DCEBF4" stop-opacity="0"/>
</linearGradient>
<linearGradient id="paint31_linear_266_468" x1="25.2234" y1="358.797" x2="117.55" y2="413.029" gradientUnits="userSpaceOnUse">
<stop stop-color="white" stop-opacity="0"/>
<stop offset="0.15" stop-color="#CBD7FA" stop-opacity="0.25"/>
<stop offset="0.31" stop-color="#9BB2F5" stop-opacity="0.47"/>
<stop offset="0.47" stop-color="#7493F1" stop-opacity="0.66"/>
<stop offset="0.62" stop-color="#557BEE" stop-opacity="0.81"/>
<stop offset="0.76" stop-color="#3F6AEC" stop-opacity="0.91"/>
<stop offset="0.89" stop-color="#3260EA" stop-opacity="0.98"/>
<stop offset="1" stop-color="#2D5CEA"/>
</linearGradient>
<linearGradient id="paint32_linear_266_468" x1="98.7566" y1="334.468" x2="41.539" y2="444.974" gradientUnits="userSpaceOnUse">
<stop stop-color="#DCEBF4"/>
<stop offset="0.02" stop-color="#DBE9F4"/>
<stop offset="0.39" stop-color="#C8D1FA"/>
<stop offset="0.72" stop-color="#BCC2FE"/>
<stop offset="1" stop-color="#B8BDFF"/>
</linearGradient>
<linearGradient id="paint33_linear_266_468" x1="98.11" y1="383.066" x2="82.1595" y2="366.804" gradientUnits="userSpaceOnUse">
<stop stop-color="#2DEDC6"/>
<stop offset="0.16" stop-color="#56E7D2" stop-opacity="0.74"/>
<stop offset="0.32" stop-color="#7AE2DD" stop-opacity="0.52"/>
<stop offset="0.47" stop-color="#98DEE6" stop-opacity="0.33"/>
<stop offset="0.62" stop-color="#B0DBED" stop-opacity="0.19"/>
<stop offset="0.76" stop-color="#C0D9F2" stop-opacity="0.08"/>
<stop offset="0.89" stop-color="#CBD7F5" stop-opacity="0.02"/>
<stop offset="1" stop-color="#CED7F6" stop-opacity="0"/>
</linearGradient>
<linearGradient id="paint34_linear_266_468" x1="366.481" y1="188.496" x2="434.795" y2="228.622" gradientUnits="userSpaceOnUse">
<stop stop-color="white" stop-opacity="0"/>
<stop offset="0.15" stop-color="#CBD7FA" stop-opacity="0.25"/>
<stop offset="0.31" stop-color="#9BB2F5" stop-opacity="0.47"/>
<stop offset="0.47" stop-color="#7493F1" stop-opacity="0.66"/>
<stop offset="0.62" stop-color="#557BEE" stop-opacity="0.81"/>
<stop offset="0.76" stop-color="#3F6AEC" stop-opacity="0.91"/>
<stop offset="0.89" stop-color="#3260EA" stop-opacity="0.98"/>
<stop offset="1" stop-color="#2D5CEA"/>
</linearGradient>
<linearGradient id="paint35_linear_266_468" x1="420.89" y1="170.49" x2="378.56" y2="252.258" gradientUnits="userSpaceOnUse">
<stop stop-color="#DCEBF4"/>
<stop offset="0.02" stop-color="#DBE9F4"/>
<stop offset="0.39" stop-color="#C8D1FA"/>
<stop offset="0.72" stop-color="#BCC2FE"/>
<stop offset="1" stop-color="#B8BDFF"/>
</linearGradient>
<linearGradient id="paint36_linear_266_468" x1="76.1039" y1="109.689" x2="7.79009" y2="149.808" gradientUnits="userSpaceOnUse">
<stop stop-color="white" stop-opacity="0"/>
<stop offset="0.15" stop-color="#CBD7FA" stop-opacity="0.25"/>
<stop offset="0.31" stop-color="#9BB2F5" stop-opacity="0.47"/>
<stop offset="0.47" stop-color="#7493F1" stop-opacity="0.66"/>
<stop offset="0.62" stop-color="#557BEE" stop-opacity="0.81"/>
<stop offset="0.76" stop-color="#3F6AEC" stop-opacity="0.91"/>
<stop offset="0.89" stop-color="#3260EA" stop-opacity="0.98"/>
<stop offset="1" stop-color="#2D5CEA"/>
</linearGradient>
<linearGradient id="paint37_linear_266_468" x1="21.6944" y1="91.683" x2="64.0307" y2="173.451" gradientUnits="userSpaceOnUse">
<stop stop-color="#DCEBF4"/>
<stop offset="0.02" stop-color="#DBE9F4"/>
<stop offset="0.39" stop-color="#C8D1FA"/>
<stop offset="0.72" stop-color="#BCC2FE"/>
<stop offset="1" stop-color="#B8BDFF"/>
</linearGradient>
<linearGradient id="paint38_linear_266_468" x1="130.426" y1="22.968" x2="182.542" y2="53.5768" gradientUnits="userSpaceOnUse">
<stop stop-color="white" stop-opacity="0"/>
<stop offset="0.15" stop-color="#CBD7FA" stop-opacity="0.25"/>
<stop offset="0.31" stop-color="#9BB2F5" stop-opacity="0.47"/>
<stop offset="0.47" stop-color="#7493F1" stop-opacity="0.66"/>
<stop offset="0.62" stop-color="#557BEE" stop-opacity="0.81"/>
<stop offset="0.76" stop-color="#3F6AEC" stop-opacity="0.91"/>
<stop offset="0.89" stop-color="#3260EA" stop-opacity="0.98"/>
<stop offset="1" stop-color="#2D5CEA"/>
</linearGradient>
<linearGradient id="paint39_linear_266_468" x1="171.934" y1="9.22893" x2="139.635" y2="71.6113" gradientUnits="userSpaceOnUse">
<stop stop-color="#DCEBF4"/>
<stop offset="0.02" stop-color="#DBE9F4"/>
<stop offset="0.39" stop-color="#C8D1FA"/>
<stop offset="0.72" stop-color="#BCC2FE"/>
<stop offset="1" stop-color="#B8BDFF"/>
</linearGradient>
<linearGradient id="paint40_linear_266_468" x1="152.79" y1="23.0825" x2="167.927" y2="35.4296" gradientUnits="userSpaceOnUse">
<stop stop-color="#2DEDC6"/>
<stop offset="0.16" stop-color="#56E7D2" stop-opacity="0.74"/>
<stop offset="0.32" stop-color="#7AE2DD" stop-opacity="0.52"/>
<stop offset="0.47" stop-color="#98DEE6" stop-opacity="0.33"/>
<stop offset="0.62" stop-color="#B0DBED" stop-opacity="0.19"/>
<stop offset="0.76" stop-color="#C0D9F2" stop-opacity="0.08"/>
<stop offset="0.89" stop-color="#CBD7F5" stop-opacity="0.02"/>
<stop offset="1" stop-color="#CED7F6" stop-opacity="0"/>
</linearGradient>
<linearGradient id="paint41_linear_266_468" x1="390.118" y1="389.019" x2="338.001" y2="419.635" gradientUnits="userSpaceOnUse">
<stop stop-color="white" stop-opacity="0"/>
<stop offset="0.15" stop-color="#CBD7FA" stop-opacity="0.25"/>
<stop offset="0.31" stop-color="#9BB2F5" stop-opacity="0.47"/>
<stop offset="0.47" stop-color="#7493F1" stop-opacity="0.66"/>
<stop offset="0.62" stop-color="#557BEE" stop-opacity="0.81"/>
<stop offset="0.76" stop-color="#3F6AEC" stop-opacity="0.91"/>
<stop offset="0.89" stop-color="#3260EA" stop-opacity="0.98"/>
<stop offset="1" stop-color="#2D5CEA"/>
</linearGradient>
<linearGradient id="paint42_linear_266_468" x1="348.61" y1="375.287" x2="380.909" y2="437.669" gradientUnits="userSpaceOnUse">
<stop stop-color="#DCEBF4"/>
<stop offset="0.02" stop-color="#DBE9F4"/>
<stop offset="0.39" stop-color="#C8D1FA"/>
<stop offset="0.72" stop-color="#BCC2FE"/>
<stop offset="1" stop-color="#B8BDFF"/>
</linearGradient>
<linearGradient id="paint43_linear_266_468" x1="367.753" y1="389.14" x2="352.609" y2="401.487" gradientUnits="userSpaceOnUse">
<stop stop-color="#2DEDC6"/>
<stop offset="0.16" stop-color="#56E7D2" stop-opacity="0.74"/>
<stop offset="0.32" stop-color="#7AE2DD" stop-opacity="0.52"/>
<stop offset="0.47" stop-color="#98DEE6" stop-opacity="0.33"/>
<stop offset="0.62" stop-color="#B0DBED" stop-opacity="0.19"/>
<stop offset="0.76" stop-color="#C0D9F2" stop-opacity="0.08"/>
<stop offset="0.89" stop-color="#CBD7F5" stop-opacity="0.02"/>
<stop offset="1" stop-color="#CED7F6" stop-opacity="0"/>
</linearGradient>
<clipPath id="clip0_266_468">
<rect width="426.468" height="430" fill="white" transform="translate(0.893555)"/>
</clipPath>
</defs>
</svg>
