<svg width="64" height="64" viewBox="30 30 750 550" fill="none" xmlns="http://www.w3.org/2000/svg">
<g clip-path="url(#clip0_2088_519)">
<path d="M579.649 365.67C587.276 365.67 593.459 359.491 593.459 351.87C593.459 344.249 587.276 338.07 579.649 338.07C572.021 338.07 565.838 344.249 565.838 351.87C565.838 359.491 572.021 365.67 579.649 365.67Z" fill="black"/>
<path d="M196.491 342.804L139.814 486.969H164.752L180.038 447.426H239.09L254.201 486.969H279.345L222.668 342.804H196.491ZM209.063 369.579H209.889L232.215 427.449H186.727L209.053 369.579H209.063Z" fill="black"/>
<path d="M356.945 387.7C349.183 382.626 339.738 380.078 328.601 380.078C317.463 380.078 308.845 382.347 301.083 386.875C293.321 391.403 287.344 397.859 283.154 406.234C278.963 414.608 276.868 424.221 276.868 435.071C276.868 445.921 278.963 455.873 283.154 464.114C287.344 472.355 293.352 478.739 301.186 483.267C309.02 487.794 318.155 490.063 328.601 490.063C337.116 490.063 344.641 488.65 351.164 485.845C357.688 483.029 363.014 479.089 367.143 474.005C371.261 468.931 374.079 463.093 375.596 456.503H353.745C352.372 460.618 349.554 464.197 345.291 467.208C341.028 470.23 335.465 471.736 328.601 471.736C318.847 471.736 311.353 468.343 306.13 461.546C302.094 456.296 299.792 449.458 299.204 441.053H376.618C378.125 429.109 377.165 418.497 373.738 409.235C370.301 399.963 364.707 392.795 356.945 387.71V387.7ZM302.631 414.268C304.964 408.915 308.298 404.831 312.623 402.015C316.947 399.2 322.005 397.797 327.775 397.797C334.371 397.797 339.862 399.344 344.259 402.428C348.656 405.522 351.711 409.637 353.435 414.784C354.488 417.94 354.973 421.333 354.921 424.974H299.751C300.257 421.075 301.217 417.506 302.631 414.268Z" fill="black"/>
<path d="M533.892 384.925C528.122 381.697 521.248 380.088 513.279 380.088C504.34 380.088 497.002 382.079 491.221 386.06C487.02 388.958 483.593 392.898 480.92 397.838V342.804H458.862V486.969H480.92V435.689C480.92 423.612 483.356 414.515 488.238 408.399C493.11 402.294 499.809 399.23 508.335 399.23C515.478 399.23 520.835 401.396 524.406 405.718C527.977 410.039 529.763 416.671 529.763 425.592V486.959H551.821V421.054C551.821 412.401 550.273 405.027 547.186 398.921C544.09 392.815 539.662 388.143 533.892 384.915V384.925Z" fill="black"/>
<path d="M590.776 383.172H568.718V486.969H590.776V383.172Z" fill="black"/>
<path d="M631.795 383.172C624.373 383.172 618.675 385.162 614.691 389.143C610.707 393.125 608.715 398.818 608.715 406.233V486.958H630.773V402.118H665.196V383.172H631.805H631.795Z" fill="black"/>
<path d="M411.774 351.045H389.716V463.897C389.716 471.313 391.708 477.006 395.693 480.987C399.677 484.968 405.375 486.959 412.796 486.959H446.187V468.012H411.764V402.108H446.187V383.162H411.764V351.045H411.774Z" fill="black"/>
</g>
<g clip-path="url(#clip1_2088_519)">
<path d="M429.196 98.0615H375.791C369.639 98.0615 364.034 101.561 361.365 107.063L334.062 163.354C330.646 170.394 335.81 178.561 343.684 178.561H380.528C385.652 178.561 390.323 175.644 392.552 171.057L402.493 150.561L453.43 255.56L384.612 206.083C381.876 204.121 378.593 203.061 375.217 203.061H324.841C318.689 203.061 313.085 206.56 310.416 212.062L277.068 280.855C273.651 287.895 278.816 296.062 286.689 296.062H323.533C328.658 296.062 333.328 293.145 335.557 288.558L362.633 232.744L437.229 289.128C443.181 293.622 450.44 296.062 457.913 296.062H518.311C526.184 296.062 531.349 287.895 527.932 280.855L443.621 107.063C440.952 101.561 435.348 98.0615 429.196 98.0615Z" fill="black"/>
</g>
<defs>
<clipPath id="clip0_2088_519">
<rect width="525.372" height="151.982" fill="white" transform="translate(139.814 338.07)"/>
</clipPath>
<clipPath id="clip1_2088_519">
<rect width="253" height="198" fill="white" transform="translate(276 98.0615)"/>
</clipPath>
</defs>
</svg>
