<svg width="949" height="288" viewBox="0 0 949 288" fill="none" xmlns="http://www.w3.org/2000/svg">
<g clip-path="url(#clip0_2088_318)">
<path d="M758.586 95.6082C766.213 95.6082 772.397 89.4299 772.397 81.8085C772.397 74.1871 766.213 68.0088 758.586 68.0088C750.959 68.0088 744.775 74.1871 744.775 81.8085C744.775 89.4299 750.959 95.6082 758.586 95.6082Z" fill="white"/>
<path d="M375.429 72.7427L318.752 216.907H343.689L358.976 177.365H418.027L433.138 216.907H458.282L401.605 72.7427H375.429ZM388.001 99.517H388.827L411.153 157.387H365.664L387.991 99.517H388.001Z" fill="white"/>
<path d="M535.882 117.638C528.12 112.564 518.676 110.016 507.538 110.016C496.401 110.016 487.782 112.285 480.02 116.813C472.258 121.341 466.282 127.797 462.091 136.172C457.901 144.547 455.805 154.159 455.805 165.009C455.805 175.859 457.901 185.812 462.091 194.052C466.282 202.293 472.289 208.677 480.123 213.205C487.958 217.732 497.093 220.001 507.538 220.001C516.054 220.001 523.578 218.588 530.102 215.783C536.625 212.968 541.951 209.028 546.08 203.943C550.198 198.869 553.016 193.031 554.534 186.441H532.682C531.309 190.556 528.492 194.135 524.229 197.146C519.966 200.168 514.402 201.674 507.538 201.674C497.784 201.674 490.29 198.281 485.068 191.484C481.032 186.234 478.73 179.396 478.142 170.991H555.555C557.062 159.048 556.103 148.435 552.676 139.173C549.239 129.901 543.644 122.733 535.882 117.648V117.638ZM481.569 144.206C483.901 138.853 487.235 134.769 491.56 131.954C495.885 129.138 500.943 127.735 506.713 127.735C513.308 127.735 518.799 129.282 523.197 132.366C527.594 135.46 530.649 139.575 532.373 144.722C533.425 147.878 533.911 151.271 533.859 154.912H478.689C479.194 151.013 480.154 147.445 481.569 144.206Z" fill="white"/>
<path d="M712.829 114.864C707.059 111.636 700.185 110.027 692.217 110.027C683.278 110.027 675.939 112.017 670.159 115.998C665.958 118.896 662.531 122.836 659.858 127.776V72.7427H637.8V216.907H659.858V165.628C659.858 153.55 662.294 144.454 667.176 138.338C672.048 132.232 678.747 129.169 687.272 129.169C694.415 129.169 699.772 131.335 703.344 135.656C706.915 139.978 708.701 146.609 708.701 155.531V216.897H730.758V150.993C730.758 142.339 729.21 134.965 726.124 128.859C723.027 122.754 718.599 118.082 712.829 114.853V114.864Z" fill="white"/>
<path d="M769.713 113.111H747.655V216.908H769.713V113.111Z" fill="white"/>
<path d="M810.732 113.111C803.311 113.111 797.613 115.101 793.629 119.082C789.644 123.063 787.652 128.756 787.652 136.172V216.897H809.71V132.057H844.133V113.111H810.742H810.732Z" fill="white"/>
<path d="M590.712 80.9834H568.654V193.836C568.654 201.251 570.646 206.944 574.63 210.925C578.614 214.907 584.312 216.897 591.733 216.897H625.125V197.951H590.701V132.046H625.125V113.1H590.701V80.9834H590.712Z" fill="white"/>
</g>
<g clip-path="url(#clip1_2088_318)">
<path d="M216.025 72.6943H177.278C172.814 72.6943 168.748 75.239 166.812 79.2391L147.003 120.165C144.524 125.284 148.271 131.221 153.983 131.221H180.715C184.433 131.221 187.821 129.1 189.438 125.765L196.651 110.864L233.607 187.203L183.677 151.231C181.693 149.805 179.311 149.033 176.861 149.033H140.312C135.849 149.033 131.783 151.578 129.846 155.578L105.651 205.594C103.173 210.712 106.92 216.65 112.632 216.65H139.364C143.081 216.65 146.47 214.529 148.087 211.194L167.731 170.615L221.853 211.608C226.171 214.876 231.438 216.65 236.86 216.65H280.68C286.392 216.65 290.139 210.712 287.661 205.594L226.491 79.2391C224.554 75.239 220.488 72.6943 216.025 72.6943Z" fill="#D7FE51"/>
</g>
<defs>
<clipPath id="clip0_2088_318">
<rect width="525.372" height="151.982" fill="white" transform="translate(318.752 68.0088)"/>
</clipPath>
<clipPath id="clip1_2088_318">
<rect width="183.559" height="143.955" fill="white" transform="translate(104.877 72.6943)"/>
</clipPath>
</defs>
</svg>
