<?xml version="1.0" encoding="UTF-8"?>
<svg version="1.1" xmlns="http://www.w3.org/2000/svg" width="176" height="176">
<path d="M0 0 C58.08 0 116.16 0 176 0 C176 58.08 176 116.16 176 176 C117.92 176 59.84 176 0 176 C0 117.92 0 59.84 0 0 Z " fill="#000000" transform="translate(0,0)"/>
<path d="M0 0 C3.52496473 2.73143001 5.77752272 6.02548967 8.1875 9.75 C9.8375 5.46 11.4875 1.17 13.1875 -3.25 C18.7975 -3.25 24.4075 -3.25 30.1875 -3.25 C28.77223154 0.5421937 27.35532514 4.33376224 25.9375 8.125 C25.54175781 9.18589844 25.14601563 10.24679688 24.73828125 11.33984375 C22.30376086 17.84520151 19.79188425 24.31071968 17.1875 30.75 C22.1375 30.75 27.0875 30.75 32.1875 30.75 C32.1875 34.05 32.1875 37.35 32.1875 40.75 C26.2475 40.75 20.3075 40.75 14.1875 40.75 C14.826875 43.163125 15.46625 45.57625 16.125 48.0625 C16.42458618 49.19619019 16.42458618 49.19619019 16.73022461 50.3527832 C17.48213066 53.18123784 18.26175163 55.97275488 19.1875 58.75 C23.4775 59.41 27.7675 60.07 32.1875 60.75 C32.1875 65.37 32.1875 69.99 32.1875 74.75 C23.0507631 75.3621387 15.90416535 75.75304997 8.0078125 70.453125 C6.10317466 68.67110333 5.17690569 67.14540325 4.1875 64.75 C3.5275 64.75 2.8675 64.75 2.1875 64.75 C2.0225 65.45125 1.8575 66.1525 1.6875 66.875 C-0.4802079 71.02977348 -3.82338799 73.37158605 -7.8125 75.75 C-16.94416336 78.47659415 -29.63859698 78.02901733 -38.3515625 74.1953125 C-48.5272566 68.2191112 -53.16483126 60.69300622 -56.8125 49.75 C-56.94229439 46.74396204 -56.85613173 43.76058969 -56.8125 40.75 C-60.4425 40.75 -64.0725 40.75 -67.8125 40.75 C-66.9375 33 -66.9375 33 -65.8125 30.75 C-63.1725 30.75 -60.5325 30.75 -57.8125 30.75 C-57.72613281 29.99976563 -57.63976563 29.24953125 -57.55078125 28.4765625 C-56.20195344 18.65115627 -53.39907104 10.23935819 -45.97265625 3.3515625 C-32.74182101 -6.45791752 -14.3373948 -9.34243145 0 0 Z " fill="#FBFBFB" transform="translate(105.8125,52.25)"/>
<path d="M0 0 C5.73991935 4.23660714 7.30776924 10.24157697 8.625 16.9375 C8.625 18.2575 8.625 19.5775 8.625 20.9375 C-2.925 20.9375 -14.475 20.9375 -26.375 20.9375 C-25.37831367 12.9640094 -24.46436622 7.28752921 -18.25 2 C-12.53660219 -2.09874191 -6.66881328 -2.09944122 0 0 Z " fill="#060606" transform="translate(93.375,62.0625)"/>
<path d="M0 0 C11.55 0 23.1 0 35 0 C31.23076923 15.07692308 31.23076923 15.07692308 25.375 20.375 C20.79729761 22.57907893 16.99447589 22.7971639 12 22 C7.11580012 19.6483482 4.55539445 16.74573255 2 12 C0.63333717 7.97766281 0 4.27227345 0 0 Z " fill="#050505" transform="translate(67,93)"/>
</svg>
