<svg width="64" height="64" viewBox="0 0 64 64" fill="none" xmlns="http://www.w3.org/2000/svg">
<circle cx="32" cy="32" r="32" fill="black"/>
<path d="M47.3445 38.2755H25.8878V26.737H22.5704V39.8787C22.5704 40.7436 23.3147 41.4608 24.2291 41.4608H43.0489L39.1573 44.8359H18.2961V25.7456H22.5279H25.8453H39.774C40.1993 25.7456 40.5821 25.5979 40.8798 25.3448L48.4503 18.7844C48.9606 18.3415 49.1307 17.6243 48.8968 17.0336C48.6416 16.4008 48.025 16 47.3445 16H24.2291C23.3147 16 22.5704 16.7172 22.5704 17.5821V21.5478H25.8665V19.1852H43.0276L39.1361 22.5603H25.8878H22.5704H16.6587C15.7443 22.5603 15 23.2775 15 24.1424V46.4179C15 47.2828 15.7443 48 16.6587 48H39.774C40.1993 48 40.5821 47.8523 40.8798 47.5992L48.4503 41.0389C48.9606 40.5959 49.1307 39.8787 48.8968 39.2881C48.6416 38.6974 48.025 38.2755 47.3445 38.2755Z" fill="#FE4350"/>
</svg>
