<?xml version="1.0" encoding="utf-8"?>
<!-- Generator: Adobe Illustrator 27.3.1, SVG Export Plug-In . SVG Version: 6.00 Build 0)  -->
<svg  width="64" height="64" version="1.1" id="Layer_1" xmlns="http://www.w3.org/2000/svg" xmlns:xlink="http://www.w3.org/1999/xlink" x="0px" y="0px"
	 viewBox="0 0 180 180" style="enable-background:new 0 0 180 180;" xml:space="preserve">
<style type="text/css">
	.st0{clip-path:url(#SVGID_00000058548505455593438680000008046348598637750207_);fill:#24201F;}
	.st1{clip-path:url(#SVGID_00000058548505455593438680000008046348598637750207_);fill:#F1E1D4;}
</style>
<g>
	<defs>
		<circle id="SVGID_1_" cx="90" cy="90" r="86"/>
	</defs>
	<clipPath id="SVGID_00000093172460707327930790000004427529380973186993_">
		<use xlink:href="#SVGID_1_"  style="overflow:visible;"/>
	</clipPath>
	<path style="clip-path:url(#SVGID_00000093172460707327930790000004427529380973186993_);fill:#24201F;" d="M-5.6-5.6h192.3v192.3
		H-5.6C-5.6,122.6-5.6,58.5-5.6-5.6z M73.3,83.1c-2.3-2.4-4.6-4.6-6.9-6.9c-4.9-4.9-10.9-6.6-17.7-5.7c-6.2,0.8-10.9,4-14.2,9.1
		c-3.1,4.7-4,9.9-3.1,15.6c1,5.9,4.1,10.3,8.8,13.7c4.4,3.2,9.5,4.2,14.9,3.3c4.3-0.7,8-2.4,11.1-5.5c2-2.1,4.1-4.1,6.1-6.2
		c0.7-0.8,1.3-0.9,2.1,0c1.5,1.7,3.1,3.3,4.6,4.9c1.3,1.4,2.7,2.7,4.1,4.1c-2.6,2.7-5.1,5.3-7.6,7.9c-1.4,1.5-2.6,3.2-3.4,5.1
		c-1.4,3.1-1.8,6.4-1.7,9.8c0.1,5.4,2.2,10,5.9,13.8c4.1,4.3,9.2,6.4,15.3,6.4c5-0.1,9.4-1.9,13-5c5.9-5.2,8.2-11.9,7-19.8
		c-0.7-4.5-2.7-8.4-5.9-11.6c-2.1-2.2-4.3-4.3-6.4-6.4c2.7-3.3,5.8-6.2,8.7-9.2c0.8-0.8,1.4-0.8,2.2,0c1,1.1,2.1,2.1,3.1,3.1
		c1.9,1.9,3.6,4,5.9,5.5c4.5,2.9,9.4,3.8,14.6,3c5.3-0.8,9.5-3.5,12.8-7.6c4-5,5.4-10.8,4.2-17.2c-0.9-4.7-3-8.7-6.6-11.9
		c-5-4.4-10.7-5.9-17.2-5c-4,0.6-7.5,2.3-10.5,5.1c-2.6,2.4-5,5-7.6,7.5c-3.2-3.3-6.3-6.8-9.8-10.1c0.4-0.4,0.8-0.6,1.1-1
		c2.5-2.6,5.3-5,7.5-7.9c3.7-5,4.7-10.6,3.7-16.6c-0.6-3.6-2-7-4.5-9.8c-5-5.7-11.4-8.2-19-7.2c-7.1,0.9-12.2,4.7-15.5,11
		c-2.2,4.2-2.6,8.8-1.9,13.5c0.7,4.3,2.4,8.1,5.6,11.1c2.1,2,3.7,4.4,6.1,6.1c0.8,0.6,0.7,1.1,0,1.8C79.4,76.9,76.5,80,73.3,83.1
		L73.3,83.1z"/>
	<path style="clip-path:url(#SVGID_00000093172460707327930790000004427529380973186993_);fill:#F1E1D4;" d="M73.3,83.1
		c3.1-3.1,6.1-6.1,9.1-9.1c0.7-0.7,0.8-1.2,0-1.8c-2.3-1.7-4-4.1-6.1-6.1c-3.2-3-4.9-6.8-5.6-11.1c-0.7-4.7-0.3-9.3,1.9-13.5
		c3.3-6.2,8.4-10.1,15.5-11c7.6-1,13.9,1.4,19,7.2c2.5,2.8,3.8,6.2,4.5,9.8c1,6-0.1,11.6-3.7,16.6c-2.2,2.9-5,5.3-7.5,7.9
		c-0.3,0.3-0.7,0.6-1.1,1c3.5,3.3,6.6,6.7,9.8,10.1c2.6-2.6,5-5.1,7.6-7.5c3-2.7,6.4-4.5,10.5-5.1c6.5-0.9,12.2,0.7,17.2,5
		c3.6,3.2,5.7,7.2,6.6,11.9c1.2,6.4-0.2,12.2-4.2,17.2c-3.2,4.1-7.5,6.7-12.8,7.6c-5.3,0.8-10.2-0.1-14.6-3c-2.3-1.5-4-3.7-5.9-5.5
		c-1.1-1-2.1-2-3.1-3.1c-0.8-0.8-1.4-0.8-2.2,0c-2.9,3-6,5.9-8.7,9.2c2.1,2.1,4.3,4.2,6.4,6.4c3.1,3.3,5.2,7.1,5.9,11.6
		c1.2,7.9-1.1,14.6-7,19.8c-3.6,3.2-8,5-13,5c-6.1,0.1-11.1-2.1-15.3-6.4c-3.7-3.8-5.7-8.4-5.9-13.8c-0.1-3.4,0.3-6.7,1.7-9.8
		c0.8-1.9,1.9-3.6,3.4-5.1c2.5-2.6,5-5.2,7.6-7.9c-1.4-1.4-2.8-2.7-4.1-4.1c-1.6-1.6-3.1-3.2-4.6-4.9c-0.8-0.8-1.3-0.7-2.1,0
		c-2,2.1-4.1,4.1-6.1,6.2c-3.1,3.1-6.8,4.8-11.1,5.5c-5.4,0.9-10.5-0.1-14.9-3.3c-4.6-3.4-7.8-7.8-8.8-13.7c-1-5.7,0-10.9,3.1-15.6
		c3.3-5.1,8-8.3,14.2-9.1c6.8-0.9,12.8,0.8,17.7,5.7C68.7,78.5,70.9,80.8,73.3,83.1L73.3,83.1z M115.1,91.4c1.4,1.3,2.7,2.6,4,3.9
		c1.4,1.3,2.6,2.8,4.1,4c2.7,2.1,5.8,2,9,1.4c3.7-0.7,6.1-3.1,7.2-6.5c1.2-3.5,0.4-6.9-2.2-9.6c-2.7-2.9-6.2-3.2-9.9-2.7
		c-1.6,0.2-3.2,0.5-4.4,1.7C120.5,86.1,117.9,88.6,115.1,91.4L115.1,91.4z M65.4,91.3c-1.4-1.4-2.8-2.6-4-3.9
		c-1.2-1.4-2.4-2.8-3.9-3.9c-3.4-2.6-8.7-2.3-11.8,0.6c-3.3,3-4.2,7.6-2,12c2.4,4.6,8.9,6.5,13.2,3.4C60,97.2,62.4,94,65.4,91.3
		L65.4,91.3z M91.2,141c0.8,0.2,1.6-0.1,2.5-0.4c7.2-2.1,9.3-10.9,4.3-16.1c-1.9-2-3.9-4-5.9-6c-0.5-0.6-1-0.6-1.7,0
		c-1.7,1.8-3.6,3.6-5.3,5.4c-2.5,2.6-3.8,5.5-3.1,9.3C82.6,137.1,86.8,141.2,91.2,141L91.2,141z M91.5,64.5c1.9-1.9,4.3-4,6.4-6.4
		c2.2-2.4,3.2-5.2,2.5-8.5c-1.2-6.1-6.2-8.6-11.6-7.6c-3.6,0.7-5.7,3.3-6.7,6.7c-1,3.5-0.1,6.6,2.4,9.2
		C86.8,60.2,89.2,62.3,91.5,64.5L91.5,64.5z M101.3,91.2c-3.2-3.1-6.2-6.1-9.2-9.1c-0.7-0.7-1.2-0.6-1.8,0.1
		c-1.8,1.9-3.8,3.8-5.6,5.7c-1.1,1.2-2.2,2.4-3.3,3.6c3.5,3.2,6.5,6.8,9.9,10C94.6,98.1,97.7,94.5,101.3,91.2L101.3,91.2z"/>
	<path style="clip-path:url(#SVGID_00000093172460707327930790000004427529380973186993_);fill:#24201F;" d="M115.1,91.4
		c2.8-2.8,5.3-5.4,7.9-7.9c1.2-1.2,2.8-1.5,4.4-1.7c3.6-0.4,7.2-0.1,9.9,2.7c2.6,2.7,3.4,6.1,2.2,9.6c-1.1,3.4-3.5,5.8-7.2,6.5
		c-3.2,0.6-6.3,0.6-9-1.4c-1.5-1.2-2.7-2.6-4.1-4C117.9,94,116.5,92.8,115.1,91.4L115.1,91.4z"/>
	<path style="clip-path:url(#SVGID_00000093172460707327930790000004427529380973186993_);fill:#24201F;" d="M65.4,91.3
		c-3,2.8-5.4,5.9-8.5,8.2c-4.3,3.2-10.8,1.2-13.2-3.4c-2.3-4.4-1.3-9,2-12c3.1-2.9,8.4-3.1,11.8-0.6c1.5,1.1,2.7,2.5,3.9,3.9
		C62.6,88.7,63.9,89.9,65.4,91.3L65.4,91.3z"/>
	<path style="clip-path:url(#SVGID_00000093172460707327930790000004427529380973186993_);fill:#24201F;" d="M91.1,141
		c-4.3,0.2-8.6-3.9-9.2-7.7c-0.6-3.8,0.6-6.7,3.1-9.3c1.8-1.8,3.6-3.6,5.3-5.4c0.6-0.7,1.1-0.6,1.7,0c2,2,3.9,4,5.9,6
		c5,5.2,2.8,14-4.3,16.1C92.8,140.9,91.9,141.2,91.1,141z"/>
	<path style="clip-path:url(#SVGID_00000093172460707327930790000004427529380973186993_);fill:#24201F;" d="M91.5,64.5
		c-2.3-2.2-4.7-4.3-7-6.6c-2.5-2.6-3.5-5.7-2.4-9.2c1-3.4,3.2-6,6.7-6.7c5.5-1,10.4,1.4,11.6,7.6c0.7,3.4-0.3,6.1-2.5,8.5
		C95.8,60.4,93.4,62.6,91.5,64.5L91.5,64.5z"/>
	<path style="clip-path:url(#SVGID_00000093172460707327930790000004427529380973186993_);fill:#24201F;" d="M101.3,91.2
		c-3.6,3.4-6.7,6.9-10.1,10.3c-3.4-3.3-6.4-6.8-9.9-10c1.1-1.2,2.2-2.5,3.3-3.6c1.8-1.9,3.8-3.8,5.6-5.7c0.7-0.7,1.1-0.8,1.8-0.1
		C95.1,85.1,98.2,88,101.3,91.2L101.3,91.2z"/>
</g>
</svg>
