<?xml version="1.0" encoding="utf-8"?>
<!-- Generator: Adobe Illustrator 27.4.1, SVG Export Plug-In . SVG Version: 6.00 Build 0)  -->
<svg width="64" height="64" version="1.1" id="Layer_1" xmlns="http://www.w3.org/2000/svg" xmlns:xlink="http://www.w3.org/1999/xlink" x="0px" y="0px"
	 viewBox="250 176 300 540" style="enable-background:new 0 0 1210.4 898.9;" xml:space="preserve">
<style type="text/css">
	.st0{fill:url(#SVGID_1_);}
	.st1{fill:url(#SVGID_00000124857613603227082760000008201315708292666544_);}
	.st2{fill:url(#SVGID_00000133509706203097403000000004265879237615778980_);}
	.st3{fill:url(#SVGID_00000100356757258700415100000011480620712529454990_);}
	.st4{fill:url(#SVGID_00000017481871600206257010000006860490362617474740_);}
	.st5{fill:url(#SVGID_00000120541462654467191200000015199911457077371070_);}
	.st6{fill:url(#SVGID_00000178896701598922708770000010896999715480723344_);}
	.st7{fill:url(#SVGID_00000160149875744296938620000010118899468667958696_);}
</style>
<g>
	<g>
		<linearGradient id="SVGID_1_" gradientUnits="userSpaceOnUse" x1="262.6439" y1="409.6073" x2="315.7942" y2="300.5575">
			<stop  offset="0" style="stop-color:#FFFFFF"/>
			<stop  offset="1" style="stop-color:#000000"/>
		</linearGradient>
		<path class="st0" d="M292.4,399.7c4.1-6.7,9.1-13,14.7-18.7l41.2-41.2c13.1-13.1,20.4-30.8,20.4-49.3v-73.8L258.5,326.9
			c-23.9,23.9-40.5,53.5-48.1,84.9h-4.7v4.7l73.9,18.2C281.6,422.2,285.9,410.4,292.4,399.7z"/>
		
			<linearGradient id="SVGID_00000020364094210730606940000002992943740928358048_" gradientUnits="userSpaceOnUse" x1="229.3612" y1="459.5237" x2="488.8955" y2="754.2208">
			<stop  offset="0" style="stop-color:#FFFFFF"/>
			<stop  offset="1" style="stop-color:#000000"/>
		</linearGradient>
		<path style="fill:url(#SVGID_00000020364094210730606940000002992943740928358048_);" d="M385.5,598l-78.4-78.5
			c-18.5-18.5-28.7-43-28.7-69.2c0-5.3,0.4-10.5,1.2-15.7l-73.9-18.2v38h0.1c1.1,44,18.7,85.4,49.9,116.5l149.9,149.8v-74.4
			C405.6,628.2,398.3,610.8,385.5,598z"/>
		
			<linearGradient id="SVGID_00000142895381665360304080000011117335411415811760_" gradientUnits="userSpaceOnUse" x1="438.3581" y1="257.7188" x2="493.3412" y2="385.0963">
			<stop  offset="0" style="stop-color:#FFFFFF"/>
			<stop  offset="1" style="stop-color:#000000"/>
		</linearGradient>
		<path style="fill:url(#SVGID_00000142895381665360304080000011117335411415811760_);" d="M563.6,413.5h-4.1
			c-7.2-32-23.9-61.9-48.5-86.5L400.7,216.7v73.8c0,18.5,7.4,36.3,20.5,49.4l41.1,41.1c15.2,15.2,24.8,34.6,27.7,55.5l73.6-18.2
			V413.5z"/>
		
			<linearGradient id="SVGID_00000013179772130468055570000000670921217084635050_" gradientUnits="userSpaceOnUse" x1="545.7283" y1="457.6017" x2="383.31" y2="628.392">
			<stop  offset="0" style="stop-color:#FFFFFF"/>
			<stop  offset="1" style="stop-color:#000000"/>
		</linearGradient>
		<path style="fill:url(#SVGID_00000013179772130468055570000000670921217084635050_);" d="M490,436.5c0.6,4.5,1,9.2,1,13.8
			c0,17.6-4.6,34.6-13.2,49.4v107.2l0,0l29.8-29.8c0,0,0.1-0.1,0.1-0.1l6-6c5.3-5.3,10.2-10.8,14.5-16.4l0,0c0.8-1,1.6-2.1,2.4-3.1
			c21.5-29.2,32.9-63.7,33.1-100h0v-0.1c0-0.2,0-0.5,0-0.7v-32.4L490,436.5z"/>
		
			<linearGradient id="SVGID_00000007416144289097537650000003414815454585446043_" gradientUnits="userSpaceOnUse" x1="363.9632" y1="432.8865" x2="518.0094" y2="603.6769">
			<stop  offset="0" style="stop-color:#FFFFFF"/>
			<stop  offset="1" style="stop-color:#000000"/>
		</linearGradient>
		<path style="fill:url(#SVGID_00000007416144289097537650000003414815454585446043_);" d="M477.1,500.9c-0.3,0.5-0.6,1-1,1.5
			L352.7,379l0,75.1c0,17.7,7,34.7,19.6,47.2l54.2,54.2l0,0l51.3,51.3l0,0V499.7C477.5,500.1,477.3,500.5,477.1,500.9z"/>
		<g>
			<g>
				
					<linearGradient id="SVGID_00000119113915071170610980000001285454336673864844_" gradientUnits="userSpaceOnUse" x1="608.7166" y1="196.0172" x2="258.7032" y2="561.9403">
					<stop  offset="0" style="stop-color:#FFFFFF"/>
					<stop  offset="1" style="stop-color:#000000"/>
				</linearGradient>
				<path style="fill:url(#SVGID_00000119113915071170610980000001285454336673864844_);" d="M368.7,178.1v73.8
					c0,18.5-7.4,36.3-20.4,49.3l-41.2,41.2c-5.6,5.6-10.6,11.9-14.7,18.7c-9.2,15.2-14,32.7-14,50.6c0,26.2,10.2,50.8,28.7,69.2
					l78.4,78.5c12.8,12.8,20,30.2,20,48.4v74.4L255.7,532.4c-31.6-31.6-49.3-73.6-49.9-118.3c-0.6-45.8,18.6-91.7,52.7-125.8
					L368.7,178.1z"/>
				
					<linearGradient id="SVGID_00000093892924522499058430000012245258121701089723_" gradientUnits="userSpaceOnUse" x1="494.2649" y1="623.915" x2="480.3633" y2="286.7988">
					<stop  offset="0" style="stop-color:#FFFFFF"/>
					<stop  offset="1" style="stop-color:#000000"/>
				</linearGradient>
				<path style="fill:url(#SVGID_00000093892924522499058430000012245258121701089723_);" d="M563.6,409.2
					c0.6,37.7-10.9,73.6-33.1,103.8c-0.8,1-1.5,2.1-2.4,3.1c-4.3,5.6-9.3,11.1-14.5,16.4l-6,6c0,0-0.1,0-0.1,0.1l-29.8,29.8
					L426.4,517l35.9-36c5-5,9.6-10.7,13.8-17.1c0.3-0.5,0.6-1,1-1.5c9.1-15.1,14-32.5,14-50.6c0-26.2-10.2-50.8-28.7-69.3
					l-41.1-41.1c-13.1-13.1-20.5-30.9-20.5-49.4v-73.8L511,288.5C544.3,321.8,563,364.6,563.6,409.2z"/>
			</g>
			
				<linearGradient id="SVGID_00000090280190897414469360000007888956853496769431_" gradientUnits="userSpaceOnUse" x1="428.9816" y1="279.2462" x2="619.4183" y2="575.1033" gradientTransform="matrix(1 0 0 1 -158.1291 -67.0745)">
				<stop  offset="0" style="stop-color:#FFFFFF"/>
				<stop  offset="1" style="stop-color:#000000"/>
			</linearGradient>
			<path style="fill:url(#SVGID_00000090280190897414469360000007888956853496769431_);" d="M528.2,516c-4.3,5.6-9.3,11.1-14.5,16.4
				l-6,6c0,0-0.1,0-0.1,0.1l-29.8,29.8L372.3,462.8c-12.5-12.5-19.6-29.5-19.6-47.2l0-75.1L528.2,516z"/>
		</g>
	</g>
</g>
</svg>
