<svg width="64" height="64" viewBox="0 0 64 64" fill="none" xmlns="http://www.w3.org/2000/svg">
<path d="M18.8419 36.4209C20.753 36.4209 22.5171 35.7841 23.9383 34.682L12.2754 23.0233C11.1728 24.4194 10.5358 26.1829 10.5358 28.1179C10.5113 32.698 14.2356 36.4209 18.8419 36.4209Z" fill="#04795B"/>
<path d="M53.5368 28.0933C53.5368 26.1829 52.8997 24.4194 51.7971 22.9988L40.1343 34.6573C41.531 35.7595 43.2951 36.3963 45.2306 36.3963C49.8125 36.4208 53.5368 32.698 53.5368 28.0933Z" fill="#04795B"/>
<path d="M59.4171 15.4306L54.2471 20.5987C55.9623 22.656 56.9914 25.2523 56.9914 28.1425C56.9914 34.633 51.7235 39.899 45.2304 39.899C42.3637 39.899 39.742 38.8703 37.6839 37.1558L32.024 42.8136L26.364 37.1558C24.3059 38.8703 21.7087 39.899 18.8175 39.899C12.3244 39.899 7.05652 34.633 7.05652 28.1425C7.05652 25.2767 8.08564 22.656 9.80079 20.5987L7.1546 17.9534L4.63084 15.4306C1.69067 20.2802 0 25.9382 0 32.0124C0 49.6962 14.3336 64 31.9995 64C49.6653 64 63.9988 49.6717 63.9988 32.0124C64.0479 25.9137 62.3572 20.2557 59.4171 15.4306Z" fill="#04795B"/>
<path d="M55.1779 9.91958C49.371 3.82088 41.1383 0 32.0237 0C22.9089 0 14.7009 3.82088 8.86937 9.91958C8.08539 10.7524 7.32589 11.6342 6.61523 12.5403L31.9992 37.9149L57.3831 12.5159C56.746 11.6341 55.9865 10.7279 55.1779 9.91958ZM32.0237 4.16379C39.5213 4.16379 46.4798 7.05395 51.6986 12.32L32.0237 31.9878L12.3487 12.32C17.5921 7.05395 24.5262 4.16379 32.0237 4.16379Z" fill="#04795B"/>
</svg>
