<?xml version="1.0" encoding="utf-8"?>
<!-- Generator: Adobe Illustrator 27.3.1, SVG Export Plug-In . SVG Version: 6.00 Build 0)  -->
<svg  width="64" height="64" version="1.1" id="Layer_1" xmlns="http://www.w3.org/2000/svg" xmlns:xlink="http://www.w3.org/1999/xlink" x="0px" y="0px"
	 viewBox="0 0 1500 1500" style="enable-background:new 0 0 1500 1500;" xml:space="preserve">
<style type="text/css">
	.st0{clip-path:url(#SVGID_00000005964229196441560100000008641195416976097417_);fill:#14151A;}
	
		.st1{clip-path:url(#SVGID_00000005964229196441560100000008641195416976097417_);fill:url(#SVGID_00000106840631538582458470000005215044418192229543_);}
	
		.st2{clip-path:url(#SVGID_00000005964229196441560100000008641195416976097417_);fill:url(#SVGID_00000016077818390298181400000014789090546719787442_);}
</style>
<g>
	<defs>
		<ellipse id="SVGID_1_" cx="750" cy="750" rx="745" ry="744.5"/>
	</defs>
	<clipPath id="SVGID_00000126314720205566004220000011657024314653129405_">
		<use xlink:href="#SVGID_1_"  style="overflow:visible;"/>
	</clipPath>
	
		<rect x="5" y="5.5" style="clip-path:url(#SVGID_00000126314720205566004220000011657024314653129405_);fill:#14151A;" width="1490" height="1490"/>
	
		<linearGradient id="SVGID_00000054231043280382310960000000599419728391416210_" gradientUnits="userSpaceOnUse" x1="278.1577" y1="707.8936" x2="1221.8424" y2="707.8936" gradientTransform="matrix(1 0 0 -1 0 1500)">
		<stop  offset="0" style="stop-color:#0082FA"/>
		<stop  offset="1" style="stop-color:#00F2FE"/>
	</linearGradient>
	
		<path style="clip-path:url(#SVGID_00000126314720205566004220000011657024314653129405_);fill:url(#SVGID_00000054231043280382310960000000599419728391416210_);" d="
		M392.6,441.8c5.9-7.4,12.1-14.5,18.3-21.5c0.3-0.4,0.9-0.4,1.2-0.8c0.6-0.7,1.5-1.1,2-1.8l0.6-0.7c4.3-4,8.9-8.4,14.2-12.1
		c18.8-14.3,38.3-25.1,58.8-32.2c65.9-23.2,139.4-8.9,196.9,45.5c80.4,75.3,73.2,196.7,9,277.4c-81.1,120.3-220.4,288.1-27.5,438.4
		c34.7,27,60.4,49.3,169.7,80.9c-71.5,13.2-137.7,9.1-211.5-9.8c-52.2-29.5-134.2-92.5-162.1-177.7
		C420.1,898.1,536.5,705,592.8,630.7C670.1,527.8,545,416.4,453,540.8C404.9,605.6,320.7,789,350,925
		c17.1,77.1,39.9,133.4,130.3,210.6c-16.8-9.9-33-21.1-48.8-33.7C221.4,906.3,245.8,603.9,392.6,441.8z"/>
	
		<linearGradient id="SVGID_00000130630353569484569940000015503515554845766062_" gradientUnits="userSpaceOnUse" x1="278.1576" y1="791.1131" x2="1221.8424" y2="791.1131" gradientTransform="matrix(1 0 0 -1 0 1500)">
		<stop  offset="0" style="stop-color:#0082FA"/>
		<stop  offset="1" style="stop-color:#00F2FE"/>
	</linearGradient>
	
		<path style="clip-path:url(#SVGID_00000126314720205566004220000011657024314653129405_);fill:url(#SVGID_00000130630353569484569940000015503515554845766062_);" d="
		M1107.4,1059.2c-5.9,7.4-12.1,14.5-18.3,21.5c-0.3,0.3-0.9,0.4-1.2,0.8c-0.6,0.7-1.5,1.1-2,1.8l-0.6,0.7c-4.3,4-8.9,8.4-14.2,12.1
		c-18.8,14.3-38.3,25.1-58.8,32.2c-65.9,23.1-139.4,8.9-196.9-45.5c-80.4-75.3-73.2-196.7-9-277.4
		c81.1-120.3,220.4-288.1,27.5-438.4c-34.7-27-60.4-49.3-169.7-80.9c71.5-13.2,137.7-9.1,211.5,9.8
		c52.2,29.4,134.2,92.5,162.1,177.7c42.2,129.1-74.3,322.2-130.5,396.5c-77.3,102.9,47.8,214.3,139.8,89.9
		c48.1-64.8,132.3-248.2,103-384.2c-17.1-77.1-39.9-133.4-130.3-210.6c16.8,9.9,33,21.1,48.8,33.7
		C1278.6,594.6,1254.2,897.1,1107.4,1059.2z"/>
</g>
</svg>
