<?xml version="1.0" encoding="UTF-8"?>
<svg  width="64" height="64" id="Layer_1" data-name="Layer 1" xmlns="http://www.w3.org/2000/svg" xmlns:xlink="http://www.w3.org/1999/xlink" viewBox="0 0 980.15 980.15">
  <defs>
    <style>
      .cls-1 {
        fill: #27a985;
      }

      .cls-2 {
        fill: #20b492;
      }

      .cls-3 {
        fill: #148e7f;
      }

      .cls-4 {
        fill: #2ee2aa;
      }

      .cls-5 {
        fill: #199c86;
      }

      .cls-6 {
        fill: #fff;
      }

      .cls-7 {
        fill: #189a85;
      }

      .cls-8 {
        fill: #11857a;
      }

      .cls-9 {
        fill: #258d71;
      }

      .cls-10 {
        fill: #29b38a;
      }

      .cls-11 {
        fill: #159080;
      }

      .cls-12 {
        fill: #8d9799;
      }

      .cls-13 {
        fill: #23bd96;
      }

      .cls-14 {
        fill: #28a581;
      }

      .cls-15 {
        fill: #2ab68c;
      }

      .cls-16 {
        fill: #1f6456;
      }

      .cls-17 {
        fill: #27c99d;
      }

      .cls-18 {
        fill: #1fb090;
      }

      .cls-19 {
        fill: #199e87;
      }

      .cls-20 {
        fill: #21b794;
      }

      .cls-21 {
        fill: #107f77;
      }

      .cls-22 {
        fill: #546366;
      }

      .cls-23 {
        fill: #2bd6a4;
      }

      .cls-24 {
        fill: #1ba289;
      }

      .cls-25 {
        fill: #148d7e;
      }

      .cls-26 {
        fill: #24c199;
      }

      .cls-27 {
        fill: #118178;
      }

      .cls-28 {
        fill: #179683;
      }

      .cls-29 {
        fill: #13897c;
      }

      .cls-30 {
        fill: #2ddea8;
      }

      .cls-31 {
        fill: #c5cacb;
      }

      .cls-32 {
        fill: #2ad2a1;
      }

      .cls-33 {
        fill: #2ab58b;
      }

      .cls-34 {
        fill: #24bf98;
      }

      .cls-35 {
        fill: #248b70;
      }

      .cls-36 {
        clip-path: url(#clippath);
      }

      .cls-37 {
        fill: #192d31;
      }

      .cls-38 {
        fill: none;
      }

      .cls-39 {
        fill: #2ab68d;
      }

      .cls-40 {
        fill: #2fe4ab;
      }

      .cls-41 {
        fill: #24876d;
      }

      .cls-42 {
        fill: #1eab8d;
      }

      .cls-43 {
        fill: #2cdaa6;
      }

      .cls-44 {
        fill: #526164;
      }

      .cls-45 {
        fill: #8c9698;
      }

      .cls-46 {
        fill: #2ddca7;
      }

      .cls-47 {
        fill: #248a6f;
      }

      .cls-48 {
        fill: #28cd9f;
      }

      .cls-49 {
        fill: #1ca88c;
      }

      .cls-50 {
        fill: #29d1a1;
      }

      .cls-51 {
        fill: #2bd7a4;
      }

      .cls-52 {
        fill: #179582;
      }

      .cls-53 {
        fill: #26c79c;
      }

      .cls-54 {
        fill: #1f5b50;
      }

      .cls-55 {
        fill: #206556;
      }
    </style>
    <clipPath id="clippath">
      <circle class="cls-38" cx="490.07" cy="490.08" r="490.07"/>
    </clipPath>
  </defs>
  <g class="cls-36">
    <g>
      <path class="cls-6" d="m513.07-.82c154.47,0,308.94.02,463.41-.09,3.75,0,4.6.84,4.59,4.59-.11,154.47-.09,308.94-.09,463.41-.51.34-.97.28-1.38-.16-3.2-6.92-2.01-14.45-2.66-21.66-2.91-32.13-8.97-63.63-18.02-94.55-8.63-29.5-20.03-57.94-34.25-85.17-17.79-34.08-39.28-65.68-64.35-94.91-30.93-36.06-66.59-66.56-106.4-92.32-30.76-19.9-63.47-35.83-97.9-48.34-37.31-13.56-75.78-21.87-115.15-26.3-7.76-.87-15.59-1.08-23.36-1.84-1.47-.14-2.98-.4-4.27-1.28-.44-.42-.49-.88-.16-1.39Z"/>
      <path class="cls-6" d="m980.98,513.08c0,154.47-.02,308.94.09,463.41,0,3.75-.84,4.6-4.59,4.59-154.47-.11-308.94-.09-463.41-.09-.34-.51-.28-.97.16-1.38,5.11-1.77,10.53-1.31,15.76-1.7,53.64-3.97,105.03-16.91,154.4-38.09,44.08-18.92,84.39-44.04,121.04-74.89,45.02-37.89,81.94-82.6,111.11-133.74,29.54-51.8,48.55-107.23,57.71-166.07,2.22-14.29,4.1-28.65,4.47-43.15.08-3,.51-5.97,1.86-8.72.42-.44.88-.49,1.39-.16Z"/>
      <path class="cls-6" d="m-.83,467.09c0-154.55.02-309.11-.1-463.66C-.93-.18-.19-.92,3.42-.92c154.55.11,309.11.1,463.66.1.34.51.28.97-.16,1.38-3.97,1.41-8.18,1.55-12.27,1.79-25.18,1.45-49.97,5.45-74.53,10.95-39.21,8.8-76.74,22.43-112.53,40.65-33.08,16.84-63.88,37.21-92.19,61.29-12.18,10.36-24.21,20.9-35.33,32.4-30.95,32.01-57.54,67.26-79,106.38-25.54,46.57-43.4,95.82-52.81,148.09-3.57,19.83-6.31,39.78-6.81,59.97-.04,1.66.08,3.35-.9,4.84-.42.45-.88.5-1.39.16Z"/>
      <path class="cls-6" d="m467.08,980.98c-154.55,0-309.11-.02-463.66.1-3.6,0-4.35-.74-4.34-4.34.11-154.55.1-309.11.1-463.66.51-.34.97-.28,1.38.17,1.94,6.12,1.14,12.53,1.67,18.77,2.92,34.32,9.5,67.88,19.38,100.85,13.58,45.34,33.75,87.59,59.81,127,15.17,22.94,32.35,44.32,51.17,64.47,26.74,28.63,56.34,53.76,88.96,75.33,45.42,30.02,94.57,51.64,147.38,65,23.95,6.06,48.21,10.23,72.74,12.76,6.58.68,13.21,1.68,19.91,1.29,1.81-.1,3.69-.18,5.34.88.45.42.5.88.16,1.39Z"/>
      <path class="cls-45" d="m-.83,485.08v-12c.61-.31,1.11-.19,1.51.37,1.33,3.75,1.33,7.51,0,11.26-.4.56-.91.68-1.52.37Z"/>
      <path class="cls-45" d="m-.83,507.08v-12c.61-.31,1.11-.19,1.51.37,1.33,3.75,1.33,7.51,0,11.26-.4.56-.91.68-1.52.37Z"/>
      <path class="cls-45" d="m980.98,495.08v12c-.61.31-1.11.19-1.51-.37-1.33-3.75-1.33-7.51,0-11.26.4-.56.91-.68,1.52-.37Z"/>
      <path class="cls-45" d="m473.08-.82h12c.31.61.19,1.11-.37,1.51-3.75,1.33-7.51,1.33-11.26,0-.56-.4-.68-.91-.37-1.52Z"/>
      <path class="cls-45" d="m507.07,980.98h-12c-.31-.61-.19-1.11.37-1.51,3.75-1.33,7.51-1.33,11.26,0,.56.4.68.91.37,1.52Z"/>
      <path class="cls-45" d="m485.07,980.98h-12c-.31-.61-.19-1.11.37-1.51,3.75-1.33,7.51-1.33,11.26,0,.56.4.68.91.37,1.52Z"/>
      <path class="cls-45" d="m980.98,473.08v12c-.61.31-1.11.19-1.51-.37-1.33-3.75-1.33-7.51,0-11.26.4-.56.91-.68,1.52-.37Z"/>
      <path class="cls-22" d="m484.95,0c.03-.28.07-.55.12-.82h11c.3.66.14,1.18-.47,1.58-3.65,1.11-7.27,1.85-10.66-.75Z"/>
      <path class="cls-12" d="m496.13.11c-.09-.31-.11-.62-.06-.93h11c.3.64.16,1.16-.43,1.55-3.58,1.14-7.13,1.75-10.51-.62Z"/>
      <path class="cls-44" d="m485.07,980.98c-.05-.28-.09-.55-.12-.83,3.42-2.45,6.83-2.45,10.25,0-.03.28-.07.56-.12.83h-10Z"/>
      <path class="cls-44" d="m980.15,484.96c.29-.02.56.03.83.12v10c-.27.1-.55.14-.83.12-2.45-3.42-2.45-6.83,0-10.25Z"/>
      <path class="cls-31" d="m473.08-.82c.02.29,0,.59-.06.88-2.01,1.78-4,1.8-5.99-.03.03-.28.05-.56.05-.84h6Z"/>
      <path class="cls-31" d="m507.07,980.98c-.02-.29,0-.59.06-.88,2.01-1.78,4-1.8,5.99.03-.03.28-.05.56-.05.84h-6Z"/>
      <path class="cls-31" d="m473.02,980.11c.06.29.08.58.06.88h-6c0-.28-.02-.56-.05-.84,1.99-1.84,3.98-1.81,5.99-.03Z"/>
      <path class="cls-31" d="m507.13.05c-.06-.29-.08-.58-.06-.87h6c0,.28.02.56.05.84-1.99,1.84-3.99,1.82-5.99.03Z"/>
      <path class="cls-31" d="m980.1,507.14c.29,0,.58-.03.88-.06v6l-.42.08-.42-.03c-1.84-1.99-1.81-3.98-.03-5.99Z"/>
      <path class="cls-31" d="m980.98,473.08c-.29-.03-.58-.05-.88-.06-1.78-2.01-1.8-4,.03-5.99.29-.06.57-.04.84.05v6Z"/>
      <path class="cls-31" d="m.04,473.03c-.29,0-.58.03-.88.06v-6c.28-.09.56-.11.84-.05,1.84,1.99,1.81,3.98.03,5.99Z"/>
      <path class="cls-31" d="m-.83,507.08c.29.03.58.05.88.06,1.78,2.01,1.8,4-.03,5.99l-.42.03-.42-.08v-6Z"/>
      <path class="cls-44" d="m0,495.2c-.29.02-.56-.03-.83-.12v-5c.6-.32,1.09-.2,1.49.35.78,1.73.95,3.38-.66,4.78Z"/>
      <path class="cls-44" d="m.06,490.08h-.89v-5c.27-.1.55-.14.83-.12,1.65,1.69,1.62,3.4.06,5.12Z"/>
      <path class="cls-37" d="m.06,490.08c-.02-1.71-.04-3.42-.06-5.12.01-3.98.03-7.95.04-11.93-.01-2-.02-3.99-.03-5.99,6.02-126.61,54.32-235.04,143.53-324.29C232.54,53.71,341.37,7.2,467.03.02c2,.01,3.99.02,5.99.03,3.98-.02,7.96-.03,11.93-.05,3.73.04,7.45.07,11.18.11,3.67-.02,7.33-.04,11-.06,2,0,3.99-.02,5.99-.03,14.83,1.39,29.75,2.15,44.47,4.31,31.09,4.56,61.73,11.37,91.44,21.83,15.84,5.58,31.34,11.94,46.68,18.82,26.59,11.93,51.38,26.88,75.35,43.26,11.15,7.62,21.68,16.11,32.24,24.57,16.44,13.17,31.47,27.86,45.82,43.16,14.34,15.29,27.57,31.6,39.74,48.71,9.12,12.82,17.8,25.95,25.62,39.6,9.1,15.89,17.54,32.12,24.69,49.06,6.02,14.28,11.86,28.6,16.75,43.29,6.69,20.1,11.93,40.62,15.87,61.41,2.3,12.13,3.94,24.42,5.36,36.73,1.25,10.74,1.25,21.58,2.98,32.26-.01,2-.02,3.99-.03,5.99.01,3.98.03,7.95.04,11.93,0,3.42,0,6.83,0,10.25-.01,3.98-.03,7.95-.04,11.93.01,2,.02,3.99.03,5.99-2.26,21.72-3.9,43.46-7.89,65.02-4.66,25.19-10.85,49.89-19.32,74-11.68,33.21-26.65,64.87-45.25,94.86-12.8,20.64-27.01,40.23-42.33,58.97-13.42,16.43-28.32,31.62-43.96,45.93-21.97,20.11-45.61,38.17-70.89,54-9.15,5.73-18.45,11.18-27.97,16.29-17.68,9.5-35.82,17.94-54.49,25.28-21.5,8.45-43.5,15.26-66,20.47-16.89,3.91-33.95,6.89-51.15,9.14-12.56,1.64-25.14,2.47-37.76,3.05-2-.01-3.99-.02-5.99-.03-3.98.01-7.95.03-11.93.04-3.42,0-6.83,0-10.25,0-3.98-.01-7.95-.03-11.93-.04-2,.01-3.99.02-5.99.03-8.41-.39-16.89-.29-25.23-1.29-8.86-1.06-17.72-2.31-26.56-3.62-9.64-1.43-19.15-3.34-28.69-5.21-12.33-2.42-24.47-5.6-36.5-9.14-24.89-7.32-49-16.69-72.41-27.91-28.41-13.62-55.23-29.89-80.47-48.66-10.47-7.79-20.54-16.17-30.28-24.93-10.08-9.06-20.4-17.89-29.6-27.83-16.42-17.76-32.18-36.03-46.33-55.76-18.17-25.33-33.71-52.07-46.89-80.25-10.17-21.73-18.33-44.2-25.06-67.25-4.53-15.51-8.51-31.14-11.52-46.95-1.88-9.87-3.39-19.87-4.47-29.93-1.37-12.75-2.93-25.45-3.01-38.29.01-2,.02-3.99.03-5.99-.01-3.98-.03-7.95-.04-11.93.02-1.71.04-3.42.06-5.12Z"/>
      <path class="cls-40" d="m165.18,586.98c-8.92-11.76-15.16-24.78-18.71-39.11-.55-2.24.29-4.68-1.12-6.75.44-2.03.59-4.05-.09-6.07-2.23-25.43,5.96-47.64,21.7-67.1,13.66-16.88,30.85-29.07,51.62-36.17,8-2.74,15.96-4.8,24.42-4.76,3.25-.88,6.57-.18,9.85-.4,1.78.14,3.59-.34,5.33.37,19.22,1.68,37.59,6.62,55.07,14.73,23.46,10.89,44.38,25.74,64.63,41.63.75.59,1.55,1.13,2.32,1.69,7.85,3.8,13.64,10.32,20.45,15.5,7.76,5.92,14.92,12.61,23.03,18.11,34.08,27.67,67.81,55.81,104.41,80.16,24.51,16.31,51.16,27.59,80.59,31.57,4.11.56,8.26.84,12.39,1.31,4.08.02,8.15,0,12.22-.01,34.76-2.07,64.65-15.67,90.91-38.1,15.21-13,28.11-27.87,37.91-45.35,10.07-17.96,16.01-37.28,18.52-57.65,1.28-10.39,2.29-20.83,2.06-31.34.06-1.78.02-3.56-.57-5.28-1.63-15.94-4.61-31.53-10.33-46.61-10.72-28.23-31.73-44.76-59.74-53.59-8.93-2.81-18.17-3.94-27.46-4.79-5.66-.81-11.31-.74-16.96-.03-19.54,2.48-38.5,7.03-56.48,15.3-10.02,4.6-19.18,10.53-27.96,17.12-2.35,1.76-4.51,4.02-7.78,4.09-2.3-1.37-3.67-3.42-4.4-5.95-.56-5.75-5.26-9.1-8.33-13.17-5.46-7.23-10.8-14.53-15.94-21.99-.12-.49-.01-.94.32-1.32,8.41-7.04,17.63-12.94,27.05-18.47,19.66-11.55,40.95-19.04,63.13-23.9,8.77-1.92,17.73-3.29,26.77-3.64,2.09-.74,4.26-.2,6.38-.37,5.25.24,10.53-.5,15.77.42,83.6,4.15,144.04,61.68,147.95,146.94.97,1.59-.11,3.5.78,5.11,0,6.66,0,13.32,0,19.97-.87,1.61.18,3.51-.77,5.11-.98,19.05-4.73,37.57-9.9,55.91-4.74,16.8-11.58,32.66-19.66,48.01-5.13,9.74-11.31,18.9-18.44,27.31-15.12,17.83-32.14,33.63-52.01,46.07-23.89,14.95-49.49,25.88-77.45,30.37-7.08,1.14-14.27,2.49-21.57,2-4.81-.74-9.65-.13-14.48-.33-2.19.18-4.43-.4-6.59.38-34.19-2.62-65.85-13.4-95.72-29.83-19.56-10.76-37.51-23.92-55.15-37.51-18.04-13.91-36.02-27.9-53.92-41.99-8.13-6.4-16.01-13.12-24-19.7-6.12-3.69-11.1-8.84-16.78-13.1-5.83-4.38-11.37-9.13-17.13-13.6-1.44-1.12-2.83-2.31-3.57-4.06-.55-5.23-.7-5.32-6.08-3.67-4.43-1.68-7.87-4.89-11.62-7.59-15.41-11.11-31.32-21.26-49.4-27.64-9-3.18-18.32-4.67-27.66-6.25-3.2-.78-6.4-.83-9.59.03-14.67,3.51-27.31,10.25-36.53,22.6-12.32,16.5-12.79,34.87-1.28,51.87,1.11,1.64,2.57,3.08,3.11,5.07-.02,3.31-2.22,5.56-4.28,7.58-9.1,8.9-17.9,18.08-26.56,27.4-1.18,1.27-2.32,2.94-4.52,2.53-.38-.33-.76-.66-1.14-.98-3.61-1.58-5.83-4.36-7-8.06Z"/>
      <path class="cls-4" d="m215.16,623.83c-9.86-2.82-18.38-8.24-26.68-14.01-2.93-2.04-5.55-4.54-8.31-6.84,1.17-5.13,5.39-8.17,8.55-11.77,6.79-7.72,13.01-15.94,20.31-23.2,1.51-1.5,2.84-3.32,5.22-3.59,6.96,3.53,13.67,7.52,20.22,11.78-.12,6.34-3.51,11.68-5.91,17.16-3.77,8.63-6.61,17.6-10.4,26.2-.71,1.62-.89,3.61-2.99,4.26Z"/>
      <path class="cls-30" d="m503.08,377.27c5.61-4.83,11.23-9.66,16.84-14.5,1.51-1.3,3.1-2.42,5.11-2.78,10.09,13.4,21.49,25.82,30.41,40.11.05.86-.15,1.73-.78,2.25-6.4,5.27-12.15,11.39-19.59,15.34-1.44-.08-2.54-.88-3.36-1.94-8.58-11.21-18.1-21.65-26.75-32.8-1.19-1.54-3.3-3.12-1.88-5.67Z"/>
      <path class="cls-40" d="m555.18,400.14c-5.93-7.48-11.86-14.95-17.77-22.44-3.38-4.27-6.7-8.58-10.09-12.84-1.16-1.46-2.09-2.98-2.29-4.87,6.36-6.92,13.94-12.26,22-16.98.01.37.02.73.04,1.1,7.12,10.37,14.42,20.62,22.61,30.19,1.2,1.4,1.52,3.24,2.38,4.8-.15,2.61,3.22,3.47,3.03,6.1-1.44,4.63-6.19,5.75-9.2,8.72-2.76,1.89-5.27,4.11-8.1,5.9-.83.38-1.67.74-2.61.32Z"/>
      <path class="cls-46" d="m215.16,623.83c6.32-15.86,12.64-31.72,18.95-47.59,5.18-.4,9.82.88,13.78,4.35,1.41,7.07.77,14.13-.24,21.16-1.31,9.13-1.33,18.42-3.52,27.44-.46.83-1.12,1.41-2.05,1.65-9.21-1.44-18.41-2.88-26.92-7.02Z"/>
      <path class="cls-18" d="m426.04,444.98c3.9-5.16,9.63-8.35,14-13,9.8,12.13,20.89,23.12,31.06,34.93,1.08,1.25,2.4,2.34,2.56,4.16-2.95,5.89-7.71,9.85-13.57,12.6-1.81-.14-3.09-1.28-4.11-2.56-8.57-10.8-19.67-19.22-28.17-30.07-1.42-1.81-3.43-3.38-1.77-6.06Z"/>
      <path class="cls-51" d="m243.11,629.92c1.3-11.1,2.79-22.17,3.83-33.29.5-5.42.15-10.93.18-16.39.51-.81,1.32-1.13,2.2-1.34,2.9-.33,5.82-.1,8.73-.22.9,0,1.78.11,2.65.37,3.49,1.54,3.31,4.9,3.19,7.7-.35,8.18.97,16.16,2.21,24.16.76,4.91.46,9.91,1.33,14.82.33,1.84-.14,3.62-1.31,5.16-5.66,0-11.32.02-16.98.03-1.88-1.08-4.2.47-6.02-1Z"/>
      <path class="cls-32" d="m266.11,630.89c-.36-11.87-1.92-23.62-3.74-35.32-.67-4.28.89-8.49-.19-12.75-.35-1.38-.38-2.63-2.12-2.78,3.17-3.9,7.88-3.34,12.11-4.21,3.69,5.64,4.73,12.29,6.86,18.51,3.01,8.76,6.36,17.4,9.26,26.2.46,1.4,1.32,2.71.76,4.28-5.94,2.72-12.27,4.08-18.66,5.2-1.43.25-2.85.58-4.27.88Z"/>
      <path class="cls-17" d="m289.04,624.81c-6.84-15.76-12.07-32.08-16.93-48.53,2.35-2.84,5.47-4.18,9.03-4.67,2.31.59,3.62,2.38,4.57,4.28,6.21,12.42,13.1,24.5,19.24,36.96.66,1.33,1.29,2.69,1.27,4.24-5.28,3.56-11.26,5.57-17.17,7.72Z"/>
      <path class="cls-43" d="m503.08,377.27c2.17,6.32,7.56,10.28,11.34,15.41,5.68,7.69,12.66,14.32,18.05,22.26.62.91,1.76,1.46,2.65,2.18-2.08,4.39-5.73,6.97-10.08,8.76-2.26.17-3.75-1.22-5.03-2.73-8.95-10.6-17.98-21.14-26.88-31.79-1.3-1.55-2.58-3.15-1.08-5.3,3.87-2.68,6.55-6.86,11.02-8.78Z"/>
      <path class="cls-23" d="m492.05,386.05c-.54,3.43,2.44,4.98,4.11,7.02,8.16,9.96,16.57,19.72,24.93,29.51,1.06,1.24,2.19,2.56,4.08,2.54-1.56,5.13-6.1,7.15-10.13,9.71-3.82-.4-5.4-3.77-7.41-6.16-7.79-9.27-15.94-18.23-23.67-27.55-1.43-1.73-3.35-3.45-1.94-6.14,3.34-2.98,6.68-5.96,10.02-8.94Z"/>
      <path class="cls-2" d="m338.21,595.1c-3.37,3.85-7.35,6.89-12.01,9.01-.71.32-1.34.1-1.74-.47-8.93-12.58-17.9-25.12-26.59-37.86-.55-.81-.95-1.76-1.15-2.75,1.55-4.45,5.34-6.21,9.32-7.75,1.71-.11,2.79.89,3.68,2.15,9.16,12.81,19.27,24.9,28.49,37.66Z"/>
      <path class="cls-50" d="m482.03,394.99c.35,4.18,3.63,6.74,6.08,9.35,8.79,9.36,16.51,19.63,25.26,29.01.4.43,1.16.52,1.75.76-1.55,4.42-5.33,6.54-9.03,8.75-3.1.14-4.79-2.15-6.45-4.1-8.7-10.19-17.77-20.06-26.37-30.35-1.01-1.21-2.53-2.39-1.18-4.3,2.54-3.89,6.3-6.44,9.95-9.12Z"/>
      <path class="cls-42" d="m338.21,595.1c-4.46-2.24-6.87-6.64-9.46-10.36-6.3-9.04-13.86-17.12-19.83-26.38-.7-1.08-1.31-2.37-2.93-2.33,1.91-4.57,5.2-7.47,10.13-8.4,9.92,11.28,19.16,23.13,29.13,34.38,1.46,1.65,3.33,3.48,1.91,6.16-2.58,2.83-5.43,5.3-8.93,6.94Z"/>
      <path class="cls-49" d="m426.04,444.98c-.43,4.04,3.11,5.82,5.19,8.07,9.43,10.22,19.27,20.08,28.96,30.07-.91,4.4-3.84,6.58-8.06,7.35-2.43-1.16-4.52-2.92-6.35-4.77-9.75-9.8-20.21-18.83-30.01-28.56-.59-.59-1.16-1.21-.75-2.16,3-4.08,7.82-6.15,11.03-9.99Z"/>
      <path class="cls-34" d="m448.03,425c3-2.67,6.01-5.35,9.01-8.02,9.43,11.94,19.89,22.96,30.07,34.24,1.31,1.45,2.61,3,3.33,4.91-1.14,4.32-4.71,5.95-8.32,7.55-5.16-1.52-7.57-6.3-10.89-9.78-7.18-7.53-14.2-15.24-20.8-23.3-1.33-1.63-3.18-3.06-2.4-5.6Z"/>
      <path class="cls-20" d="m448.03,425c3.64,6.79,9.42,11.86,14.42,17.5,6.31,7.11,12.39,14.49,19.73,20.63-1.19,4.75-4.48,7.15-9.08,8.08-6.48-8.62-14.51-15.84-21.47-24.03-3.11-3.65-6.44-7.11-9.6-10.71-1.11-1.26-1.84-2.76-1.98-4.48,2.05-3.02,5.65-4.28,7.98-6.98Z"/>
      <path class="cls-26" d="m306.21,617.1c-2.86-2.72-3.57-6.63-5.41-9.92-5.1-9.11-9.75-18.48-14.52-27.77-1.37-2.67-2.77-5.27-5.18-7.16,2.52-3.31,5.53-5.72,9.98-5.56,5.77,9.44,11.98,18.62,17.55,28.17,2.26,3.86,5.56,7.03,7.16,11.3.57,1.51,1.85,2.82,1.22,4.64-3.61,2.1-7.21,4.2-10.82,6.3Z"/>
      <path class="cls-48" d="m472.08,404.11c.49,3.62,3.72,5.41,5.73,7.86,7.64,9.3,15.81,18.17,23.84,27.15,1.18,1.32,2.26,2.95,4.38,2.96-.11,2.97-3.14,3.63-4.46,5.66-1.06.98-2.15,1.93-3.67,2.14-1.87.11-3.05-1.01-4.18-2.28-9.19-10.41-18.53-20.69-27.54-31.26-1.25-1.47-2.91-2.85-2.09-5.18,2.26-2.8,4.2-5.96,7.98-7.04Z"/>
      <path class="cls-53" d="m464.1,411.14c3.77,7.09,10.11,12.08,14.99,18.27,5.09,6.45,10.87,12.36,16.35,18.5.7.79,1.61,1.13,2.64,1.17.56,2.13-1.39,2.6-2.41,3.68-1.86,1.08-2.76,3.77-5.54,3.33-6.59-7.17-13.23-14.3-19.76-21.52-3.77-4.17-7.36-8.49-11.03-12.74-1.22-1.41-2.1-2.97-2.3-4.87,2.13-2.22,3.63-5.2,7.06-5.83Z"/>
      <path class="cls-13" d="m317.03,610.79c-6.67-11.46-13.76-22.66-21.16-33.67-2.09-3.12-3.97-6.47-4.8-10.25.75-3.06,2.63-4.46,5.8-3.94,3.06,4,6.46,7.79,9.11,12.04,6.26,10.06,13.73,19.25,20.23,29.13-2.37,3.17-5.96,4.67-9.18,6.68Z"/>
      <path class="cls-52" d="m367.2,570.1c-2.41,2.94-4.96,5.75-8.1,7.95-9.42-8.83-17.37-19.01-26.02-28.54-1.77-1.95-3.48-3.96-5.4-5.77-1.33-1.26-2.54-2.65-2.33-4.71,1.26-3.17,3.34-5.49,6.68-6.53,1.26.03,2.26.68,2.97,1.62,9.8,12.84,22.24,23.3,32.2,36Z"/>
      <path class="cls-19" d="m415.02,454.98c9.62,9.13,19.35,18.16,28.79,27.47,2.7,2.66,6.52,4.12,8.3,7.74-.81,3.95-3.21,6.3-7.16,7.08-10.27-11.03-22.25-20.25-32.78-30.99-1.42-1.45-3.66-2.56-3.1-5.24,1.98-2.02,3.97-4.04,5.95-6.06Z"/>
      <path class="cls-25" d="m367.2,570.1c-5.13-1.39-6.64-6.62-10.05-9.83-7.51-7.08-14.13-15.11-21.07-22.79-1.31-1.46-1.92-3.54-3.92-4.39.66-3.22,3.02-4.58,5.91-5.37,7.54,5.96,14.14,12.93,20.83,19.79,3.14,3.22,6.51,6.11,9.83,9.1,2.31,2.09,4.74,4.2,5.47,7.5-2.09,2.28-3.78,5.03-6.99,6Z"/>
      <path class="cls-40" d="m214.25,565.03c-4.71,3.71-8.65,8.12-12.45,12.75-7.03,8.55-14.4,16.82-21.63,25.21-2.73-1.88-5.14-4.08-6.85-6.96,6.79-5.19,11.47-12.4,17.57-18.28,6.12-5.9,12.78-11.38,17.28-18.8,3.51.54,5.54,2.57,6.08,6.08Z"/>
      <path class="cls-24" d="m347.15,588.16c-.59-4.06-3.55-6.75-6.06-9.46-6.18-6.65-12.02-13.5-17.38-20.87-2.45-3.36-6.24-5.8-7.67-10.05.14-2.68,1.93-3.82,4.21-4.49,5.79,1.54,8.09,7,11.69,10.85,8.11,8.67,15.4,18.08,23.29,26.96-2.2,2.92-4.85,5.32-8.08,7.07Z"/>
      <path class="cls-8" d="m374.19,564.1c-11.23-11.04-22.47-22.08-33.68-33.15-.93-.91-1.64-2.04-2.45-3.07.09-2.69,1.61-3.93,4.16-4.13,8.65,7.36,17.75,14.2,25.88,22.17,4.09,4.01,9.46,6.74,12.1,12.18-1.69,2.31-3.7,4.3-6.01,5.99Z"/>
      <path class="cls-5" d="m355.22,581.09c-3.32-.51-5.06-3.17-6.75-5.51-6.41-8.91-14-16.79-21.39-24.82-2.13-2.31-2.94-6.26-6.94-6.69.38-3.54,2.98-4.55,5.92-5.17,2.32,5.46,7.25,8.82,10.85,13.24,6.59,8.08,13.94,15.53,21,23.23.71.77,1.15,1.61,1.18,2.66-.77,1.68-2.52,2.11-3.87,3.05Z"/>
      <path class="cls-28" d="m399.12,470.09c1.59-2.38,3.44-4.5,6-5.89,4.15,1.65,6.75,5.3,9.96,8.07,8.64,7.46,17.06,15.19,25.7,22.65,1.59,1.38,2.61,3,2.05,5.24-.47,1.27-1.43,1.98-2.69,2.34-5.35-.5-7.85-5.23-11.59-8.04-10.18-7.65-19.21-16.73-29.43-24.37Z"/>
      <path class="cls-21" d="m380.2,558.11c-7.17-6.31-14.65-12.3-21.38-19.05-4.22-4.23-9.83-6.62-13.56-11.32-1.02-1.29-2.12-2.51-3.18-3.76-.29-1.6.71-2.22,2-2.63,2.04-.2,3.28.86,4.07,2.62,10.86,8.77,21.74,17.51,32.56,26.33,1.64,1.34,3,3.04,4.48,4.58-2.32.07-3.19,2.36-4.99,3.24Z"/>
      <path class="cls-11" d="m399.12,470.09c3.59-.19,5.6,2.63,7.89,4.54,9.96,8.33,19.71,16.92,29.57,25.37.99.85,2.23,1.38,3.36,2.07.49,3.07-2.22,3.37-3.92,4.54-1.49.34-2.49-.44-3.5-1.4-9.83-9.38-20.31-18.02-30.63-26.84-2.14-1.83-5.1-3.46-3.77-7.2.33-.36.67-.72,1-1.08Z"/>
      <path class="cls-21" d="m422.99,519.12c-6.48-2.71-10.95-8.15-16.38-12.26-9.09-6.89-17.64-14.52-26.41-21.83,1.42.03,2.95.55,4.01-.94,1.67-1.3,3.13-.56,4.47.56,10.43,8.66,21.05,17.06,31.6,25.57,2.11,1.7,4.58,3.46,4.57,6.74-.21,1.07-.73,1.88-1.85,2.18Z"/>
      <path class="cls-8" d="m387.01,480.97c1-1.01,2-2.02,2.99-3.03,5.56,1.07,8.86,5.49,12.94,8.74,7.61,6.07,15.01,12.4,22.48,18.65,2.07,1.73,4.55,3.49,4.42,6.8-.51,1.86-1.54,3.15-3.62,3.29-12.36-10.79-25.03-21.22-37.68-31.67-.85-.7-2.06-1.28-1.53-2.77Z"/>
      <path class="cls-7" d="m442.12,500.23c.19-2.45-1.31-3.7-3.02-5.23-11.36-10.23-23.48-19.63-33.98-30.8,1.31-1.05,2.63-2.11,3.94-3.16,5.95,7.01,13.17,12.7,19.72,19.07,5.66,5.5,12.88,9.64,16.38,17.23-.05,1.97-.98,3.02-3.04,2.89Z"/>
      <path class="cls-29" d="m429.13,512.24c-.67-3.82-3.9-5.76-6.45-7.9-10.75-8.97-21.76-17.63-32.67-26.41,1.33-.97,2.65-1.94,3.98-2.91,5.55,1.07,8.77,5.63,12.71,8.93,6.74,5.64,13.19,11.62,20.19,16.98,2.63,2.01,5.84,4.09,5.95,8.16-.56,1.84-1.46,3.29-3.71,3.14Z"/>
      <path class="cls-3" d="m432.16,509.33c-.52-3.68-3.52-5.71-6.03-7.51-11.35-8.18-20.86-18.54-32.14-26.79,1.07-1.61,2.42-2.93,4.13-3.86.75,3.29,3.26,5.09,5.63,7.19,10.26,9.07,21.27,17.3,30.72,27.29.29.31.93.28,1.41.41.46,3.02-1.55,3.22-3.71,3.26Z"/>
      <path class="cls-27" d="m387.01,480.97c12.18,9.22,23,20.1,35.42,29.03,1.79,1.29,2.86,3.17,3.68,5.19.18,1.51-.5,2.16-1.99,2-1.69-5.37-6.68-7.57-10.55-10.8-8.25-6.89-16.7-13.55-25-20.39-1.33-1.1-2.53-2.14-4.37-1.93.44-1.48,1.64-2.29,2.81-3.11Z"/>
      <path class="cls-37" d="m165.18,586.98c2.33,2.69,4.67,5.37,7,8.06-2.31,1.14-4.71,1.9-6.75-.31-2.23-2.42-1.46-5.12-.25-7.75Z"/>
      <path class="cls-15" d="m686.12,297.06c-5.39-.01-10.77-.02-16.16-.03-.28-.23-.35-.42-.22-.57.12-.14.24-.2.36-.2,5.34.22,10.77-1.15,16.02.81Z"/>
      <path class="cls-39" d="m619.96,683.18c5.03.2,10.13-1.07,15.09.68-4.99.03-9.97.06-14.96.08-.32-.12-.45-.27-.38-.46.07-.2.15-.31.25-.31Z"/>
      <path class="cls-15" d="m253.18,427.02c-3.39,0-6.78,0-10.17-.01,3.23-1.85,6.68-.63,10.04-.76.36.11.49.27.42.46-.09.21-.18.31-.28.31Z"/>
      <path class="cls-1" d="m243.11,629.92c1.99.46,4.21-.53,6.02,1-2.35-.02-4.7-.05-7.05-.07.34-.31.69-.62,1.03-.93Z"/>
      <path class="cls-14" d="m145.26,535.04c1.21,2.01,1.46,4.02.09,6.07-.03-2.02-.06-4.04-.09-6.07Z"/>
      <path class="cls-9" d="m619.96,683.18c.04.25.09.51.13.76-2.04-.01-4.08-.03-6.11-.04,1.83-1.59,3.97-.66,5.98-.73Z"/>
      <path class="cls-41" d="m670.1,296.25c-.05.26-.09.52-.14.78-2,0-3.99-.02-5.99-.02,1.88-1.57,4.06-.7,6.13-.75Z"/>
      <path class="cls-41" d="m253.18,427.02c-.04-.26-.09-.51-.13-.77,1.75-.04,3.6-.76,5.14.72-1.67.02-3.34.03-5.01.05Z"/>
      <path class="cls-10" d="m834.85,449.1c-1.42-1.52-.67-3.38-.78-5.11,1.59,1.5.8,3.36.78,5.11Z"/>
      <path class="cls-33" d="m834.08,474.19c.11-1.73-.66-3.58.77-5.11,0,1.74.83,3.61-.77,5.11Z"/>
      <path class="cls-37" d="m424.12,517.19c.66-.67,1.33-1.34,1.99-2,1.28-.7,2.3-1.67,3.02-2.95,1.01-.97,2.02-1.94,3.03-2.92,1.11-1.23,3.22-1.33,3.72-3.26.71-1.99,3.61-1.76,4.06-4,.73-.61,1.46-1.22,2.19-1.84,1.01-.96,2.02-1.93,3.04-2.89,2.32-2.38,4.63-4.77,6.95-7.15,3.32-1.64,5.87-4.16,8.08-7.07,4.64-3.62,9.27-7.24,12.92-11.92,3.3-2.38,6.68-4.68,9.08-8.07,2.55-2.45,5.96-3.93,7.95-7.02,1.63-1.37,3.26-2.75,4.89-4.12,3.8.5,5.89-1.05,6.01-4.98,1.14-2.17,3.33-3.29,5-4.93,3.03-2.66,6.06-5.31,9.09-7.97,3.19-3.17,7.23-5.4,10.06-8.98,3.32-2.67,6.64-5.34,9.95-8.01,6.57-5.79,13.86-10.73,20.05-16.98.64-.29,1.28-.58,1.92-.87,6.89.97,7.04.86,7.99-6.05,3.33-2.67,6.67-5.35,10-8.02,9.27-5.44,17.31-12.66,26.9-17.73,14.05-7.43,28.76-12.89,44.21-16.27,6.83-1.49,13.85-2.13,20.78-3.15,6.06-.75,12.12-.63,18.18-.05,27.57,1.19,51.52,10.97,70.9,30.77,10.78,11.01,16.47,25.05,20.86,39.55,3.51,11.6,5.69,23.5,6.16,35.66.96,1.6-.12,3.51.79,5.11.28,29.62-4.39,58.25-17.99,84.85-10.8,21.13-26.03,38.68-44.58,53.53-15.66,12.54-32.5,22.7-51.72,28.72-9.37,2.94-18.85,5.38-28.71,5.8-2.31.1-4.36,1.77-6.76.92-4.72-.66-9.44-.6-14.17-.03-25.59-1.77-49.56-9.3-72.2-21.01-18.49-9.57-35.22-21.89-51.83-34.38-21.62-16.26-42.57-33.38-63.76-50.18-3.17-2.51-6.88-4.61-9.17-8.19.38-.64.75-1.28,1.13-1.93Z"/>
      <path class="cls-37" d="m344.06,522.07c-.66.64-1.32,1.27-1.99,1.91-1.66.97-2.97,2.31-4.02,3.91-1.97,1.73-3.93,3.46-5.9,5.2-2.36,1.6-4.36,3.58-6.09,5.83-1.97,1.72-3.95,3.45-5.92,5.17-1.69.88-2.96,2.23-4.11,3.7-3.8,2.19-7.01,5.12-10.05,8.24-3.33,1.92-6.47,4.11-9.12,6.93-2.23.87-4.29,2-5.8,3.94-3.69,1.09-6.53,3.76-9.95,5.36-3,1.35-6,2.69-9,4.04-4.02,1.25-8.03,2.51-12.05,3.76-.64-.04-1.28-.08-1.92-.13-3.01-.59-6.03-.57-9.05,0-.66.11-1.32.21-1.98.32-4.33-1.33-8.67-2.66-13-3.99-7.35-2.45-13.52-6.98-19.87-11.21-2.03-2.03-4.05-4.05-6.08-6.08-4.74-5.91-9.14-12.11-10.94-19.57-3.23-13.38-.48-25.83,7.36-36.97,9.41-13.36,22.49-21.27,38.48-24.45,3.38-.6,6.75-.6,10.13,0,12.47,1.08,24.42,4.22,35.9,9.13,19.37,8.28,36.26,20.57,52.98,33.1,1.17.08,2.42.09,2,1.87Z"/>
      <path class="cls-40" d="m572.06,379.1c-7.97-10.97-16.82-21.29-24.15-32.73-.42-.66-.57-1.5-.84-2.26,3.56,1.72,4.51,5.63,6.67,8.45,5.7,7.45,11.33,14.96,17.17,22.31.93,1.17,1.31,2.67,1.16,4.23Z"/>
      <path class="cls-40" d="m344.06,522.07c-.67-.62-1.33-1.25-2-1.87.92-3.43,3.62-2.43,5.43-1.63,2.58,1.15,1.6,3.44.64,5.4-1.44-.45-2.32-2.12-4.07-1.89Z"/>
      <path class="cls-55" d="m685.16,348.01c-6.06.02-12.12.03-18.18.05,6.06-1.43,12.12-1.63,18.18-.05Z"/>
      <path class="cls-47" d="m619.95,632.89c4.73-1.34,9.45-1.38,14.17.03-4.72-.01-9.44-.02-14.17-.03Z"/>
      <path class="cls-35" d="m253.19,477.97c-3.38,0-6.75,0-10.13,0,3.38-1.38,6.75-1.39,10.13,0Z"/>
      <path class="cls-54" d="m783.88,459.1c-1.44-1.52-.69-3.38-.79-5.11,1.59,1.5.77,3.37.79,5.11Z"/>
      <path class="cls-37" d="m565.08,393.22c1.33,2.58,1.86,5.31-.96,7.04-2.31,1.42-5.03,1.76-7.03-.99,2.66-2.02,5.33-4.03,7.99-6.05Z"/>
      <path class="cls-16" d="m249.09,579.91c3.02-1.34,6.03-1.36,9.05,0-3.02,0-6.03,0-9.05,0Z"/>
      <path class="cls-37" d="m501.03,447.01c.86,1.82,1.99,3.9-.12,5.35-1.79,1.23-4.03,1.43-5.89-.37,1.02-.97,2.04-1.93,3.06-2.9.98-.7,1.96-1.39,2.95-2.09Z"/>
    </g>
  </g>
</svg>