<svg width="64" height="64" viewBox="0 0 64 64" fill="none" xmlns="http://www.w3.org/2000/svg">
<g clip-path="url(#clip0_266_906)">
<path d="M32.0376 -0.0188599C14.3502 -0.0188599 0.00927734 14.3081 0.00927734 31.9811C0.00927734 49.6636 14.3502 63.9906 32.0376 63.9906C49.7251 63.9906 64.066 49.6636 64.066 31.9811C64.066 14.3081 49.7251 -0.0188599 32.0376 -0.0188599ZM32.0376 59.9564C16.5812 59.9564 4.05536 47.4297 4.05536 31.9906C4.05536 16.5514 16.5907 4.02473 32.0376 4.02473C47.4846 4.02473 60.0199 16.542 60.0199 31.9906C60.0199 47.4392 47.4941 59.9564 32.0376 59.9564Z" fill="black"/>
<path d="M19.2002 29.6813H17.4419V31.802H19.2002V31.7926C19.3799 31.7926 19.55 31.7455 19.6918 31.6512C19.8431 31.5475 19.9565 31.425 20.0416 31.2648C20.1361 31.1045 20.1834 30.9255 20.1834 30.7275C20.1834 30.4353 20.0889 30.1808 19.8903 29.9829C19.6918 29.785 19.4649 29.6813 19.2002 29.6813Z" fill="black"/>
<path d="M27.4905 29.9169C27.1408 29.7001 26.7437 29.5964 26.2805 29.5964C25.8173 29.5964 25.4108 29.7001 25.0515 29.9169C24.7018 30.1243 24.4276 30.4165 24.2291 30.7746C24.0306 31.1328 23.936 31.5475 23.936 32C23.936 32.4618 24.0306 32.8766 24.2291 33.2347C24.4276 33.5929 24.7018 33.8851 25.0515 34.0925C25.4108 34.2998 25.8173 34.4035 26.2805 34.4035C26.7343 34.4035 27.1408 34.2998 27.4905 34.0925C27.8498 33.8757 28.1239 33.5835 28.3224 33.2253C28.521 32.8671 28.625 32.4524 28.625 32C28.625 31.5381 28.521 31.1328 28.3224 30.7746C28.1239 30.407 27.8403 30.1243 27.4905 29.9169Z" fill="black"/>
<path d="M31.8675 9.18054C19.3511 9.18054 9.20752 19.3131 9.20752 31.8115C9.20752 44.3193 19.3511 54.4612 31.8675 54.4612C44.3839 54.4612 54.5275 44.3193 54.5275 31.8209C54.5275 19.3131 44.3839 9.18054 31.8675 9.18054ZM21.0149 31.7549C20.8258 32.066 20.58 32.311 20.2586 32.4901C19.9467 32.6692 19.5969 32.7635 19.2187 32.7635H17.4415V35.299H16.3543V28.6822H19.2187V28.6916C19.5969 28.6916 19.9372 28.7858 20.2586 28.9649C20.5706 29.144 20.8258 29.3797 21.0149 29.6907C21.204 29.9923 21.2985 30.3411 21.2985 30.7181C21.2985 31.0951 21.204 31.4439 21.0149 31.7549ZM29.4758 33.3384C29.3056 33.7437 29.0693 34.1113 28.7478 34.4129C28.4359 34.724 28.0766 34.9691 27.6512 35.1387C27.2353 35.3084 26.7721 35.3932 26.271 35.3932C25.77 35.3932 25.3068 35.3084 24.8814 35.1387C24.456 34.9596 24.0967 34.724 23.7848 34.4129C23.4728 34.1019 23.2365 33.7437 23.0663 33.3384C22.8961 32.9237 22.8111 32.4713 22.8111 32C22.8111 31.5287 22.8961 31.0763 23.0663 30.671C23.2365 30.2562 23.4728 29.8886 23.7848 29.587C24.0967 29.276 24.456 29.0403 24.8814 28.8707C25.3068 28.6916 25.77 28.6068 26.271 28.6068C26.7721 28.6068 27.2353 28.6916 27.6512 28.8707C28.0766 29.0403 28.4359 29.276 28.7478 29.587C29.0598 29.8981 29.3056 30.2562 29.4758 30.671C29.6459 31.0763 29.731 31.5193 29.731 32C29.731 32.4807 29.6459 32.9237 29.4758 33.3384ZM32.5765 29.6341V34.3658V35.3084H31.4988V34.3658V29.6341V28.6916H32.5765V29.6341ZM40.4134 35.3084H39.4208L35.4976 30.473V32.5561V32.952V35.3084H34.4105V28.6916H35.3842L39.3452 33.6777V31.9529C39.3357 31.5758 39.3263 31.2082 39.3263 30.8689V28.6916H40.4134V35.3084ZM47.0403 29.6719H45.0078V35.3084H43.9207V29.6719H41.9543V28.6916H47.0403V29.6719Z" fill="black"/>
</g>
<defs>
<clipPath id="clip0_266_906">
<rect width="64" height="64" fill="white"/>
</clipPath>
</defs>
</svg>
