<?xml version="1.0" encoding="UTF-8"?>
<svg id="Layer_1" data-name="Layer 1" xmlns="http://www.w3.org/2000/svg" xmlns:xlink="http://www.w3.org/1999/xlink" viewBox="0 0 600 600">
  <defs>
    <style>
      .cls-1 {
        fill: #dfddde;
      }

      .cls-2 {
        fill: #9b2cca;
      }

      .cls-3 {
        fill: #9b979a;
      }

      .cls-4 {
        fill: #504a52;
      }

      .cls-5 {
        fill: #7b777d;
      }

      .cls-6 {
        fill: #4e3464;
      }

      .cls-7 {
        fill: #8d34d5;
      }

      .cls-8 {
        fill: #bfbcbd;
      }

      .cls-9 {
        fill: #817c82;
      }

      .cls-10 {
        fill: #676269;
      }

      .cls-11 {
        fill: #3a343d;
      }

      .cls-12 {
        fill: #4c3567;
      }

      .cls-13 {
        fill: #979396;
      }

      .cls-14 {
        fill: #a229c5;
      }

      .cls-15 {
        fill: #8438dc;
      }

      .cls-16 {
        fill: #736e74;
      }

      .cls-17 {
        fill: #4f4951;
      }

      .cls-18 {
        fill: #cecbcc;
      }

      .cls-19 {
        fill: #7d3ee2;
      }

      .cls-20 {
        fill: #8837d9;
      }

      .cls-21 {
        fill: #656167;
      }

      .cls-22 {
        fill: #cdcacb;
      }

      .cls-23 {
        fill: #5b555d;
      }

      .cls-24 {
        fill: #643aa4;
      }

      .cls-25 {
        fill: #524c54;
      }

      .cls-26 {
        fill: #a427c3;
      }

      .cls-27 {
        fill: #803bdf;
      }

      .cls-28 {
        fill: #645f66;
      }

      .cls-29 {
        fill: #5c575e;
      }

      .cls-30 {
        fill: #b2afb1;
      }

      .cls-31 {
        fill: #817c81;
      }

      .cls-32 {
        fill: #b0adaf;
      }

      .cls-33 {
        fill: #7d3de2;
      }

      .cls-34 {
        fill: #9132d3;
      }

      .cls-35 {
        fill: #a029c6;
      }

      .cls-36 {
        fill: #e1dfdf;
      }

      .cls-37 {
        fill: #928d91;
      }

      .cls-38 {
        fill: #f7f5f4;
      }

      .cls-39 {
        fill: #45334f;
      }

      .cls-40 {
        fill: #9f9b9e;
      }

      .cls-41 {
        fill: #982ecc;
      }

      .cls-42 {
        fill: #6f6a70;
      }

      .cls-43 {
        fill: #949094;
      }

      .cls-44 {
        fill: #cac7c8;
      }

      .cls-45 {
        clip-path: url(#clippath);
      }

      .cls-46 {
        fill: #959195;
      }

      .cls-47 {
        fill: #999598;
      }

      .cls-48 {
        fill: #9e9a9d;
      }

      .cls-49 {
        fill: #6f6a71;
      }

      .cls-50 {
        fill: none;
      }

      .cls-51 {
        fill: #8c34d6;
      }

      .cls-52 {
        fill: #6f349b;
      }

      .cls-53 {
        fill: #b1aeb0;
      }

      .cls-54 {
        fill: #807c81;
      }

      .cls-55 {
        fill: #9f2ac7;
      }

      .cls-56 {
        fill: #989497;
      }

      .cls-57 {
        fill: #e1dfe0;
      }

      .cls-58 {
        fill: #8731bd;
      }

      .cls-59 {
        fill: #cecccc;
      }

      .cls-60 {
        fill: #aba7aa;
      }

      .cls-61 {
        fill: #8638da;
      }

      .cls-62 {
        fill: #813bdf;
      }

      .cls-63 {
        fill: #c8c5c6;
      }

      .cls-64 {
        fill: #c4c1c2;
      }

      .cls-65 {
        fill: #9430d0;
      }

      .cls-66 {
        fill: #a09c9f;
      }

      .cls-67 {
        fill: #69656b;
      }

      .cls-68 {
        fill: #625d63;
      }

      .cls-69 {
        fill: #69646b;
      }

      .cls-70 {
        fill: #6b666d;
      }

      .cls-71 {
        fill: #c6c3c4;
      }

      .cls-72 {
        fill: #6e696f;
      }

      .cls-73 {
        fill: #676369;
      }

      .cls-74 {
        fill: #862ca4;
      }
    </style>
    <clipPath id="clippath">
      <circle class="cls-50" cx="300" cy="300" r="300"/>
    </clipPath>
  </defs>
  <g class="cls-45">
    <g>
      <path class="cls-11" d="m300.02,599.91c-98.44,0-196.89-.02-295.33.08-3.59,0-4.69-.55-4.69-4.5C.12,398.43.12,201.36,0,4.3,0,.59.89,0,4.39,0c197.05.1,394.11.1,591.16.01,3.36,0,4.45.39,4.45,4.24-.13,197.23-.13,394.47-.02,591.7,0,3.5-.8,4.05-4.14,4.05-98.61-.11-197.22-.09-295.83-.09Z"/>
      <path class="cls-38" d="m427.94,301.16c-10.86-.36-18.62-5.3-23.08-15.37-.71-1.59-1.02-3.03-.77-4.67,4.59-1.05,9.17-.98,13.77-.03.81,5.87,7.19,8.34,11.93,8.81,5.72.56,11.3-3.61,13.22-9.12.32-.91.71-1.8,1.07-2.69.78-2.5.23-5.07.33-7.6.04-.89,0-2.05-1.53-1.58-3.28,3.27-7.21,5.08-11.86,5.25-1.98.91-4.21-.23-6.18.75-9.79-1.84-16.91-7.11-20.69-16.45-.95-2.34-1.39-4.9-2.06-7.36.99-2.31-.25-4.86.76-7.17-1.36-9.01,7.2-19.96,17.99-22.87,8.73-2.36,16.55-.57,23.7,6.38-.23-6.62,3.74-6.91,8.29-6.45,1.65.17,3.32.07,4.98.1.82.8.62,1.84.62,2.81,0,17.4.01,34.8,0,52.19,0,.67-.09,1.32-.36,1.94-1.87,10.69-6.87,18.75-17.81,22.34-2.18.71-4.27.16-6.31.79-2.01.52-4.01.52-6.02,0Z"/>
      <path class="cls-38" d="m217.98,278.83c-4.72-.48-8.47-2.91-11.95-5.9-1.11,7.22-.18,14.49-.54,21.73-.09,1.76.65,3.64-.6,5.27-4.25,0-8.49-.01-12.74-.02-.92-.97-.61-2.19-.61-3.32-.02-24.05-.02-48.1,0-72.15,0-1.13-.31-2.35.61-3.32,2.49-.03,4.99,0,7.48-.12,1.96-.1,3.35.02,3.68,2.58.36,2.77,2.29,2.64,4.16,1.28,10.73-7.81,21.22-5.6,30.98,1.49,4.46,3.24,7.22,8.45,8.36,13.96.45,2.2,1.36,4.37,1.34,6.68.53,2.02.56,4.04-.02,6.05-1.97,2.07-1.08,4.9-2.01,7.34-3.97,10.36-10.93,16.84-22.08,18.47-2.02-.56-4.04-.52-6.07-.02Z"/>
      <path class="cls-38" d="m361.86,286.85c2.87-2.97,3.15-6.08,1.58-10.01-6.85-17.26-13.42-34.63-20.06-51.97-.45-1.17-.63-2.45-.96-3.74,4.65,0,9.78-1.35,13.43.4,3.32,1.58,3.42,7.22,4.95,11.06,3.22,8.09,6.24,16.28,9.06,24.52.53,1.55,1.14,3.21,2.42,3.38,2.1.29,1.53-2,1.93-3.21,3.63-10.7,7.28-21.4,10.72-32.16.96-3,2.1-4.66,5.66-4.18,3.26.43,6.63.09,10.4.09-4.43,12.45-8.69,24.58-13.06,36.66-4.27,11.83-8.6,23.65-13.02,35.43-1.83,4.89-5.79,6.81-10.8,6.88-1.83.02-3.66,0-5.5,0q-9.76,0-9.64-9.92c0-.66.09-1.33.14-1.99,4.12-1.7,8.63.59,12.73-1.23Z"/>
      <path class="cls-38" d="m491.88,278.81c-14.82-1.48-25.01-17.06-24.11-26.77-.52-2.02-.52-4.04,0-6.07-.14-16.81,17.11-28.21,32.84-25.19,13.59,2.6,21.43,9.84,23.45,23.48.14.94.67,1.81,1.02,2.72.53,2.02.56,4.04-.02,6.05-1.74,4.97-2.82,10.12-6.1,14.55-5.05,6.82-11.81,10.19-19.99,11.25-2.36-.54-4.72-.5-7.08-.02Z"/>
      <path class="cls-38" d="m279.96,278.83c-13.1-1.57-20.36-9.61-23.83-20.62-.4-1.27-1.63-2.59-.92-4.18.46-3.02.52-6.03-.03-9.05.62-11.83,11.75-22.78,22.25-24.15,13.06-1.71,23.29,1.89,30.64,12.83,2.44,3.63,3.73,7.81,3.99,12.24.66,1.74.63,3.49.02,5.23-.9,14.91-10.72,26.37-26.06,27.7-2.02-.56-4.04-.52-6.07-.02Z"/>
      <path class="cls-38" d="m535.04,221.1c2-.02,4.02.12,5.99-.11,3.72-.45,6.09.66,6.11,5.37,9.82-7.54,19.98-8.51,30.08-2.11,5.81,3.68,8.81,9.53,8.74,16.65.87,11.99.44,23.99.22,35.99-4.08,1.19-8.2.66-12.32.28-1.06-9.24-.15-18.52-.47-27.77-.07-2.14.4-4.31-.38-6.4-4.22-11.97-16.61-12.02-22.54-5.17-1.39,1.6-1.43,3.51-2.39,5.13.49,11.37.69,22.73-.12,34.09l-.09-.07c-4.41.85-8.81.91-13.21-.05-.52-18.17-.14-36.34-.2-54.5,0-.56.35-.9.6-1.32Z"/>
      <path class="cls-38" d="m135.08,362.79c8.45-.34,13.94-4.43,16.1-12.73.57-1.72.6-3.43-.02-5.14-2.31-7.41-8.35-9.66-15.11-10.92-6.14-1.15-12.37-1.98-18.31-4.02-7.2-2.47-12.22-7.03-13.55-14.9.95-1.97-.21-4.2.76-6.17-.68-7.6,5.81-13.16,12.24-15.84,2.48-1.03,5.2-1.48,7.82-2.2,2.7-.62,5.4-.58,8.1-.02,4.44.87,8.72,2.08,12.85,4.07,6.48,3.12,9.28,8.75,10.95,15.16.31,1.17,1.32,3.67-1.46,3.83-1.96.11-4.93,1.05-5.29-2.07-1.04-9.05-7.01-12.44-14.96-13.9-.76-.14-1.44-.72-2.15-1.09-2-.57-4-.54-6-.02-3.06.96-6.35,1.5-9.14,2.97-6.11,3.24-8.43,8.47-6.73,15.76,1.26,5.45,5.7,8.09,10.86,9.41,7.35,1.88,15,2.33,22.23,4.94,8.78,3.17,13.87,8.73,13.59,17.74-.24,7.44-3.03,14.19-10.62,17.7-12.81,5.92-25.31,5.84-36.79-2.78-5.18-3.89-7.71-9.87-8.28-16.46,2.27-.95,4.53-.95,6.8,0,.79,9.32,7.51,15.88,17.07,16.68,3.01-.49,6.03-.49,9.04,0Z"/>
      <path class="cls-38" d="m239.13,315.06c1.79,1.96-.47,5.66,1.76,6.56,2.27.92,2.88-2.75,4.73-4.07,13.24-9.44,30.94-4.02,36.32,11.57.99,2.87,1.51,5.91,2.25,8.87.5,2.01.54,4.01-.02,6.01-1.73,5.16-3.06,10.4-5.79,15.26-6.47,11.52-26.17,13.55-34.17,3.44-.71-.9-1.52-1.73-2.29-2.59-2.73.45-1.19,2.54-1.32,3.82-.54,5.29.71,10.66-.67,15.93h-4.78c-.63-.67-.61-1.5-.61-2.33.07-21.07-.15-42.14.11-63.2,1.67-.81,3.43-2.21,4.49.73Z"/>
      <path class="cls-38" d="m458.02,344.13c.23,9.58,7.74,18.05,16.89,19.05,2.02.44,4.04.56,6.04-.07,6.21-1.05,9.87-5.3,12.94-10.3,2,.15,4.4-1.88,5.87,1.09-3.54,6.56-7.62,12.23-15.53,14.4-17.24,4.74-32.12-8.61-32.25-23.29-.05-5.23-.95-10.62,1.24-15.65,3.95-9.08,10.38-15.2,20.62-16.48,2.39-.6,4.78-.63,7.17.02,9.59,2.04,16.44,7.34,19.18,16.95,1.2,4.21,3.33,8.6.58,13.08-7.68,1.28-15.43.17-23.13.56-6.53.33-13.12-.79-19.61.64Z"/>
      <path class="cls-38" d="m322.02,363.13c6.75-.2,10.21-4.71,13.04-10.01,2.14-.43,4.45-2.05,6.08.9-4.41,11.67-15.27,17.44-28.06,14.93-10.11-1.98-19.65-14.35-19.22-24.92-.58-2.7-.58-5.39,0-8.09-.22-11.03,11.15-24.55,27.14-23.1,11.36,1.03,21.64,10.07,22.06,23.02.64,1.75.64,3.5,0,5.24-.08.61-.16,1.21-.24,1.82-7.85,1.23-15.75.25-23.62.55-6.41.24-12.84-.42-19.25.35.31,10.49,6.95,18.5,16.01,19.29,2.01.6,4.03.57,6.04.02Z"/>
      <path class="cls-38" d="m569.92,363.11c8.54-1.1,12.72-9.39,7.99-14.86-3.08-3.56-7.75-3.37-11.89-4.23-4.57-.94-9.21-1.39-13.43-3.76-8.19-4.6-9.46-17.67-2-23.4,8.11-6.23,27.42-6.23,33.32,5.6,1.04,2.08,1.17,4.29,1.89,6.39-1.94,1.11-3.95.7-5.96.29-1.33-5.84-4.75-9.46-10.86-10.23-2.74-.7-5.48-.67-8.22-.02-3.34.59-6.17,1.94-7.9,5.06-3.07,5.57.77,11.71,7.92,13.06,5.53,1.05,11.06,1.86,16.55,3.53,10.07,3.05,10.71,16.3,5.11,22.46-4.08,4.49-8.97,5.73-14.86,6.12-10.1.67-17.46-2.91-22.42-11.63-.07-.13-.03-.33-.04-.49.01-3.94,1.51-5.79,5.6-3.97,1.2,6.34,6.11,9.83,12.13,10.12,2.35.48,4.7.57,7.04-.05Z"/>
      <path class="cls-38" d="m432.01,332.87c-.5-7.85-6.56-13.81-14.11-13.87-11-.1-17.24,4.73-18.08,13.97-.82,9.85-.11,19.71-.38,29.56-.05,1.77.53,3.62-.53,5.29-1.6.03-3.21.05-4.81.08-1.1-1.3-.61-2.86-.61-4.3.03-16.41-.16-32.82.07-49.22,1.69-1.46,3.47-1.07,5.28-.27.47,1.87-.45,3.92.82,6.09,2.14-1.59,4.06-3.31,6.24-4.58,9.53-5.56,27.04-3.47,31.4,11.31,1.19,4.03,1.77,8.25,1.69,12.54-.14,7.63-.04,15.27-.04,22.9q0,5.65-5.87,5.55c-1.39-4.53-.37-9.17-.61-13.75-.37-7.09.55-14.22-.46-21.3Z"/>
      <path class="cls-38" d="m197.07,363.15c7.7-1.59,12.41-6.63,14.09-15.08.85-9.21.12-18.44.38-27.65.06-2.13-.28-4.29.27-6.4,1.85-.75,3.69-.88,5.5.1.13,17.9.81,35.81-.34,53.7-2.66.36-4.83.86-5.31-3.3-.45-3.89-2.51-2.03-4.43-.35-7,6.11-15.12,6.36-23.24,3.09-5.35-2.15-13.1-11.17-11.78-19.26.78-9.45.12-18.91.34-28.37.04-1.82-.16-3.66.17-5.47,1.74-1.1,3.53-.84,5.33-.18h0c1.11,7.89.19,15.82.51,23.72.14,3.45-.43,6.93.36,10.37-.38,7.84,5.17,14.23,13.1,15.1,1.69.47,3.37.51,5.06-.02Z"/>
      <path class="cls-38" d="m536.77,367.91c-3.59.02-7.19-.03-10.78.09-4.89.16-7.4-2.37-8.22-6.95-.8-11.95-.12-23.91-.37-35.87-.04-1.79.47-3.66-.46-5.38-2.62-.79-5.38.16-8.01-.58-.89-1.66-.5-3.39-.3-5.12,2.62-1.53,5.67.25,8.32-1.07l-.04-.05c1.36-4.62-.22-9.41.86-14.05,1.73-.65,3.47-.69,5.19.03h0c1,3.32.14,6.74.49,10.09.16,1.48-.87,3.29,1.02,4.38,4.15.32,8.33-.35,12.46.37.7,1.73.81,3.46-.06,5.17v-.03c-4.13,1.27-8.41.11-12.6.65-.35.33-.79.58-.79,1.17.07,12.75-.48,25.5.29,38.25.02,1.5.83,2.48,2.11,3.13,3.67.99,7.5-.37,11.16.76.41,1.7.85,3.4-.28,5.01Z"/>
      <path class="cls-14" d="m13.27,272.01c-.05-6.11-.13-12.22-.14-18.33,0-1.28-.24-2.68.97-3.67,6.15,4.2,8.02,11.37,11.79,17.21,1.11,1.71,2.43,3.53,2.7,5.74.22,4.35-.41,8.72.37,13.05,2.07,1.28,4.13,2.56,6.2,3.84,4.27,4.89,7.4,10.56,10.72,16.09,2.23,3.72,1.89,5.22-.9,7.13-4.47-1.12-7.86-4.29-11.88-6.28-7.43-11.12-13.79-22.86-19.83-34.77Z"/>
      <path class="cls-38" d="m372.85,319.91c-6.23.48-9.18,3.23-9.71,9.07.37,12.98.92,25.97-.29,38.94-4.61.96-6.13-.54-6.01-5.55.41-16.08.22-32.18.26-48.27,1.58-.94,3.17-.94,4.76,0,.41,1.51-.55,3.42,1.56,4.59,1.56-2.95,4.03-4.68,7.48-4.81,4.31-.74,8.63-.41,12.95-.18.98,1.74.87,3.5.08,5.27v-.03c-3.58,1.46-7.46-.29-11.07.97Z"/>
      <path class="cls-7" d="m75.91,216.06c.39-3.14,2.65-4.61,5.17-5.86,5.59,4.87,7.78,11.71,10.49,18.24,0,8.77,0,17.54,0,26.3-2.75,3.66-4.49.49-5.76-1.22-2.57-3.45-4.4-7.41-6.51-11.17-1.36-2.42-2.92-4.78-3.71-7.51.19-6.27-.43-12.54.32-18.79Z"/>
      <path class="cls-65" d="m91.18,293.1c-.98,3.63-4.25,4.56-7.07,6.02-4.8-3.68-7.66-8.49-8.53-14.49,0-8.18-.01-16.36,0-24.53,2.07-3.73,3.87-1,5.05.53,3.02,3.91,5.57,8.2,7.51,12.74,1.09,2.55,2.44,4.98,3.4,7.58-.21,4.05.49,8.12-.38,12.14Z"/>
      <path class="cls-62" d="m154.15,257.11c-3.27,4.52-8.16,6.71-13,8.96-5.22-1.08-8.95-7.1-8.15-13.15l4.98-3.08c1.27-5.88.24-11.84.59-17.75,3.16-3.12,4.53.24,5.6,1.97,3.69,5.99,7.99,11.66,10.35,18.4-.08,1.55.38,3.15-.36,4.65Z"/>
      <path class="cls-19" d="m132.14,200.98c6.1,3.38,12.2,6.78,18.31,10.14,1.94,1.07,3.47,2.42,3.7,4.79.87,7.54.16,15.12.39,22.66-1.95,4.34-3.74.78-4.88-.42-2.5-2.64-4.09-6.07-5.85-9.19-4.29-7.61-9.47-14.75-12.65-22.95-.66-1.71-2.18-3.93.98-5.04Z"/>
      <path class="cls-27" d="m134.06,219.81c-4.7-2.61-9.37-5.25-14.09-7.81-1.86-1.01-3.69-2.19-5.94-2.14-5.24-2.69-8.95-9.03-7.95-13.6,7.09-5.75,10.69-5.83,17.03-.35,4.7,4.92,7.57,11.05,11.02,16.78,1.34,2.24,2.51,4.77-.06,7.12Z"/>
      <path class="cls-51" d="m124.15,276.04c-2.04,1.31-4.07,2.64-6.12,3.92-1.28.8-2.77,1.55-4.17.85-4.93-2.47-10.09-4.61-13.93-8.81-.78-5.16-.21-10.36-.32-15.54-.02-.9.29-1.59,1.42-1.33,4.96,2.67,9.32,6.5,15,7.76,4.07,3.54,5.94,8.43,8.12,13.14Z"/>
      <path class="cls-55" d="m28.04,272.01c-2.97-1.02-4.14-3.84-5.28-6.2-2.62-5.43-7.05-9.85-8.66-15.8,3.92-4.92,10.07-6.43,15-9.82,4.63,3.47,7,8.08,7.1,13.87-2.07,2.2-5.63,2.2-7.32,4.96-.97,4.28.56,8.73-.84,12.98Z"/>
      <path class="cls-61" d="m124.15,276.04c-5.34-2.75-6.84-7.88-8.12-13.14,5.28-3.97,11.26-6.75,16.97-9.99,2.42,4.57,4.28,9.48,8.15,13.15-5.36,3.85-11.16,6.95-17,9.98Z"/>
      <path class="cls-33" d="m134.06,219.81c-.11-6.96-5.89-11.19-8.31-17.07-.93-2.26-2.27-4.35-2.65-6.83,3.19,1.37,6.39,2.74,9.04,5.07.13,5.89,4.02,10.21,6.57,15.01,4.01,7.53,8.64,14.74,13.07,22.04.49.8,1.44,1.33,2.17,1.99.98,4,.98,8,0,11.99-4.41-3.93-6.75-9.32-9.92-14.12-1.54-2.34-2.62-4.99-4.81-6.87-1.78-2.74.37-6.04-1.24-8.81-1.77-.05-2.58-1.66-3.92-2.4Z"/>
      <path class="cls-65" d="m46.04,230.92c3.56-3.63,7.28-3.72,11.42-.85,3.09,2.14,6.43,3.92,9.66,5.87.68,5.96.87,11.92-.08,17.87-4.67-2.88-9.86-4.92-14.02-8.64-2.95-2.49-5.34-5.4-6.78-9.03-.68-1.72-1.34-3.43-.21-5.22Z"/>
      <path class="cls-41" d="m46.04,230.92c1.76,5.03,5.8,8.95,6.99,14.26-6.06,2.11-11.04,6.27-16.83,8.89-2.96-4.32-5.53-8.84-7.1-13.87,5.6-3.18,10.81-7.07,16.94-9.28Z"/>
      <path class="cls-26" d="m13.27,272.01c2.88.6,3.69,3.23,4.9,5.29,4.54,7.73,8.84,15.61,13.4,23.33,1.18,1.99,1.62,3.95,1.52,6.15-5.52-3.19-10.99-6.47-16.57-9.54-2.25-1.24-3.5-2.71-3.44-5.4.15-6.61.13-13.22.18-19.83Z"/>
      <path class="cls-35" d="m44.97,313.06c2.1-2.49-.07-4.39-1.09-6.24-2.22-4.05-4.74-7.93-7.18-11.86-.98-1.58-1.68-3.22-1.56-5.12,4.41,2.6,8.81,5.21,13.23,7.78,1.74,1.02,3.58,1.74,5.67,1.25,3.85,3.59,7.25,7.42,7.12,13.17-8.64,6.23-10.21,6.33-16.2,1.02Z"/>
      <path class="cls-20" d="m90.98,227.02c-5.37-4.39-7.74-10.54-9.89-16.82,4.26-2.46,8.19-5.53,12.99-6.98,3.82,3.84,7.44,7.76,6.02,13.88-2.63,1.67-5.26,3.34-7.88,5.01-1.54,1.36.23,3.55-1.23,4.92Z"/>
      <path class="cls-15" d="m100.09,217.09c-1.58-4.81-5.5-8.61-6.02-13.88,3.77-2.71,7.39-5.7,12-6.96,2.65,4.53,5.3,9.07,7.95,13.6-4.95,1.82-8.85,5.67-13.93,7.23Z"/>
      <path class="cls-2" d="m61.17,312.04c-2.59-4.27-6.56-7.8-7.12-13.17,3.18-3.08,7.3-4.61,11.07-6.71,4.97,1.92,8.1,6.93,8.04,12.88-3.61,3-7.83,4.96-11.99,7Z"/>
      <path class="cls-41" d="m73.17,305.04c-2.68-4.29-5.36-8.58-8.04-12.88,3.31-2.11,6.62-4.22,9.93-6.33.38-.46.69-.42.93.13,4.15,3.49,6.4,8.16,8.12,13.15-3.71,1.87-6.84,4.79-10.95,5.92Z"/>
      <path class="cls-31" d="m192.16,221.12c0,26.26,0,52.52,0,78.78-1.74-1.18-1.09-3-1.09-4.56-.04-23.22-.04-46.44,0-69.67,0-1.55-.64-3.37,1.09-4.56Z"/>
      <path class="cls-31" d="m323.1,277.81c-1.6-1.25-1.09-3.04-1.09-4.64-.03-23.15-.03-46.29,0-69.44,0-1.56-.65-3.38,1.07-4.59.46.47.85.99,1.17,1.55,1.09,2,.94,4.19.95,6.34.05,20.96.05,41.91,0,62.87,0,2.15.15,4.35-.93,6.35-.32.57-.71,1.09-1.18,1.55Z"/>
      <path class="cls-67" d="m335.85,199.14c1.52,1.28,1.12,3.04,1.12,4.66.02,23.14.02,46.28,0,69.42,0,1.62.4,3.38-1.12,4.66-.45-.47-.84-1-1.16-1.57-1.08-2-.93-4.2-.94-6.35-.05-20.97-.05-41.93,0-62.9,0-2.15-.14-4.35.94-6.35.32-.57.71-1.1,1.15-1.57Z"/>
      <path class="cls-52" d="m90.98,227.02c.29-1.67-.39-3.58,1.23-4.92-.05,21.75-.08,43.5-.17,65.25,0,1.93.57,4.01-.87,5.75-.07-4.37-.14-8.73-.21-13.1-2.95-8.01-3.72-16.01,0-24.02,0-9.65,0-19.3,0-28.95Z"/>
      <path class="cls-39" d="m75.99,285.97c-.32.03-.63-.02-.93-.13,0-21.32,0-42.63.04-63.95,0-1.97-.39-4.02.82-5.83.11,6.65.22,13.31.34,19.96,2.88,7.67,3.58,15.33,0,23-.09,8.98-.17,17.97-.26,26.95Z"/>
      <path class="cls-47" d="m235.05,314.09l.08,65.76c-1.47-.59-1.08-1.91-1.08-2.98-.03-20.38-.02-40.76,0-61.14,0-.95-.16-2.03.97-2.58.72.29.74.6.04.95Z"/>
      <path class="cls-69" d="m535.04,221.1c0,18.6,0,37.2.01,55.79.37.21.49.43.37.64-.12.22-.24.32-.37.32-1.34-1.12-1.14-2.68-1.14-4.16-.01-16.15-.01-32.3,0-48.45,0-1.46-.31-3.05,1.12-4.14Z"/>
      <path class="cls-67" d="m458.08,278.04c-.09-18.98-.18-37.96-.27-56.94,1.27.94,1.12,2.33,1.12,3.65.01,16.66.02,33.32-.03,49.98,0,1.11-.53,2.21-.82,3.32Z"/>
      <path class="cls-69" d="m394.08,314.14c0,17.92.01,35.85.02,53.77-1.42-1.09-1.12-2.69-1.12-4.14-.02-15.48-.02-30.95,0-46.43,0-1.48-.21-3.04,1.13-4.16.35.22.47.44.34.65-.12.21-.25.31-.37.31Z"/>
      <path class="cls-63" d="m216.97,367.82c-.02-17.89-.03-35.79-.05-53.68.28-.64.59-.65.92-.04.06,17.11.12,34.21.16,51.32,0,.89.38,2.07-1.03,2.4Z"/>
      <path class="cls-63" d="m299.96,343.83c1.77-1.3,3.82-.81,5.75-.82,12.37-.06,24.74-.06,37.11-.08-.34,1.41-1.52,1.03-2.41,1.03-13.48-.02-26.97-.08-40.45-.14Z"/>
      <path class="cls-63" d="m458.02,344.13c1.59-1.74,3.7-1.11,5.6-1.12,12.38-.07,24.76-.06,37.14-.08-1.06,2.03-2.94.99-4.39,1-12.78.14-25.57.15-38.35.2Z"/>
      <path class="cls-31" d="m516.87,319.21c1.38.66,1.03,1.96,1.02,3.04-.02,12.93-.08,25.86-.13,38.79-1.35-1.57-.81-3.47-.83-5.23-.09-11.89-.11-23.78-.15-35.67-.65-.37-.62-.68.08-.93Z"/>
      <path class="cls-24" d="m153.95,252.01c0-4,0-8,0-11.99.07-8.03.14-16.07.21-24.1,1.47,13.73,1.46,27.46,0,41.19-.07-1.7-.14-3.4-.2-5.1Z"/>
      <path class="cls-63" d="m523.77,359.01c-1.47-2.3-.81-4.86-.83-7.31-.08-9.15-.06-18.3,0-27.45,0-1.77-.52-3.71,1.12-5.15.36.21.48.42.37.63-.11.22-.23.33-.34.33-.1,12.98-.2,25.96-.3,38.95Z"/>
      <path class="cls-25" d="m362.84,367.92c.1-12.98.2-25.96.29-38.94,1.6,3.16.73,6.54.79,9.81.14,7.98.07,15.97.03,23.95,0,1.78.43,3.71-1.11,5.18Z"/>
      <path class="cls-1" d="m585.82,276.84c.04-11.98.09-23.97.13-35.95,1.18.55.93,1.65.93,2.6-.04,11.15-.1,22.3-.16,33.44-.35.5-.65.47-.9-.09Z"/>
      <path class="cls-47" d="m212.06,314.09c-.01,9.6.01,19.19-.07,28.79-.01,1.74.66,3.66-.83,5.19-.04-10.61-.1-21.23-.11-31.84,0-1.09-.37-2.38.97-3.08.72.29.74.6.04.95Z"/>
      <path class="cls-63" d="m573,242.99c1.75,3.45.77,7.14.84,10.71.16,7.75.05,15.51.05,23.26.7.33.69.62-.04.88-1.56-.59-.93-1.96-.93-2.98-.02-10.62.04-21.25.07-31.87Z"/>
      <path class="cls-25" d="m432.01,332.87c1.73,1.24.88,3.06.9,4.6.13,10.15.13,20.31.17,30.46-1.41-1.31-1.12-3.04-1.12-4.67,0-10.13.03-20.26.05-30.38Z"/>
      <path class="cls-63" d="m398.9,367.82c.02-9.7.02-19.4.07-29.1,0-1.94-.36-3.97.84-5.75.05,10.82.1,21.63.12,32.45,0,.89.38,2.07-1.03,2.41Z"/>
      <path class="cls-47" d="m178.91,348.08c-1.77-2.75-.77-5.8-.82-8.69-.15-8.46-.05-16.93-.05-25.39,1.29.73.98,2.01.98,3.12-.01,10.32-.07,20.64-.11,30.96Z"/>
      <path class="cls-63" d="m173.15,314.14c-.04,9.54-.05,19.08-.12,28.62-.01,1.77.4,3.65-.82,5.24,0-11.3.01-22.61.02-33.91.33-.54.64-.5.92.04Z"/>
      <path class="cls-9" d="m547.95,277.04c.04-11.36.08-22.73.12-34.09,1.82,6.45.69,13.03.73,19.54.03,4.84,1.17,9.82-.84,14.56Z"/>
      <path class="cls-12" d="m137.98,222.21c2.25,2.68.42,5.93,1.24,8.81-.05,4.76-.06,9.51-.19,14.27-.04,1.55.6,3.34-1.05,4.54,0-9.21,0-18.41,0-27.62Z"/>
      <path class="cls-67" d="m204.9,299.92c.07-8.94.13-17.87.21-26.81,0-.14.17-.4.24-.4.23.02.46.13.69.21,0,7.29.03,14.59-.03,21.88-.02,1.75.57,3.7-1.11,5.12Z"/>
      <path class="cls-74" d="m28.04,272.01c.49-4.31-.81-8.74.84-12.98.02,8.99.05,17.99.07,26.98-1.77-4.57-.41-9.34-.91-14Z"/>
      <path class="cls-47" d="m239.91,379.85c.04-5.96.03-11.93.16-17.89.02-.88-.88-3.35,1.83-1.86-1.9,4.69-.34,9.6-.91,14.37-.22,1.81.92,3.92-1.08,5.38Z"/>
      <path class="cls-6" d="m101.03,255.15c-2.13,5.51-.29,11.27-1.1,16.86-1.76-5.4-.68-10.92-.63-16.38,0-.99.89-1.22,1.73-.48Z"/>
      <path class="cls-58" d="m67.05,253.81c.03-5.96.05-11.92.08-17.87,1.54,5.96,1.68,11.92-.08,17.87Z"/>
      <path class="cls-31" d="m518.06,299.08c-.85,4.6,1.08,9.42-1.15,13.9.66-4.93-1.34-10.06,1.11-14.86.38.2.51.41.4.62-.12.22-.24.33-.36.33Z"/>
      <path class="cls-63" d="m524.01,313.87c-2.38-4.83-.52-9.96-1.06-14.92,2.13,4.5.31,9.31,1.06,13.92.63.33.64.66,0,1Z"/>
      <path class="cls-56" d="m417.86,281.1c-4.59.01-9.18.02-13.77.03,4.58-1.83,9.17-1.81,13.77-.03Z"/>
      <path class="cls-32" d="m573.86,277.84c.02-.29.04-.59.04-.88,3.97-.04,7.95-.08,11.92-.12.3.05.59.08.9.09-4.14,2.29-8.57.64-12.86.91Z"/>
      <path class="cls-53" d="m335.85,276.9c.06.33.06.65,0,.98-4.25-.02-8.5-.04-12.75-.06-.02-.31-.01-.63.02-.94,4.17-2.81,8.59-2.8,12.72.03Z"/>
      <path class="cls-69" d="m524.07,320.07c-.09-.32-.09-.64-.02-.96,4.28-.05,8.55-.11,12.83-.16-4.1,2.24-8.56.43-12.8,1.12Z"/>
      <path class="cls-53" d="m535.06,277.86c-.05-.32-.05-.65,0-.97,4.27.03,8.54.05,12.8.08-4.13,2.25-8.53.59-12.8.89Z"/>
      <path class="cls-56" d="m383.86,314.12c-4.32-.08-8.65-.16-12.97-.24,4.21-1.81,8.6-.59,12.91-.75.64.3.66.63.06.99Z"/>
      <path class="cls-63" d="m335.85,199.14c.07.32.06.64-.02.96-4.11,2.88-8.56,2.88-12.69,0-.08-.32-.09-.64-.04-.96,4.25,0,8.5,0,12.76-.01Z"/>
      <path class="cls-30" d="m361.86,286.85c-4.04,2.48-8.52.47-12.73,1.23,4.04-2.49,8.54-.26,12.73-1.23Z"/>
      <path class="cls-47" d="m524.01,313.87c0-.33,0-.66,0-1,4.24.09,8.49.17,12.73.26.64.29.66.62.06.99-4.26-.08-8.52-.17-12.78-.25Z"/>
      <path class="cls-69" d="m372.85,319.91c3.55-2.04,7.42-.36,11.09-.97-3.54,2.1-7.39.63-11.09.97Z"/>
      <path class="cls-63" d="m536.75,363.05c-3.6-.51-7.36.82-10.86-.91,3.62-.02,7.24-.05,10.87-.07.64.33.64.65,0,.97Z"/>
      <path class="cls-3" d="m442.88,268.91c.75-.6,1.75-.7,1.82.33.19,2.96,1.06,6.01-.62,8.85-.72-3.02,1.01-6.36-1.2-9.18Z"/>
      <path class="cls-63" d="m550.75,353.04c-3.46-.92-4.76,1.2-5.6,3.97-.39-5.76.26-6.22,5.6-3.97Z"/>
      <path class="cls-22" d="m255.18,244.98c1.25,3.01,1.28,6.03.03,9.05,0-3.02-.02-6.03-.03-9.05Z"/>
      <path class="cls-29" d="m135.08,362.79h-9.04c3.01-1.33,6.03-1.13,9.04,0Z"/>
      <path class="cls-69" d="m516.87,319.21c-.02.31-.05.62-.08.93-2.59-.07-5.18-.15-7.77-.22-.58-.34-.59-.69-.03-1.06,2.63.12,5.26.23,7.89.35Z"/>
      <path class="cls-67" d="m341.14,354.02c-1.77-2.01-4.04-.71-6.08-.9,2.26-1.3,4.54-2.65,6.08.9Z"/>
      <path class="cls-5" d="m133.11,290.86c-2.7,0-5.4.01-8.1.02,2.7-1.21,5.4-1.45,8.1-.02Z"/>
      <path class="cls-47" d="m516.94,313.03c-2.42,1.95-5.31.45-7.91,1.08-.6-.38-.58-.73.06-1.05,2.62,0,5.23-.02,7.85-.02Z"/>
      <path class="cls-49" d="m560.78,318.9c2.74-1.35,5.48-1.49,8.22.02-2.74,0-5.48-.01-8.22-.02Z"/>
      <path class="cls-28" d="m499.77,353.9c-1.67-1.9-3.98-.4-5.87-1.09,1.53-1.23,3.32-.88,5.03-.73,1.06.09,1.88.61.84,1.82Z"/>
      <path class="cls-16" d="m293.86,335.94v8.09c-1.45-2.7-1.2-5.39,0-8.09Z"/>
      <path class="cls-59" d="m569.92,363.11c-2.34,1.23-4.68,1.35-7.04.05,2.35-.02,4.69-.03,7.04-.05Z"/>
      <path class="cls-40" d="m481.01,312.9l-7.17-.02c2.39-1.4,4.78-1.39,7.17.02Z"/>
      <path class="cls-13" d="m402.84,243.93c-.16,2.4.9,4.93-.76,7.17.1-2.4-.9-4.93.76-7.17Z"/>
      <path class="cls-17" d="m509.09,313.05c-.02.35-.04.7-.06,1.05-.02,1.59-.03,3.17-.05,4.76.01.35.02.71.03,1.06-1.61-2.31-1.67-4.6.07-6.87Z"/>
      <path class="cls-54" d="m108.97,346.11c-2.27,0-4.53,0-6.8,0,2.27-1.76,4.53-1.76,6.8,0Z"/>
      <path class="cls-64" d="m491.88,278.81c2.36-1.33,4.72-1.14,7.08.02l-7.08-.02Z"/>
      <path class="cls-68" d="m525.05,253.04c0-2.02.01-4.03.02-6.05,1.31,2.02,1.15,4.04-.02,6.05Z"/>
      <path class="cls-43" d="m235.05,314.09c0-.32-.02-.63-.04-.95,1.31.77,4.4-2.3,4.11,1.91-1.04-1.65-2.65-.93-4.07-.96Z"/>
      <path class="cls-46" d="m212.06,314.09c-.01-.32-.02-.63-.04-.95,1.98.06,4.15-1.03,5.82.95-.31-.01-.62,0-.92.04-1.62-.02-3.24-.03-4.86-.05Z"/>
      <path class="cls-46" d="m173.15,314.14c-.31-.04-.61-.05-.92-.04,1.91-1.72,3.85-1.66,5.82-.11-1.63.05-3.27.1-4.9.16Z"/>
      <path class="cls-10" d="m467.77,245.98v6.07c-1.26-2.02-1.16-4.04,0-6.07Z"/>
      <path class="cls-13" d="m104.95,308.92c-.11,2.07.82,4.27-.76,6.17.06-2.08-.82-4.27.76-6.17Z"/>
      <path class="cls-69" d="m579.86,329.15c1.99-.1,3.97-.19,5.96-.29-1.9,1.79-3.91,1.38-5.96.29Z"/>
      <path class="cls-25" d="m427.94,301.16h6.02c-2.01,1.18-4.01,1.18-6.02,0Z"/>
      <path class="cls-18" d="m480.96,363.11c-2,1.13-4.01,1.35-6.04.07,2.01-.02,4.03-.05,6.04-.07Z"/>
      <path class="cls-36" d="m127.05,296.83c2-1.19,4.01-1.16,6,.02-2,0-4-.01-6-.02Z"/>
      <path class="cls-21" d="m383.86,314.12c.03-.33,0-.66-.06-.99,1.66,1.91,1.68,3.86.12,5.84l-.06-4.85Z"/>
      <path class="cls-18" d="m322.02,363.13c-2.02,1.27-4.03,1.2-6.04-.02,2.01,0,4.03.01,6.04.02Z"/>
      <path class="cls-71" d="m279.96,278.83c2.03-1.29,4.05-1.13,6.07.02-2.02,0-4.04-.01-6.07-.02Z"/>
      <path class="cls-4" d="m284.15,343.99c0-2,.01-4.01.02-6.01,1.2,2.01,1.16,4.01-.02,6.01Z"/>
      <path class="cls-71" d="m217.98,278.83c2.03-1.29,4.05-1.13,6.07.02-2.02,0-4.04-.01-6.07-.02Z"/>
      <path class="cls-54" d="m424.84,274.9c1.88-1.71,4.1-.65,6.18-.75-1.91,1.49-4.1.65-6.18.75Z"/>
      <path class="cls-73" d="m536.75,363.05c.09-.32.09-.65,0-.97,1.64,1.94,1.73,3.89.02,5.84,0-1.62-.01-3.24-.02-4.86Z"/>
      <path class="cls-68" d="m248.15,253.04c0-2.02.01-4.03.02-6.05,1.3,2.02,1.15,4.04-.02,6.05Z"/>
      <path class="cls-21" d="m536.8,314.12c.03-.33,0-.66-.06-.99,1.67,1.91,1.69,3.86.12,5.84-.02-1.62-.04-3.23-.07-4.85Z"/>
      <path class="cls-8" d="m312.09,251.14c0-1.74-.01-3.49-.02-5.23,1.26,1.74,1.53,3.48.02,5.23Z"/>
      <path class="cls-66" d="m151.16,344.92c1.29,1.71,1.4,3.42.02,5.14,0-1.71-.01-3.43-.02-5.14Z"/>
      <path class="cls-47" d="m394.08,314.14c-.03-.32-.02-.64.03-.96,1.62.1,3.49-1.05,4.74.93-1.59,0-3.18.02-4.76.03Z"/>
      <path class="cls-44" d="m197.07,363.15c-1.68,1.09-3.37,1.2-5.06.02,1.69,0,3.37-.02,5.06-.02Z"/>
      <path class="cls-63" d="m343.06,341.11c0-1.75,0-3.5,0-5.24,1.47,1.75,1.46,3.5,0,5.24Z"/>
      <path class="cls-63" d="m518.06,299.08c-.09-.32-.1-.64-.04-.96,1.67.17,3.56-1,4.94.84-1.63.04-3.27.08-4.9.12Z"/>
      <path class="cls-47" d="m361.85,314.1c-1.59,0-3.17,0-4.76,0,1.58-1.68,3.17-1.68,4.76,0Z"/>
      <path class="cls-11" d="m444.08,249.11c-1.67,8.17-7.32,13.61-14.42,13.88-4.91.19-11.21-5.38-13.51-11.94.46-2.36.54-4.72-.05-7.08,1.41-5.78,4.29-10.13,10.73-11.02,2.08-.68,4.15-.69,6.22,0,6.28,1.04,9.31,5.34,11,10.98.62,1.72.57,3.44.03,5.16Z"/>
      <path class="cls-72" d="m416.1,243.98c1.16,2.35,1.39,4.71.05,7.08-.02-2.36-.03-4.72-.05-7.08Z"/>
      <path class="cls-23" d="m433.05,232.96c-2.07,0-4.15,0-6.22,0,2.08-1.53,4.15-1.48,6.22,0Z"/>
      <path class="cls-48" d="m444.08,249.11c-.01-1.72-.02-3.44-.03-5.16,1.26,1.71,1.38,3.43.03,5.16Z"/>
      <path class="cls-11" d="m234.13,252.11c-2.25,9.51-7.06,14.57-16.93,13.99-4.88-.28-7.59-3.36-9.82-6.62-3.95-5.77-2.84-17.75,2.15-22.83,5.15-5.24,18.36-5.53,22.85,4.25.86,1.88,1.18,4,1.74,6.02.59,1.73.59,3.46,0,5.18Z"/>
      <path class="cls-37" d="m234.13,252.11c0-1.73,0-3.46,0-5.18,1.38,1.73,1.28,3.46,0,5.18Z"/>
      <path class="cls-11" d="m510.92,249.18c.84,8.23-7.09,17.06-14.82,17.16-8.25.11-15.52-9.1-15.25-16.86.35-9.94,5.86-16.22,14.65-16.53,10.01-.35,16.26,8.53,15.42,16.22Z"/>
      <path class="cls-11" d="m268.84,247.01c.06-8.2,7.75-15.37,16.48-13.98,7.57,1.21,12.89,6.39,13.31,16.59.35,8.54-6.28,16.05-13.59,16.38-9.09.41-15.37-5.01-16.17-13.97-.57-1.67-.52-3.34-.03-5.01Z"/>
      <path class="cls-57" d="m268.84,247.01c.01,1.67.02,3.34.03,5.01-1.12-1.66-1.17-3.33-.03-5.01Z"/>
      <path class="cls-11" d="m240.88,337.92c-.37-9.14,6.03-17.26,14.99-19.03,2.08-.62,4.17-.64,6.25.02,7.3.53,13.7,9.05,15.06,16.45,1.28,6.97.08,13.16-3.2,19.01-3.64,6.49-11.56,10.57-16.77,9.27-9.46-2.37-15.22-8.46-16.16-17.1-.09-.82-.13-1.65-.19-2.48-.52-2.05-.56-4.1.02-6.14Z"/>
      <path class="cls-72" d="m262.12,318.91c-2.08,0-4.17-.01-6.25-.02,2.09-1.38,4.17-1.49,6.25.02Z"/>
      <path class="cls-60" d="m240.88,337.92c0,2.05-.02,4.09-.02,6.14-1.25-2.05-1.32-4.1.02-6.14Z"/>
      <path class="cls-11" d="m480.05,318.91c8.18.68,14.12,7.91,14.91,15.79.08.76.53,1.49.8,2.23-11.71,1.25-23.46.22-35.18.55-1.82.05-2.08-1.28-2.49-2.53,1.82-8.7,6.52-14.58,15.73-16.03,2.08-.67,4.15-.65,6.23-.01Z"/>
      <path class="cls-67" d="m458.1,334.95c1.25,1.95,3.16,2.07,5.24,2.06,10.81-.07,21.62-.06,32.43-.08-.48,1.67-1.89,1.02-2.89,1.02-10.44.05-20.88.02-31.32.04-2.12,0-4.2.12-3.46-3.05Z"/>
      <path class="cls-70" d="m480.05,318.91c-2.08,0-4.16,0-6.23.01,2.08-1.4,4.15-1.52,6.23-.01Z"/>
      <path class="cls-11" d="m322.12,318.9c8.85,1.71,15.06,9.32,14.71,18.03-12.3.94-24.6.87-36.91.05.28-9.23,6.27-16.45,14.97-18.05,2.41-.68,4.81-.65,7.22-.02Z"/>
      <path class="cls-67" d="m299.92,336.98c12.3-.02,24.6-.03,36.91-.05-.3.32-.61.92-.91.92-11.94.06-23.87.06-35.81.06-.14,0-.4-.17-.4-.24.02-.23.14-.46.21-.69Z"/>
      <path class="cls-42" d="m322.12,318.9c-2.41,0-4.82.01-7.22.02,2.4-1.32,4.81-1.59,7.22-.02Z"/>
      <path class="cls-34" d="m76.24,259.02c0-7.67,0-15.33,0-23,4.99,2.77,6.31,8.22,9.06,12.6,1.67,2.66,2.76,5.68,5.67,7.35,0,8.01,0,16.01,0,24.02-2.85-.42-3.26-3.01-4.37-4.95-3.18-5.52-5.38-11.67-10.36-16.03Z"/>
      <path class="cls-38" d="m323.13,200.11c4.23,0,8.46,0,12.69,0,0,25.6.02,51.2.02,76.8-4.24,0-8.48-.02-12.72-.03,0-25.59,0-51.17,0-76.76Z"/>
    </g>
  </g>
</svg>