<?xml version="1.0" encoding="UTF-8"?>
<svg width="64" height="64" viewBox="20 15 89 89" fill="none" xmlns="http://www.w3.org/2000/svg">
<path d="M0 0 C3.04914122 -0.28765483 5.95903717 -0.42114054 9 0 C10.5625 2 10.5625 2 12 5 C13.24035777 6.25991296 14.51569718 7.48576355 15.8125 8.6875 C18.92554339 11.67556719 21.00739074 14.52270174 23.0625 18.3125 C25.70546654 22.99290167 27.85037803 24.22426829 33 26 C37.43304752 28.79177403 40.82896973 31.15547395 43 36 C43.66 36.99 44.32 37.98 45 39 C44.86762186 43.89799117 42.14881331 46.46718507 39 50 C38.34 50.99 37.68 51.98 37 53 C35.515 53.495 35.515 53.495 34 54 C32.41441619 55.63502936 32.41441619 55.63502936 30.9375 57.5625 C29.40234375 59.50390625 29.40234375 59.50390625 28 61 C27.34 61 26.68 61 26 61 C24.7223345 62.95407356 24.7223345 62.95407356 23.4375 65.4375 C20.54745692 70.47361468 17.10589631 74.16691982 12.85546875 78.08984375 C10.77312442 79.9569964 10.77312442 79.9569964 10 83 C2.69035533 83.48730964 2.69035533 83.48730964 -0.125 81.5 C-1.053125 80.2625 -1.053125 80.2625 -2 79 C-2.47179688 78.38253906 -2.94359375 77.76507813 -3.4296875 77.12890625 C-4.48221506 75.74386376 -5.5238277 74.35046285 -6.5546875 72.94921875 C-7.70672867 71.39551998 -8.9079968 69.87835689 -10.125 68.375 C-12 66 -12 66 -13.9375 62.8125 C-16.28901786 59.60588474 -17.39713941 59.38531799 -21 58 C-26.49878818 54.78852287 -31.98271225 51.51227705 -34.5 45.4375 C-35.14158821 42.76498508 -35.22244854 41.50663391 -34.11328125 38.98046875 C-32.85050457 37.17921072 -31.49196279 35.61315865 -30 34 C-29.34 33.01 -28.68 32.02 -28 31 C-26.9790625 30.7525 -26.9790625 30.7525 -25.9375 30.5 C-24.9784375 30.2525 -24.9784375 30.2525 -24 30 C-23.67 29.01 -23.34 28.02 -23 27 C-21.33927151 26.31867549 -19.672233 25.65257873 -18 25 C-16.44280038 22.66420057 -15.21540343 20.50676957 -14 18 C-12.78459657 15.49323043 -11.55719962 13.33579943 -10 11 C-9.67 10.01 -9.34 9.02 -9 8 C-8.34 7.67 -7.68 7.34 -7 7 C-6.34 6.01 -5.68 5.02 -5 4 C-4.319375 3.835 -3.63875 3.67 -2.9375 3.5 C-1.9784375 3.2525 -1.9784375 3.2525 -1 3 C-0.67 2.01 -0.34 1.02 0 0 Z " fill="#3F3F73" transform="translate(59,20)"/>
<path d="M0 0 C3.69924008 0.7926943 5.05629054 2.02597394 7.8359375 4.44433594 C10.54239486 6.56788846 13.61792839 7.8867036 16.75 9.25 C18.07205022 9.84669197 19.39366383 10.44435225 20.71484375 11.04296875 C21.35663574 11.33091309 21.99842773 11.61885742 22.65966797 11.91552734 C25.23480386 13.08318647 27.77700534 14.31136071 30.3125 15.5625 C31.08207031 15.94019531 31.85164063 16.31789063 32.64453125 16.70703125 C34.5 17.75 34.5 17.75 36.5 19.75 C36.29296875 21.84375 36.29296875 21.84375 35.6875 24.25 C35.49542969 25.0440625 35.30335937 25.838125 35.10546875 26.65625 C34.5 28.75 34.5 28.75 33.5 30.75 C32.84 30.75 32.18 30.75 31.5 30.75 C31.4071875 31.5853125 31.4071875 31.5853125 31.3125 32.4375 C29.97882921 36.23333226 27.07659173 38.96170413 23.5 40.75 C20.4183385 41.22829324 17.57121156 41.32717597 14.5 40.75 C12.09767697 38.95927756 11.11912937 37.36149899 9.5 34.75 C9.5 34.09 9.5 33.43 9.5 32.75 C12.8 33.08 16.1 33.41 19.5 33.75 C14.50559485 30.83441794 9.44073542 28.17194667 4.25 25.625 C-3.09775087 22.01816609 -3.09775087 22.01816609 -6.5 19.75 C-6.5 19.09 -6.5 18.43 -6.5 17.75 C-7.49 17.75 -8.48 17.75 -9.5 17.75 C-9.17 16.43 -8.84 15.11 -8.5 13.75 C-7.51 14.08 -6.52 14.41 -5.5 14.75 C-5.83 12.77 -6.16 10.79 -6.5 8.75 C-7.49 8.42 -8.48 8.09 -9.5 7.75 C-4.82233883 1.03335832 -4.82233883 1.03335832 0 0 Z " fill="#020207" transform="translate(45.5,55.25)"/>
<path d="M0 0 C8.93279922 1.1165999 16.13011791 3.26042068 24 7.625 C24.77472656 8.04523437 25.54945312 8.46546875 26.34765625 8.8984375 C28.23614356 9.92428246 30.11871 10.96101484 32 12 C31.67 17.94 31.34 23.88 31 30 C28.09261897 31.45369052 26.26033542 31.29639413 23 31 C19.85607399 29.94779896 16.95409571 28.49674183 14 27 C12.91332031 26.45601562 11.82664062 25.91203125 10.70703125 25.3515625 C4.97280058 22.38401714 0.45300962 19.73610473 -4 15 C-6.74587131 12.64639602 -8.56270161 11.14576613 -12 10 C-12 9.01 -12 8.02 -12 7 C-11.34 7 -10.68 7 -10 7 C-10 7.66 -10 8.32 -10 9 C-8.68 9 -7.36 9 -6 9 C-4.35400645 6.72981832 -4.35400645 6.72981832 -3 4 C-2.01755155 2.65368175 -1.02323436 1.31558703 0 0 Z " fill="#020307" transform="translate(55,35)"/>
<path d="M0 0 C5.14689826 3.34152472 9.86052165 7.47036392 14 12 C14 12.66 14 13.32 14 14 C14.99 14.33 15.98 14.66 17 15 C11.51287462 14.71860896 8.19294836 12.36516424 3.85546875 9.27734375 C2.23815816 7.90549269 2.23815816 7.90549269 1 8 C0.67 8.66 0.34 9.32 0 10 C-0.94875 10.309375 -1.8975 10.61875 -2.875 10.9375 C-5.91622528 11.97151659 -6.9207288 12.71280168 -9 15 C-9.66 15 -10.32 15 -11 15 C-11 16.32 -11 17.64 -11 19 C-12.65 19 -14.3 19 -16 19 C-16 19.99 -16 20.98 -16 22 C-17.875 21.8125 -17.875 21.8125 -20 21 C-21.5625 18.875 -21.5625 18.875 -22 16 C-20.64845753 13.39956385 -18.85810889 11.253224 -17 9 C-16.34 8.01 -15.68 7.02 -15 6 C-14.319375 5.835 -13.63875 5.67 -12.9375 5.5 C-12.298125 5.335 -11.65875 5.17 -11 5 C-10.67 4.01 -10.34 3.02 -10 2 C-6.09168591 -0.60554272 -4.65785128 -0.73934147 0 0 Z " fill="#727597" transform="translate(46,45)"/>
<path d="M0 0 C4.35268473 1.72577149 8.68552917 3.49357641 13 5.3125 C13.69867188 5.59544922 14.39734375 5.87839844 15.1171875 6.16992188 C19.72717683 8.13134187 22.68251482 10.23543186 26 14 C22.37 13.34 18.74 12.68 15 12 C17.27307664 15.67840889 17.27307664 15.67840889 20 19 C21.99990516 19.19989763 21.99990516 19.19989763 24.3125 19.1875 C25.09238281 19.20167969 25.87226562 19.21585938 26.67578125 19.23046875 C29.29137309 18.97110754 30.80672082 18.44209265 33 17 C34.31210005 15.30272775 34.31210005 15.30272775 35.25 13.375 C36.11625 11.704375 36.11625 11.704375 37 10 C37.66 10 38.32 10 39 10 C39.433125 8.5459375 39.433125 8.5459375 39.875 7.0625 C41 4 41 4 43 3 C43.63961849 7.26412326 42.91879445 9.56109667 40.4375 12.9375 C37.67393485 16.37221669 34.6450677 19.45789514 31.41796875 22.45703125 C29.75381868 24.05672771 29.75381868 24.05672771 29 27 C21.69035533 27.48730964 21.69035533 27.48730964 18.875 25.5 C17.946875 24.2625 17.946875 24.2625 17 23 C16.29230469 22.07380859 16.29230469 22.07380859 15.5703125 21.12890625 C14.51778494 19.74386376 13.4761723 18.35046285 12.4453125 16.94921875 C11.29327133 15.39551998 10.0920032 13.87835689 8.875 12.375 C6.74902158 9.682094 4.88854737 6.86328149 3 4 C2.01133494 2.65824027 1.0161846 1.32103998 0 0 Z " fill="#523A9E" transform="translate(40,76)"/>
<path d="M0 0 C0.66 0.99 1.32 1.98 2 3 C2.556875 2.773125 3.11375 2.54625 3.6875 2.3125 C7.00746959 1.86385546 8.33034417 3.06449952 11 5 C13.3125 7.0625 13.3125 7.0625 15 9 C15 9.66 15 10.32 15 11 C15.99 11.33 16.98 11.66 18 12 C18 12.99 18 13.98 18 15 C12.65155992 14.46515599 8.64203897 12.53309233 4 10 C4.99 10.99 5.98 11.98 7 13 C5 14 5 14 2.8359375 13.44140625 C1.61777344 13.00634766 1.61777344 13.00634766 0.375 12.5625 C-0.44226562 12.27503906 -1.25953125 11.98757812 -2.1015625 11.69140625 C-2.72804688 11.46324219 -3.35453125 11.23507813 -4 11 C-4.28617188 11.59296875 -4.57234375 12.1859375 -4.8671875 12.796875 C-6.35441418 15.68927448 -8.16948662 18.31524704 -10 21 C-11.32 20.67 -12.64 20.34 -14 20 C-14.8125 17.8125 -14.8125 17.8125 -15 15 C-13 12.625 -13 12.625 -10 10 C-8.20810722 8.1259462 -6.42674762 6.24240868 -4.6484375 4.35546875 C-3 3 -3 3 0 3 C0 2.01 0 1.02 0 0 Z " fill="#514D83" transform="translate(59,24)"/>
<path d="M0 0 C8.93279922 1.1165999 16.13011791 3.26042068 24 7.625 C24.77472656 8.04523437 25.54945312 8.46546875 26.34765625 8.8984375 C28.23614356 9.92428246 30.11871 10.96101484 32 12 C31.67 17.94 31.34 23.88 31 30 C28.09261897 31.45369052 26.26033542 31.29639413 23 31 C18.04591902 29.23816134 13.41637793 26.84927608 9 24 C12.77353289 22.57265895 14.92026756 23.49355284 18.5625 25 C22.6986223 26.87059914 22.6986223 26.87059914 27 26 C27.33 24.02 27.66 22.04 28 20 C27.34 20 26.68 20 26 20 C26 18.02 26 16.04 26 14 C23.03 13.67 20.06 13.34 17 13 C17.66 11.68 18.32 10.36 19 9 C18.34 8.67 17.68 8.34 17 8 C17 7.34 17 6.68 17 6 C16.37351562 6.08378906 15.74703125 6.16757812 15.1015625 6.25390625 C14.28429687 6.35574219 13.46703125 6.45757812 12.625 6.5625 C11.81289062 6.66691406 11.00078125 6.77132812 10.1640625 6.87890625 C8 7 8 7 6 6 C6 5.34 6 4.68 6 4 C5.195625 3.71125 4.39125 3.4225 3.5625 3.125 C1 2 1 2 0 0 Z " fill="#05041E" transform="translate(55,35)"/>
<path d="M0 0 C3.04914122 -0.28765483 5.95903717 -0.42114054 9 0 C10.5625 2 10.5625 2 12 5 C13.27977579 6.32409703 14.59667641 7.61275948 15.9375 8.875 C19.51415337 12.36602446 21.90400899 15.45868615 24 20 C24 21.32 24 22.64 24 24 C19.17956741 23.39277496 15.45139334 21.34938559 11.25 19.0625 C10.56550781 18.70220703 9.88101563 18.34191406 9.17578125 17.97070312 C4.12861269 15.25722537 4.12861269 15.25722537 3 13 C10.5 16 10.5 16 18 19 C16.75596862 15.26790586 14.82756102 13.69291525 12 11 C11.525625 10.4225 11.05125 9.845 10.5625 9.25 C7.54327324 6.83461859 3.72844819 7 0 7 C-3.92474101 8.95920028 -6.47738629 11.37185855 -9.3125 14.6875 C-10.35857422 15.89986328 -10.35857422 15.89986328 -11.42578125 17.13671875 C-12.20501953 18.05904297 -12.20501953 18.05904297 -13 19 C-13 15.38792603 -11.8848962 14.01583392 -10 11 C-9.67 10.01 -9.34 9.02 -9 8 C-8.34 7.67 -7.68 7.34 -7 7 C-6.34 6.01 -5.68 5.02 -5 4 C-4.319375 3.835 -3.63875 3.67 -2.9375 3.5 C-2.298125 3.335 -1.65875 3.17 -1 3 C-0.67 2.01 -0.34 1.02 0 0 Z " fill="#A8A0D6" transform="translate(59,20)"/>
<path d="M0 0 C0.67578125 1.74609375 0.67578125 1.74609375 1 4 C-0.14453125 6.03515625 -0.14453125 6.03515625 -1.8125 8.0625 C-2.35519531 8.73410156 -2.89789063 9.40570313 -3.45703125 10.09765625 C-3.96621094 10.72542969 -4.47539063 11.35320312 -5 12 C-5.99 13.485 -5.99 13.485 -7 15 C-7.99 15.33 -8.98 15.66 -10 16 C-11.65637688 17.63044124 -11.65637688 17.63044124 -13.1875 19.5625 C-13.71730469 20.20316406 -14.24710938 20.84382813 -14.79296875 21.50390625 C-15.19128906 21.99761719 -15.58960937 22.49132812 -16 23 C-16.27585937 22.39285156 -16.55171875 21.78570312 -16.8359375 21.16015625 C-17.99738694 18.74745886 -17.99738694 18.74745886 -20.625 16.4375 C-23 14 -23 14 -23 11 C-20.03 11.33 -17.06 11.66 -14 12 C-11.97536798 8.11895465 -11.97536798 8.11895465 -10.625 4.375 C-9 1 -9 1 -7.125 -0.5 C-4.4708669 -1.12450191 -2.60448667 -0.72346852 0 0 Z " fill="#716DD1" transform="translate(103,58)"/>
<path d="M0 0 C0.49628906 0.38671875 0.99257813 0.7734375 1.50390625 1.171875 C5.84883147 4.50270951 10.18629161 7.39257462 15 10 C15 10.99 15 11.98 15 13 C8.46242775 11.49132948 8.46242775 11.49132948 6 8.875 C4.02472431 6.68346934 4.02472431 6.68346934 0.5625 6.375 C-3.18622958 7.03267186 -3.65471986 7.26325791 -5.9375 10 C-6.618125 10.99 -7.29875 11.98 -8 13 C-7.34 13.33 -6.68 13.66 -6 14 C-5.375 17.0625 -5.375 17.0625 -5 20 C-5.99 20 -6.98 20 -8 20 C-8.33 20.99 -8.66 21.98 -9 23 C-8.01 23 -7.02 23 -6 23 C-5.34 24.98 -4.68 26.96 -4 29 C-7.28771612 27.45600247 -10.24733837 25.60378313 -13.25 23.5625 C-14.14203125 22.96566406 -15.0340625 22.36882812 -15.953125 21.75390625 C-16.62859375 21.17511719 -17.3040625 20.59632812 -18 20 C-18 19.01 -18 18.02 -18 17 C-17.01 17 -16.02 17 -15 17 C-15 16.01 -15 15.02 -15 14 C-14.01 13.67 -13.02 13.34 -12 13 C-11.34 13.33 -10.68 13.66 -10 14 C-10 12.68 -10 11.36 -10 10 C-6.50642642 6.50642642 -4.0572806 4.44623064 1 4 C0.67 2.68 0.34 1.36 0 0 Z " fill="#2A2B7E" transform="translate(45,50)"/>
<path d="M0 0 C0.8353125 0.433125 0.8353125 0.433125 1.6875 0.875 C3.94884346 2.0373867 3.94884346 2.0373867 6.25 2.75 C10.22600335 4.55727425 13.86825762 6.94142917 17 10 C17.734375 12.1953125 17.734375 12.1953125 18 14 C17.05125 13.79375 16.1025 13.5875 15.125 13.375 C14.09375 13.25125 13.0625 13.1275 12 13 C11.34 13.66 10.68 14.32 10 15 C9.34 14.67 8.68 14.34 8 14 C7.96261719 14.62648438 7.92523438 15.25296875 7.88671875 15.8984375 C7.82097656 16.71570313 7.75523438 17.53296875 7.6875 18.375 C7.62949219 19.18710937 7.57148437 19.99921875 7.51171875 20.8359375 C7 23 7 23 4 25 C1.73828125 25.1953125 1.73828125 25.1953125 -0.6875 25.125 C-1.89986328 25.09792969 -1.89986328 25.09792969 -3.13671875 25.0703125 C-3.75160156 25.04710938 -4.36648437 25.02390625 -5 25 C-5 24.67 -5 24.34 -5 24 C-1.04 23.505 -1.04 23.505 3 23 C3 17.06 3 11.12 3 5 C1.68 4.34 0.36 3.68 -1 3 C-0.67 2.01 -0.34 1.02 0 0 Z " fill="#1B1D73" transform="translate(83,42)"/>
<path d="M0 0 C0.33 0.66 0.66 1.32 1 2 C0.67 2.66 0.34 3.32 0 4 C-0.66 4 -1.32 4 -2 4 C-2.0928125 4.8353125 -2.0928125 4.8353125 -2.1875 5.6875 C-3.52117079 9.48333226 -6.42340827 12.21170413 -10 14 C-13.0816615 14.47829324 -15.92878844 14.57717597 -19 14 C-21.40232303 12.20927756 -22.38087063 10.61149899 -24 8 C-24 7.34 -24 6.68 -24 6 C-20.7 6.33 -17.4 6.66 -14 7 C-14.33 6.34 -14.66 5.68 -15 5 C-11.7 5 -8.4 5 -5 5 C-4.34 3.68 -3.68 2.36 -3 1 C-2.01 0.67 -1.02 0.34 0 0 Z " fill="#292057" transform="translate(79,82)"/>
<path d="M0 0 C1.03125 0.144375 2.0625 0.28875 3.125 0.4375 C3.785 1.7575 4.445 3.0775 5.125 4.4375 C2.815 5.0975 0.505 5.7575 -1.875 6.4375 C-1.9560206 8.54103495 -2.01419907 10.64545952 -2.0625 12.75 C-2.09730469 13.92175781 -2.13210937 15.09351562 -2.16796875 16.30078125 C-2.16217399 19.43038464 -2.16217399 19.43038464 -0.36328125 21.35546875 C0.12785156 21.71253906 0.61898437 22.06960937 1.125 22.4375 C-2.47357954 22.4375 -3.96951118 21.47919485 -6.875 19.4375 C-6.875 18.7775 -6.875 18.1175 -6.875 17.4375 C-7.865 17.4375 -8.855 17.4375 -9.875 17.4375 C-9.545 16.1175 -9.215 14.7975 -8.875 13.4375 C-7.885 13.7675 -6.895 14.0975 -5.875 14.4375 C-6.205 12.4575 -6.535 10.4775 -6.875 8.4375 C-7.865 8.1075 -8.855 7.7775 -9.875 7.4375 C-5.09600656 0.57535558 -5.09600656 0.57535558 0 0 Z " fill="#07082B" transform="translate(45.875,55.5625)"/>
<path d="M0 0 C11.52164009 0.96355353 11.52164009 0.96355353 17 2 C17 2.66 17 3.32 17 4 C17.99 4.33 18.98 4.66 20 5 C20 5.99 20 6.98 20 8 C14.65155992 7.46515599 10.64203897 5.53309233 6 3 C6.99 3.99 7.98 4.98 9 6 C7 7 7 7 4.8359375 6.44140625 C4.02382813 6.15136719 3.21171875 5.86132812 2.375 5.5625 C1.55773438 5.27503906 0.74046875 4.98757812 -0.1015625 4.69140625 C-0.72804688 4.46324219 -1.35453125 4.23507813 -2 4 C-2.28617188 4.59296875 -2.57234375 5.1859375 -2.8671875 5.796875 C-4.35441418 8.68927448 -6.16948662 11.31524704 -8 14 C-8.99 13.34 -9.98 12.68 -11 12 C-10.34 12 -9.68 12 -9 12 C-8.67 10.02 -8.34 8.04 -8 6 C-6.35 5.67 -4.7 5.34 -3 5 C-3 4.34 -3 3.68 -3 3 C-2.34 3 -1.68 3 -1 3 C-0.67 2.01 -0.34 1.02 0 0 Z " fill="#3E3961" transform="translate(57,31)"/>
<path d="M0 0 C0.33 1.98 0.66 3.96 1 6 C0.071875 6.20625 -0.85625 6.4125 -1.8125 6.625 C-5.2461692 7.69621223 -5.2461692 7.69621223 -6.4375 10.9375 C-8 14 -8 14 -11.5 15.875 C-15 17 -15 17 -18 17 C-16.54694849 12.88302072 -14.67354206 9.45987796 -12 6 C-9.8125 5.3125 -9.8125 5.3125 -8 5 C-7.67 4.01 -7.34 3.02 -7 2 C-4 0 -4 0 0 0 Z " fill="#8F93EA" transform="translate(43,45)"/>
<path d="M0 0 C2.4164124 0.48328248 4.65832183 1.21944061 7 2 C6.67 2.66 6.34 3.32 6 4 C5.01 3.67 4.02 3.34 3 3 C2.67 3.66 2.34 4.32 2 5 C1.401875 5.556875 0.80375 6.11375 0.1875 6.6875 C-2.53560823 9.56621442 -4.12330155 12.51470288 -6 16 C-8.97 15.67 -11.94 15.34 -15 15 C-15.33 15.66 -15.66 16.32 -16 17 C-16.66 16.67 -17.32 16.34 -18 16 C-17.67 15.01 -17.34 14.02 -17 13 C-16.38511719 12.93941406 -15.77023438 12.87882812 -15.13671875 12.81640625 C-13.92435547 12.69072266 -13.92435547 12.69072266 -12.6875 12.5625 C-11.88699219 12.48128906 -11.08648437 12.40007812 -10.26171875 12.31640625 C-7.83912821 12.04734307 -7.83912821 12.04734307 -5 11 C-5 8.03 -5 5.06 -5 2 C-3.68 1.67 -2.36 1.34 -1 1 C-0.67 0.67 -0.34 0.34 0 0 Z " fill="#4649B1" transform="translate(95,54)"/>
<path d="M0 0 C3.3125 0.1875 3.3125 0.1875 7 1 C8.75 3.375 8.75 3.375 10 6 C11.58245275 7.75149165 11.58245275 7.75149165 13 9 C12.67 9.66 12.34 10.32 12 11 C11.62875 10.525625 11.2575 10.05125 10.875 9.5625 C7.68415004 6.90345837 4.02610346 7 0 7 C-3.92474101 8.95920028 -6.47738629 11.37185855 -9.3125 14.6875 C-10.35857422 15.89986328 -10.35857422 15.89986328 -11.42578125 17.13671875 C-12.20501953 18.05904297 -12.20501953 18.05904297 -13 19 C-13 15.38792603 -11.8848962 14.01583392 -10 11 C-9.67 10.01 -9.34 9.02 -9 8 C-8.34 7.67 -7.68 7.34 -7 7 C-6.34 6.01 -5.68 5.02 -5 4 C-4.319375 3.835 -3.63875 3.67 -2.9375 3.5 C-2.298125 3.335 -1.65875 3.17 -1 3 C-0.67 2.01 -0.34 1.02 0 0 Z " fill="#7773CC" transform="translate(59,20)"/>
<path d="M0 0 C0.33 0 0.66 0 1 0 C1.63961849 4.26412326 0.91879445 6.56109667 -1.5625 9.9375 C-4.32606515 13.37221669 -7.3549323 16.45789514 -10.58203125 19.45703125 C-12.24618132 21.05672771 -12.24618132 21.05672771 -13 24 C-15.64 24 -18.28 24 -21 24 C-21.66 22.02 -22.32 20.04 -23 18 C-22.46375 18.33 -21.9275 18.66 -21.375 19 C-18.4608939 20.22699204 -16.13132292 20.14233286 -13 20 C-12.67 19.01 -12.34 18.02 -12 17 C-11.566875 16.5875 -11.13375 16.175 -10.6875 15.75 C-8.18495031 13.15476329 -6.7285115 10.15900377 -5 7 C-4.34 7 -3.68 7 -3 7 C-2.690625 6.030625 -2.38125 5.06125 -2.0625 4.0625 C-1 1 -1 1 0 0 Z " fill="#9C88DE" transform="translate(82,79)"/>
<path d="M0 0 C-1.6396875 0.6496875 -1.6396875 0.6496875 -3.3125 1.3125 C-6.13790298 2.50873916 -7.92568798 3.70733935 -10 6 C-10.66 6 -11.32 6 -12 6 C-12 7.32 -12 8.64 -12 10 C-13.65 10 -15.3 10 -17 10 C-17 10.99 -17 11.98 -17 13 C-18.875 12.8125 -18.875 12.8125 -21 12 C-22.25 9.4375 -22.25 9.4375 -23 7 C-21.7625 6.9175 -20.525 6.835 -19.25 6.75 C-15.13814462 6.24680091 -13.84502805 5.0228423 -11 2 C-4.24146341 -1.41382114 -4.24146341 -1.41382114 0 0 Z " fill="#5151AD" transform="translate(47,54)"/>
<path d="M0 0 C0.33 0.66 0.66 1.32 1 2 C0.67 2.66 0.34 3.32 0 4 C-0.66 4 -1.32 4 -2 4 C-2.020625 4.5775 -2.04125 5.155 -2.0625 5.75 C-3.36269267 8.8704624 -5.32728274 9.67041173 -8.2109375 11.265625 C-10 12 -10 12 -13 12 C-13 11.34 -13 10.68 -13 10 C-13.66 9.67 -14.32 9.34 -15 9 C-14.34 8.67 -13.68 8.34 -13 8 C-13.66 7.01 -14.32 6.02 -15 5 C-11.7 5 -8.4 5 -5 5 C-4.34 3.68 -3.68 2.36 -3 1 C-2.01 0.67 -1.02 0.34 0 0 Z " fill="#221C3E" transform="translate(79,82)"/>
<path d="M0 0 C7.55266224 0.94408278 14.25941108 2.2926761 21 6 C19.02 6.99 19.02 6.99 17 8 C17 7.34 17 6.68 17 6 C16.37351562 6.08378906 15.74703125 6.16757812 15.1015625 6.25390625 C14.28429687 6.35574219 13.46703125 6.45757812 12.625 6.5625 C11.81289062 6.66691406 11.00078125 6.77132812 10.1640625 6.87890625 C8 7 8 7 6 6 C6 5.34 6 4.68 6 4 C5.195625 3.71125 4.39125 3.4225 3.5625 3.125 C1 2 1 2 0 0 Z " fill="#1C1A2D" transform="translate(55,35)"/>
<path d="M0 0 C4.875 2.875 4.875 2.875 6 4 C7.4346959 4.09894455 8.87440397 4.12970735 10.3125 4.125 C11.09238281 4.12757812 11.87226562 4.13015625 12.67578125 4.1328125 C14.91251539 4.00499912 16.85266979 3.61913869 19 3 C16.85338775 6.21991837 15.69971802 7.78580061 11.9375 8.9375 C9 9 9 9 6 7 C6.33 8.32 6.66 9.64 7 11 C4.59260552 10.03704221 3.25157752 9.38398674 1.8125 7.1875 C0.92912413 4.80918034 0.41664625 2.49987748 0 0 Z " fill="#8175C5" transform="translate(54,91)"/>
<path d="M0 0 C3.4375 1.25 3.4375 1.25 7 3 C7.6875 5.0625 7.6875 5.0625 8 7 C9.9837767 8.28436734 9.9837767 8.28436734 12 9 C12 9.66 12 10.32 12 11 C12.66 11.33 13.32 11.66 14 12 C8.29290936 11.53411505 4.84060277 10.06242216 0 7 C0 4.69 0 2.38 0 0 Z " fill="#565181" transform="translate(60,57)"/>
<path d="M0 0 C2.64 1.32 5.28 2.64 8 4 C7.67 9.94 7.34 15.88 7 22 C4.23749964 23.38125018 2.05268901 23.19079306 -1 23 C-1.66 22.34 -2.32 21.68 -3 21 C-0.36 21 2.28 21 5 21 C5 15.72 5 10.44 5 5 C3.68 4.34 2.36 3.68 1 3 C0.67 2.01 0.34 1.02 0 0 Z " fill="#0D0B40" transform="translate(79,43)"/>
<path d="M0 0 C4.58783614 0.56317749 8.13017688 1.79438581 12.25 3.875 C13.28640625 4.38804688 14.3228125 4.90109375 15.390625 5.4296875 C18 7 18 7 20 10 C19.28972656 9.68675781 18.57945313 9.37351562 17.84765625 9.05078125 C14.98538113 7.99460566 12.45523517 7.56943867 9.4375 7.1875 C5.47847885 6.52588461 4.30359577 6.28947504 1.3125 3.4375 C0 1 0 1 0 0 Z " fill="#8679CE" transform="translate(46,80)"/>
<path d="M0 0 C0.66 0 1.32 0 2 0 C2.66 0.66 3.32 1.32 4 2 C4.66 1.67 5.32 1.34 6 1 C5.38545304 4.99455527 3.29353263 7.74466336 1 11 C-0.32 10.34 -1.64 9.68 -3 9 C-3.33 9.66 -3.66 10.32 -4 11 C-4.66 11 -5.32 11 -6 11 C-5.67 9.68 -5.34 8.36 -5 7 C-3.68 6.67 -2.36 6.34 -1 6 C-1.020625 5.195625 -1.04125 4.39125 -1.0625 3.5625 C-1 1 -1 1 0 0 Z " fill="#9B8FEA" transform="translate(95,62)"/>
<path d="M0 0 C3 1 3 1 3.9296875 2.81640625 C4.28289062 3.53699219 4.63609375 4.25757813 5 5 C7.03606907 7.05651153 9.16425152 8.97263081 11.3203125 10.90234375 C13.36801012 13.45958474 13.34445844 14.80542575 13 18 C8.41701192 15.90491974 6.60256078 13.17500702 4.2109375 8.9375 C3.08477449 6.94128913 3.08477449 6.94128913 1.3515625 5.5 C0 4 0 4 0 0 Z " fill="#AA93E5" transform="translate(66,20)"/>
<path d="M0 0 C0.99 0.66 1.98 1.32 3 2 C0.89851796 5.98175544 -1.36905358 8.35039045 -5 11 C-5.0825 10.46375 -5.165 9.9275 -5.25 9.375 C-6.26376098 6.1647569 -8.07160549 3.73707608 -10 1 C-5.05 1.99 -5.05 1.99 0 3 C0 2.01 0 1.02 0 0 Z " fill="#9580D4" transform="translate(91,70)"/>
<path d="M0 0 C0.49628906 0.38671875 0.99257813 0.7734375 1.50390625 1.171875 C5.84883147 4.50270951 10.18629161 7.39257462 15 10 C15 10.99 15 11.98 15 13 C9.32845494 11.75226009 6.09042883 10.18555508 2 6 C0.625 2.6875 0.625 2.6875 0 0 Z " fill="#383469" transform="translate(45,50)"/>
<path d="M0 0 C1.6792238 0.63437344 3.35008418 1.29289322 5 2 C4.34 2.66 3.68 3.32 3 4 C0.03 3.01 -2.94 2.02 -6 1 C-6.66 2.32 -7.32 3.64 -8 5 C-9.31542376 7.01182457 -10.6459068 9.01399663 -12 11 C-12.99 10.34 -13.98 9.68 -15 9 C-14.34 9 -13.68 9 -13 9 C-12.67 7.02 -12.34 5.04 -12 3 C-10.35 2.67 -8.7 2.34 -7 2 C-7 1.34 -7 0.68 -7 0 C-4.26965677 -1.36517162 -2.92769462 -0.74894513 0 0 Z " fill="#262440" transform="translate(61,34)"/>
<path d="M0 0 C0.33 1.98 0.66 3.96 1 6 C0.05125 6.309375 -0.8975 6.61875 -1.875 6.9375 C-4.86080408 7.87394742 -4.86080408 7.87394742 -7 9 C-7 8.34 -7 7.68 -7 7 C-7.66 6.67 -8.32 6.34 -9 6 C-6.97377245 1.32409027 -5.29661848 0 0 0 Z " fill="#898AD8" transform="translate(43,45)"/>
<path d="M0 0 C0.99 0 1.98 0 3 0 C3.33 1.32 3.66 2.64 4 4 C3.05125 3.79375 2.1025 3.5875 1.125 3.375 C-0.421875 3.189375 -0.421875 3.189375 -2 3 C-2.66 3.66 -3.32 4.32 -4 5 C-4.66 4.67 -5.32 4.34 -6 4 C-6.33 6.97 -6.66 9.94 -7 13 C-7.33 13 -7.66 13 -8 13 C-8.33 8.71 -8.66 4.42 -9 0 C-5.93652871 -1.53173564 -3.31441515 -0.52332871 0 0 Z " fill="#262882" transform="translate(97,52)"/>
<path d="M0 0 C-1.37429765 2.96002571 -3.01770641 5.41439966 -5 8 C-5.33 8.66 -5.66 9.32 -6 10 C-8.64 10 -11.28 10 -14 10 C-14.66 8.02 -15.32 6.04 -16 4 C-15.195625 4.495 -15.195625 4.495 -14.375 5 C-11.4608939 6.22699204 -9.13132292 6.14233286 -6 6 C-5.67 5.01 -5.34 4.02 -5 3 C-2.44444444 0 -2.44444444 0 0 0 Z " fill="#9E94E2" transform="translate(75,93)"/>
<path d="M0 0 C6.11090483 -0.09945415 11.97403427 -0.0712828 18 1 C17.01 2.485 17.01 2.485 16 4 C10.14357233 4.71711359 5.38579128 3.05173001 0 1 C0 0.67 0 0.34 0 0 Z " fill="#151420" transform="translate(58,84)"/>
<path d="M0 0 C0.598125 0.309375 1.19625 0.61875 1.8125 0.9375 C4.08956772 2.10209704 4.08956772 2.10209704 7 3 C7 4.65 7 6.3 7 8 C6.01 8 5.02 8 4 8 C4 12.95 4 17.9 4 23 C3.67 23 3.34 23 3 23 C3 17.06 3 11.12 3 5 C1.68 4.34 0.36 3.68 -1 3 C-0.67 2.01 -0.34 1.02 0 0 Z " fill="#171358" transform="translate(83,42)"/>
<path d="M0 0 C1.03125 0.144375 2.0625 0.28875 3.125 0.4375 C3.455 1.0975 3.785 1.7575 4.125 2.4375 C2.7328125 2.5921875 2.7328125 2.5921875 1.3125 2.75 C-1.96402627 3.45670174 -3.03038519 3.71912027 -4.875 6.4375 C-5.59697162 9.04361077 -5.59697162 9.04361077 -5.875 11.4375 C-6.205 10.4475 -6.535 9.4575 -6.875 8.4375 C-7.865 8.1075 -8.855 7.7775 -9.875 7.4375 C-5.09600656 0.57535558 -5.09600656 0.57535558 0 0 Z " fill="#0D0F55" transform="translate(45.875,55.5625)"/>
<path d="M0 0 C1.32 0.33 2.64 0.66 4 1 C3.34 3.31 2.68 5.62 2 8 C-1.91402949 6.73058503 -3.79072873 5.48832306 -6 2 C-3 1 -3 1 0 2 C0 1.34 0 0.68 0 0 Z " fill="#10114A" transform="translate(32,66)"/>
<path d="M0 0 C1.02611949 1.65071396 2.02308143 3.31970006 3 5 C4.58245275 6.75149165 4.58245275 6.75149165 6 8 C5.67 8.66 5.34 9.32 5 10 C4.62875 9.525625 4.2575 9.05125 3.875 8.5625 C1.34053566 6.45044638 -0.75612612 6.27607437 -4 6 C-4.99 6.495 -4.99 6.495 -6 7 C-5.67 5.02 -5.34 3.04 -5 1 C-2 0 -2 0 0 0 Z " fill="#8D88BC" transform="translate(66,21)"/>
<path d="M0 0 C2.625 0.375 2.625 0.375 5 1 C4.01 1.495 4.01 1.495 3 2 C3 2.66 3 3.32 3 4 C2.38125 4.04125 1.7625 4.0825 1.125 4.125 C0.42375 4.41375 -0.2775 4.7025 -1 5 C-1.70381157 6.98723268 -2.3711811 8.98777953 -3 11 C-3.99 11.33 -4.98 11.66 -6 12 C-6.8125 9.8125 -6.8125 9.8125 -7 7 C-4.6875 4.3125 -4.6875 4.3125 -2 2 C-1.34 1.34 -0.68 0.68 0 0 Z " fill="#34367F" transform="translate(51,32)"/>
<path d="M0 0 C1.65 0.33 3.3 0.66 5 1 C5.6875 2.8125 5.6875 2.8125 6 5 C4.8125 6.8125 4.8125 6.8125 3 8 C0.8125 7.6875 0.8125 7.6875 -1 7 C-0.67 4.69 -0.34 2.38 0 0 Z " fill="#826CCE" transform="translate(98,57)"/>
<path d="M0 0 C2 3 2 3 2 6 C1.01 6 0.02 6 -1 6 C-1.33 6.99 -1.66 7.98 -2 9 C-1.01 9 -0.02 9 1 9 C1.66 10.98 2.32 12.96 3 15 C0.11562221 13.70700306 -1.87219421 12.34058637 -4 10 C-3.34 7.69 -2.68 5.38 -2 3 C-1.34 3 -0.68 3 0 3 C0 2.01 0 1.02 0 0 Z " fill="#2D2359" transform="translate(38,64)"/>
<path d="M0 0 C2.38564077 0.57584432 4.66682784 1.22227595 7 2 C6.67 2.66 6.34 3.32 6 4 C5.01 3.67 4.02 3.34 3 3 C2.67 3.66 2.34 4.32 2 5 C0.35704805 6.36244796 -1.30824337 7.69864875 -3 9 C-3 7.02 -3 5.04 -3 3 C-2.34 3 -1.68 3 -1 3 C-0.67 2.01 -0.34 1.02 0 0 Z " fill="#4F54B4" transform="translate(95,54)"/>
<path d="M0 0 C0 0.99 0 1.98 0 3 C-4.25840385 5.42505914 -8.18270114 5.7846358 -13 5 C-15.0625 3 -15.0625 3 -16 1 C-15.319375 1.165 -14.63875 1.33 -13.9375 1.5 C-8.91993923 2.3540529 -4.42404768 2.83139051 0 0 Z " fill="#423D66" transform="translate(73,91)"/>
<path d="M0 0 C-3.07999946 3.67230705 -5.2482602 4.56802365 -10 5 C-10.66 3.68 -11.32 2.36 -12 1 C-10.37681021 0.63762737 -8.7513642 0.28534843 -7.125 -0.0625 C-6.22007813 -0.25972656 -5.31515625 -0.45695312 -4.3828125 -0.66015625 C-2 -1 -2 -1 0 0 Z " fill="#645CA2" transform="translate(73,95)"/>
<path d="M0 0 C4.12751449 0.60698743 7.3321148 2.03810791 11 4 C11 4.66 11 5.32 11 6 C11.99 6.33 12.98 6.66 14 7 C8.39958947 6.57996921 4.411509 4.31423011 0 1 C0 0.67 0 0.34 0 0 Z " fill="#8582A9" transform="translate(49,53)"/>
<path d="M0 0 C1.670625 0.061875 1.670625 0.061875 3.375 0.125 C3.375 1.115 3.375 2.105 3.375 3.125 C0.72761084 4.5856285 -0.51948334 5.125 -3.625 5.125 C-3.625 4.465 -3.625 3.805 -3.625 3.125 C-4.285 2.795 -4.945 2.465 -5.625 2.125 C-3.625 0.125 -3.625 0.125 0 0 Z " fill="#292643" transform="translate(69.625,88.875)"/>
<path d="M0 0 C-1.6396875 0.6496875 -1.6396875 0.6496875 -3.3125 1.3125 C-6.13790298 2.50873916 -7.92568798 3.70733935 -10 6 C-10.66 6 -11.32 6 -12 6 C-12.33 6.99 -12.66 7.98 -13 9 C-13.33 8.34 -13.66 7.68 -14 7 C-12.904995 4.15298701 -11.83235942 2.45511544 -9.12109375 0.97265625 C-3.64604271 -1.21534757 -3.64604271 -1.21534757 0 0 Z " fill="#3D3E9D" transform="translate(47,54)"/>
<path d="M0 0 C2.86697492 1.28519565 4.97607712 2.57129254 7 5 C7 5.66 7 6.32 7 7 C4.03 6.67 1.06 6.34 -2 6 C-2 5.34 -2 4.68 -2 4 C-1.34 4 -0.68 4 0 4 C0 2.68 0 1.36 0 0 Z " fill="#20196A" transform="translate(90,46)"/>
<path d="M0 0 C0.66 0.33 1.32 0.66 2 1 C-0.55068845 3.35448165 -1.71017358 3.98327924 -5.25 4.1875 C-6.1575 4.125625 -7.065 4.06375 -8 4 C-8.33 4.66 -8.66 5.32 -9 6 C-9.66 5.67 -10.32 5.34 -11 5 C-10.67 4.01 -10.34 3.02 -10 2 C-9.04287109 1.90912109 -9.04287109 1.90912109 -8.06640625 1.81640625 C-6.82697266 1.69072266 -6.82697266 1.69072266 -5.5625 1.5625 C-4.73878906 1.48128906 -3.91507812 1.40007812 -3.06640625 1.31640625 C-1.01337975 1.21069185 -1.01337975 1.21069185 0 0 Z " fill="#3F3FA4" transform="translate(88,65)"/>
<path d="M0 0 C0.66 0.99 1.32 1.98 2 3 C-4.625 6 -4.625 6 -8 6 C-7.375 3.5625 -7.375 3.5625 -6 1 C-2.875 0.1875 -2.875 0.1875 0 0 Z " fill="#6A6DC8" transform="translate(44,50)"/>
<path d="M0 0 C0.66 0.66 1.32 1.32 2 2 C0.68 2.33 -0.64 2.66 -2 3 C-2 2.34 -2 1.68 -2 1 C-2.62648438 1.09539063 -3.25296875 1.19078125 -3.8984375 1.2890625 C-5.12433594 1.45535156 -5.12433594 1.45535156 -6.375 1.625 C-7.18710938 1.74101563 -7.99921875 1.85703125 -8.8359375 1.9765625 C-9.55007812 1.98429687 -10.26421875 1.99203125 -11 2 C-11.66 1.34 -12.32 0.68 -13 0 C-4.16544503 -1.34764398 -4.16544503 -1.34764398 0 0 Z " fill="#171523" transform="translate(74,40)"/>
<path d="M0 0 C4.03174806 0.27489191 5.56894631 0.53491576 8.375 3.5625 C8.91125 4.366875 9.4475 5.17125 10 6 C9.01 6 8.02 6 7 6 C6.67 5.34 6.34 4.68 6 4 C4.10466658 3.53476937 4.10466658 3.53476937 1.9375 3.375 C0.638125 3.25125 -0.66125 3.1275 -2 3 C-1.34 2.01 -0.68 1.02 0 0 Z " fill="#6B698B" transform="translate(62,26)"/>
<path d="M0 0 C1.65 0 3.3 0 5 0 C5.33 0.99 5.66 1.98 6 3 C7.49985609 4.66710346 7.49985609 4.66710346 9 6 C5.37546731 6 3.92079805 5.07530387 1 3 C0.67 2.01 0.34 1.02 0 0 Z " fill="#140634" transform="translate(38,72)"/>
<path d="M0 0 C4.37113496 0.50827151 7.38995662 1.45173408 11 4 C11 4.33 11 4.66 11 5 C9.02 5 7.04 5 5 5 C5 4.34 5 3.68 5 3 C2.525 2.01 2.525 2.01 0 1 C0 0.67 0 0.34 0 0 Z " fill="#AB96E9" transform="translate(46,80)"/>
<path d="M0 0 C3.63 0.33 7.26 0.66 11 1 C11 2.32 11 3.64 11 5 C9.53932801 4.54917531 8.08151968 4.08906463 6.625 3.625 C5.81289063 3.36976562 5.00078125 3.11453125 4.1640625 2.8515625 C2 2 2 2 0 0 Z " fill="#201236" transform="translate(47,79)"/>
<path d="M0 0 C0.99 0.33 1.98 0.66 3 1 C1.68 3.64 0.36 6.28 -1 9 C-1.99 8.34 -2.98 7.68 -4 7 C-3.34 7 -2.68 7 -2 7 C-1.855625 6.030625 -1.71125 5.06125 -1.5625 4.0625 C-1 1 -1 1 0 0 Z " fill="#2E3452" transform="translate(50,36)"/>
<path d="M0 0 C2.76390737 2.40339772 3.04065919 3.16263678 4 7 C1.36 6.34 -1.28 5.68 -4 5 C-3.34 4.67 -2.68 4.34 -2 4 C-0.86649466 1.98330173 -0.86649466 1.98330173 0 0 Z " fill="#725FB9" transform="translate(79,35)"/>
<path d="M0 0 C3 1 3 1 4.0625 2.9375 C4.371875 3.618125 4.68125 4.29875 5 5 C5.66 5.66 6.32 6.32 7 7 C6.67 7.99 6.34 8.98 6 10 C4.98808455 9.09650406 3.99081074 8.17659153 3 7.25 C2.1646875 6.48429687 2.1646875 6.48429687 1.3125 5.703125 C0 4 0 4 0 0 Z " fill="#C1B6F2" transform="translate(66,20)"/>
<path d="M0 0 C0.66 0 1.32 0 2 0 C2.33 1.32 2.66 2.64 3 4 C1.35 5.32 -0.3 6.64 -2 8 C-2 4.23312136 -1.76462683 3.08809695 0 0 Z " fill="#8375CB" transform="translate(77,86)"/>
<path d="M0 0 C1.32 0 2.64 0 4 0 C3.67 0.99 3.34 1.98 3 3 C-0.5625 4.6875 -0.5625 4.6875 -4 6 C-4 5.01 -4 4.02 -4 3 C-2.68 2.67 -1.36 2.34 0 2 C0 1.34 0 0.68 0 0 Z " fill="#7477D5" transform="translate(32,56)"/>
<path d="M0 0 C2.64 0 5.28 0 8 0 C8.33 0.99 8.66 1.98 9 3 C10.32 3.33 11.64 3.66 13 4 C10.03 3.67 7.06 3.34 4 3 C4 2.34 4 1.68 4 1 C2.68 0.67 1.36 0.34 0 0 Z " fill="#595771" transform="translate(60,29)"/>
<path d="M0 0 C1.051875 0.680625 1.051875 0.680625 2.125 1.375 C5.02984591 3.01686943 7.8139348 4.03677099 11 5 C8.00468461 5.99843846 6.82744268 6.00732761 3.8125 5.5625 C2.554375 5.376875 1.29625 5.19125 0 5 C0 3.35 0 1.7 0 0 Z " fill="#302872" transform="translate(67,60)"/>
<path d="M0 0 C1.32 0 2.64 0 4 0 C4.33 1.98 4.66 3.96 5 6 C3.35 5.67 1.7 5.34 0 5 C-0.5625 3.0625 -0.5625 3.0625 -1 1 C-0.67 0.67 -0.34 0.34 0 0 Z " fill="#9F9FEB" transform="translate(39,45)"/>
<path d="M0 0 C-1.37429765 2.96002571 -3.01770641 5.41439966 -5 8 C-5.33 8.66 -5.66 9.32 -6 10 C-6.66 9.67 -7.32 9.34 -8 9 C-3.8 0 -3.8 0 0 0 Z " fill="#AEA7E5" transform="translate(75,93)"/>
<path d="M0 0 C0.66 0.66 1.32 1.32 2 2 C1.16855469 2.30744141 1.16855469 2.30744141 0.3203125 2.62109375 C-0.40414062 2.89050781 -1.12859375 3.15992188 -1.875 3.4375 C-2.95394531 3.83775391 -2.95394531 3.83775391 -4.0546875 4.24609375 C-6.03648845 4.97916854 -6.03648845 4.97916854 -8 6 C-7.67 4.68 -7.34 3.36 -7 2 C-4.69 1.34 -2.38 0.68 0 0 Z " fill="#03051C" transform="translate(51,59)"/>
<path d="M0 0 C0.66 0 1.32 0 2 0 C2 0.66 2 1.32 2 2 C3.65 2 5.3 2 7 2 C7 3.65 7 5.3 7 7 C3.535 5.02 3.535 5.02 0 3 C0 2.01 0 1.02 0 0 Z " fill="#131635" transform="translate(43,42)"/>
<path d="M0 0 C0.598125 0.309375 1.19625 0.61875 1.8125 0.9375 C4.08956772 2.10209704 4.08956772 2.10209704 7 3 C7 3.99 7 4.98 7 6 C4.64828869 5.40138258 2.3140622 4.73075648 0 4 C-0.33 3.34 -0.66 2.68 -1 2 C-0.67 1.34 -0.34 0.68 0 0 Z " fill="#6347AD" transform="translate(83,42)"/>
<path d="M0 0 C1.625 1.6875 1.625 1.6875 3 4 C2.1875 6.75 2.1875 6.75 1 9 C0.01 8.01 -0.98 7.02 -2 6 C-1.34 4.02 -0.68 2.04 0 0 Z " fill="#574E94" transform="translate(83,74)"/>
<path d="M0 0 C1.32 0 2.64 0 4 0 C3.34 1.98 2.68 3.96 2 6 C1.01 6 0.02 6 -1 6 C-0.67 5.34 -0.34 4.68 0 4 C0 2.68 0 1.36 0 0 Z " fill="#9A86CE" transform="translate(95,66)"/>
<path d="M0 0 C1.65 0.33 3.3 0.66 5 1 C5 1.99 5 2.98 5 4 C2.03 3.505 2.03 3.505 -1 3 C-0.67 2.01 -0.34 1.02 0 0 Z " fill="#454188" transform="translate(72,35)"/>
<path d="M0 0 C2.625 -0.1875 2.625 -0.1875 5 0 C4.67 1.32 4.34 2.64 4 4 C1.03 3.505 1.03 3.505 -2 3 C-1.34 2.01 -0.68 1.02 0 0 Z " fill="#352E59" transform="translate(62,90)"/>
<path d="M0 0 C1.32 0 2.64 0 4 0 C4.6875 1.8125 4.6875 1.8125 5 4 C3.5625 5.75 3.5625 5.75 2 7 C1.855625 6.401875 1.71125 5.80375 1.5625 5.1875 C1.1127561 3.43849596 0.57107659 1.71322977 0 0 Z " fill="#7E74C3" transform="translate(84,74)"/>
<path d="M0 0 C0.33 1.32 0.66 2.64 1 4 C0.01 4 -0.98 4 -2 4 C-2.33 4.66 -2.66 5.32 -3 6 C-3.66 6 -4.32 6 -5 6 C-4.75 4.125 -4.75 4.125 -4 2 C-1.9375 0.75 -1.9375 0.75 0 0 Z " fill="#B7A1F0" transform="translate(94,67)"/>
<path d="M0 0 C0.66 0.99 1.32 1.98 2 3 C0.71034824 4.37562854 -0.62689293 5.70766393 -2 7 C-2.66 7 -3.32 7 -4 7 C-2.92598892 4.08482708 -2.22189824 2.22189824 0 0 Z " fill="#8887DF" transform="translate(29,55)"/>
<path d="M0 0 C2.31 0.33 4.62 0.66 7 1 C7.33 1.99 7.66 2.98 8 4 C4.31245243 3.50168276 2.39509338 2.89932357 0 0 Z " fill="#B1A3EB" transform="translate(75,40)"/>
<path d="M0 0 C2.31 0.33 4.62 0.66 7 1 C6.67 1.99 6.34 2.98 6 4 C3.69 3.34 1.38 2.68 -1 2 C-0.67 1.34 -0.34 0.68 0 0 Z " fill="#373458" transform="translate(57,31)"/>
<path d="M0 0 C0 0.99 0 1.98 0 3 C-0.99 3 -1.98 3 -3 3 C-2.01 2.01 -1.02 1.02 0 0 Z " fill="#6B65AE" transform="translate(77,93)"/>
<path d="M0 0 C1.65 0 3.3 0 5 0 C5 0.33 5 0.66 5 1 C3.35 1 1.7 1 0 1 C0 0.67 0 0.34 0 0 Z " fill="#9A91C7" transform="translate(61,19)"/>
<path d="M0 0 C4 1 4 1 4 1 Z " fill="#938CCA" transform="translate(63,103)"/>
<path d="M0 0 C0.99 0.495 0.99 0.495 2 1 C1.67 1.66 1.34 2.32 1 3 C0.67 2.01 0.34 1.02 0 0 Z " fill="#271C63" transform="translate(49,90)"/>
<path d="" fill="#7C1D99" transform="translate(0,0)"/>
<path d="" fill="#1A1C47" transform="translate(0,0)"/>
<path d="" fill="#26228C" transform="translate(0,0)"/>
<path d="" fill="#8B7FA9" transform="translate(0,0)"/>
<path d="" fill="#030338" transform="translate(0,0)"/>
<path d="" fill="#AC7CB8" transform="translate(0,0)"/>
<path d="" fill="#070338" transform="translate(0,0)"/>
<path d="" fill="#B184C4" transform="translate(0,0)"/>
<path d="" fill="#3F166A" transform="translate(0,0)"/>
<path d="" fill="#474A6E" transform="translate(0,0)"/>
<path d="" fill="#7B7D89" transform="translate(0,0)"/>
<path d="" fill="#483DAD" transform="translate(0,0)"/>
<path d="" fill="#7F7180" transform="translate(0,0)"/>
<path d="" fill="#190597" transform="translate(0,0)"/>
<path d="" fill="#F6F7FF" transform="translate(0,0)"/>
<path d="" fill="#7F7F8E" transform="translate(0,0)"/>
<path d="" fill="#5F538C" transform="translate(0,0)"/>
<path d="" fill="#37286B" transform="translate(0,0)"/>
<path d="" fill="#2C2EE5" transform="translate(0,0)"/>
<path d="" fill="#2D2569" transform="translate(0,0)"/>
<path d="" fill="#99A0D1" transform="translate(0,0)"/>
<path d="" fill="#3F3792" transform="translate(0,0)"/>
<path d="" fill="#ACA7F4" transform="translate(0,0)"/>
<path d="" fill="#9C8AD9" transform="translate(0,0)"/>
<path d="" fill="#DEB5FF" transform="translate(0,0)"/>
<path d="" fill="#897CCE" transform="translate(0,0)"/>
<path d="" fill="#9087CC" transform="translate(0,0)"/>
<path d="" fill="#7F6FD2" transform="translate(0,0)"/>
<path d="" fill="#6D5EBC" transform="translate(0,0)"/>
<path d="" fill="#5E50A9" transform="translate(0,0)"/>
<path d="" fill="#8D7ED8" transform="translate(0,0)"/>
<path d="" fill="#7D71B9" transform="translate(0,0)"/>
<path d="" fill="#A596F4" transform="translate(0,0)"/>
<path d="" fill="#8C7CDC" transform="translate(0,0)"/>
<path d="" fill="#594EA3" transform="translate(0,0)"/>
<path d="" fill="#666094" transform="translate(0,0)"/>
<path d="" fill="#060048" transform="translate(0,0)"/>
<path d="" fill="#D09EF3" transform="translate(0,0)"/>
<path d="" fill="#71439B" transform="translate(0,0)"/>
<path d="" fill="#783EA3" transform="translate(0,0)"/>
<path d="" fill="#7C34AE" transform="translate(0,0)"/>
<path d="" fill="#946DDF" transform="translate(0,0)"/>
<path d="" fill="#9C7DF3" transform="translate(0,0)"/>
<path d="" fill="#946ADE" transform="translate(0,0)"/>
<path d="" fill="#9D77D6" transform="translate(0,0)"/>
<path d="" fill="#C0A6FF" transform="translate(0,0)"/>
<path d="" fill="#665EC5" transform="translate(0,0)"/>
<path d="" fill="#8586BA" transform="translate(0,0)"/>
<path d="" fill="#8A81E6" transform="translate(0,0)"/>
<path d="" fill="#8C7DFF" transform="translate(0,0)"/>
<path d="" fill="#57649F" transform="translate(0,0)"/>
<path d="" fill="#7E72E1" transform="translate(0,0)"/>
<path d="" fill="#5E54BC" transform="translate(0,0)"/>
<path d="" fill="#110B5D" transform="translate(0,0)"/>
<path d="" fill="#6E69C1" transform="translate(0,0)"/>
<path d="" fill="#00003C" transform="translate(0,0)"/>
<path d="" fill="#5553A6" transform="translate(0,0)"/>
<path d="" fill="#0E0B63" transform="translate(0,0)"/>
<path d="" fill="#898FBD" transform="translate(0,0)"/>
<path d="" fill="#9DA5BA" transform="translate(0,0)"/>
<path d="" fill="#6C4AE2" transform="translate(0,0)"/>
<path d="" fill="#6C53C4" transform="translate(0,0)"/>
<path d="" fill="#5A51C3" transform="translate(0,0)"/>
<path d="" fill="#8C78F3" transform="translate(0,0)"/>
<path d="" fill="#7F97D8" transform="translate(0,0)"/>
<path d="" fill="#7686CC" transform="translate(0,0)"/>
<path d="" fill="#A1B9FF" transform="translate(0,0)"/>
<path d="" fill="#AEB0F9" transform="translate(0,0)"/>
<path d="" fill="#88A1F4" transform="translate(0,0)"/>
<path d="" fill="#A99ADA" transform="translate(0,0)"/>
<path d="" fill="#F4C0FF" transform="translate(0,0)"/>
<path d="" fill="#FFECFF" transform="translate(0,0)"/>
<path d="" fill="#F0B1FF" transform="translate(0,0)"/>
<path d="" fill="#846990" transform="translate(0,0)"/>
<path d="" fill="#FFE1FF" transform="translate(0,0)"/>
<path d="" fill="#A790F3" transform="translate(0,0)"/>
<path d="" fill="#9E91D0" transform="translate(0,0)"/>
<path d="" fill="#FEFAFF" transform="translate(0,0)"/>
<path d="" fill="#7771B1" transform="translate(0,0)"/>
<path d="" fill="#A7A0D9" transform="translate(0,0)"/>
<path d="" fill="#8982BD" transform="translate(0,0)"/>
<path d="" fill="#B7A9FF" transform="translate(0,0)"/>
</svg>
